<svg xmlns="http://www.w3.org/2000/svg" version="1.1" xmlns:xlink="http://www.w3.org/1999/xlink" xmlns:svgjs="http://svgjs.dev/svgjs" width="1500" height="329" viewBox="0 0 1500 329"><g transform="matrix(1,0,0,1,-0.9090909090909918,0.4175010351075912)"><svg viewBox="0 0 396 87" data-background-color="#d2d6d9" preserveAspectRatio="xMidYMid meet" height="329" width="1500" xmlns="http://www.w3.org/2000/svg" xmlns:xlink="http://www.w3.org/1999/xlink"><g id="tight-bounds" transform="matrix(1,0,0,1,0.2400000000000091,-0.11040300928377178)"><svg viewBox="0 0 395.52 87.22080601856756" height="87.22080601856756" width="395.52"><g><svg viewBox="0 0 533.1836769481088 117.57865609667675" height="87.22080601856756" width="395.52"><g transform="matrix(1,0,0,1,0,16.25001687009064)"><svg viewBox="0 0 395.52 85.07862235649547" height="85.07862235649547" width="395.52"><g id="textblocktransform"><svg viewBox="0 0 395.52 85.07862235649547" height="85.07862235649547" width="395.52" id="textblock"><g><svg viewBox="0 0 395.52 85.07862235649547" height="85.07862235649547" width="395.52"><g transform="matrix(1,0,0,1,0,0)"><svg width="395.52" viewBox="0.9 -35.25 165.48 35.6" height="85.07862235649547" data-palette-color="#ff460b"><path d="M35.45 0L31.3 0 27.4-9.05 9-9.05 5.1 0 0.9 0 16.4-35.25 19.95-35.25 35.45 0ZM18.2-30.5L10.45-12.45 25.95-12.45 18.2-30.5ZM44.15 0L40.1 0 40.1-35.25 44.15-35.25 44.15 0ZM55.75 0L51.7 0 51.7-35.25 55.75-35.25 55.75 0ZM94.99 0L90.84 0 86.94-9.05 68.54-9.05 64.64 0 60.44 0 75.94-35.25 79.49-35.25 94.99 0ZM77.74-30.5L69.99-12.45 85.49-12.45 77.74-30.5ZM116.09-24.35L120.14-24.35 120.14 0 116.19 0 116.19-4.15Q115.04-1.95 112.97-0.8 110.89 0.35 108.29 0.35L108.29 0.35Q103.94 0.35 101.74-2.08 99.54-4.5 99.54-9.25L99.54-9.25 99.54-24.35 103.59-24.35 103.59-9.35Q103.59-6.1 104.89-4.58 106.19-3.05 108.99-3.05L108.99-3.05Q112.19-3.05 114.14-5.13 116.09-7.2 116.09-10.6L116.09-10.6 116.09-24.35ZM138.39-2.9Q139.49-2.9 140.59-3.05L140.59-3.05 140.39 0.15Q139.24 0.35 137.89 0.35L137.89 0.35Q133.49 0.35 131.26-1.95 129.04-4.25 129.04-8.35L129.04-8.35 129.04-21.15 124.29-21.15 124.29-24.35 129.04-24.35 129.04-31.75 133.09-31.75 133.09-24.35 139.99-24.35 139.99-21.15 133.09-21.15 133.09-8.65Q133.09-2.9 138.39-2.9L138.39-2.9ZM154.78 0.35Q151.34 0.35 148.71-1.2 146.09-2.75 144.66-5.63 143.24-8.5 143.24-12.3L143.24-12.3Q143.24-16.1 144.66-18.98 146.09-21.85 148.71-23.4 151.34-24.95 154.78-24.95L154.78-24.95Q158.24-24.95 160.88-23.4 163.53-21.85 164.96-18.98 166.38-16.1 166.38-12.3L166.38-12.3Q166.38-8.5 164.96-5.63 163.53-2.75 160.88-1.2 158.24 0.35 154.78 0.35L154.78 0.35ZM154.78-3Q158.38-3 160.31-5.38 162.24-7.75 162.24-12.3L162.24-12.3Q162.24-16.75 160.28-19.18 158.34-21.6 154.78-21.6L154.78-21.6Q151.24-21.6 149.28-19.18 147.34-16.75 147.34-12.3L147.34-12.3Q147.34-7.8 149.26-5.4 151.19-3 154.78-3L154.78-3Z" opacity="1" transform="matrix(1,0,0,1,0,0)" fill="#ff460b" class="wordmark-text-0" data-fill-palette-color="primary" id="text-0"></path></svg></g></svg></g></svg></g></svg></g><g transform="matrix(1,0,0,1,415.605020851432,0)"><svg viewBox="0 0 117.57865609667675 117.57865609667675" height="117.57865609667675" width="117.57865609667675"><g data-palette-color="#b67845"><rect width="32.138165999758314" height="117.57865609667675" fill="#b67845" stroke="transparent" data-fill-palette-color="accent" x="0" fill-opacity="1"></rect><rect width="32.138165999758314" height="117.57865609667675" fill="#b67845" stroke="transparent" data-fill-palette-color="accent" x="39.19288536555892" fill-opacity="0.75"></rect><rect width="32.138165999758314" height="117.57865609667675" fill="#b67845" stroke="transparent" data-fill-palette-color="accent" x="78.38577073111784" fill-opacity="0.5"></rect></g></svg></g></svg></g><defs></defs></svg><rect width="395.52" height="87.22080601856756" fill="none" stroke="none" visibility="hidden"></rect></g></svg></g></svg>