<?xml version="1.0" standalone="no"?>
<!DOCTYPE svg PUBLIC "-//W3C//DTD SVG 20010904//EN"
 "http://www.w3.org/TR/2001/REC-SVG-20010904/DTD/svg10.dtd">
<svg version="1.0" xmlns="http://www.w3.org/2000/svg"
 width="1600.000000pt" height="1066.000000pt" viewBox="0 0 1600.000000 1066.000000"
 preserveAspectRatio="xMidYMid meet">

<g transform="translate(0.000000,1066.000000) scale(0.100000,-0.100000)"
fill="#000000" stroke="none">
<path d="M0 5330 l0 -5330 8000 0 8000 0 0 5020 0 5021 -110 -58 c-60 -32
-110 -64 -110 -71 0 -18 -62 -53 -84 -48 -10 3 -35 -5 -55 -18 -20 -13 -117
-65 -216 -116 -99 -51 -184 -96 -190 -100 -42 -30 -413 -220 -429 -220 -9 0
-12 -7 -10 -17 5 -19 0 -23 -206 -130 -58 -31 -109 -59 -115 -63 -5 -4 -55
-31 -110 -60 -55 -29 -104 -56 -110 -60 -9 -7 -81 -45 -260 -140 -290 -154
-278 -147 -271 -165 3 -8 -6 -11 -29 -8 -21 2 -39 -2 -48 -12 -9 -8 -19 -15
-24 -15 -5 0 -32 -16 -62 -35 -29 -19 -57 -35 -62 -35 -5 0 -23 -9 -41 -20
-18 -11 -41 -20 -50 -20 -10 0 -18 -7 -18 -16 0 -8 -4 -12 -10 -9 -5 3 -10 1
-10 -4 0 -6 -6 -11 -14 -11 -8 0 -16 -4 -18 -9 -9 -26 -30 -9 -81 61 -52 72
-55 79 -37 88 10 5 27 10 37 10 10 0 39 11 64 25 26 13 49 21 53 18 3 -3 8 2
12 11 3 9 12 16 19 16 7 0 26 7 41 15 16 8 44 15 62 15 18 0 31 4 28 9 -6 9
17 23 52 30 4 1 -1 8 -11 15 -18 14 -17 15 3 21 11 4 34 3 51 0 21 -5 36 -2
47 8 23 20 132 80 132 73 0 -3 15 3 33 14 17 10 48 27 67 36 19 9 70 34 113
55 42 22 77 36 77 32 0 -5 4 -3 8 3 4 6 54 35 112 63 58 28 116 57 130 66 14
8 64 33 113 56 48 23 87 46 87 50 0 5 7 9 16 9 8 0 50 18 92 40 43 22 95 43
117 47 22 3 58 16 80 28 22 12 99 53 170 90 72 37 171 89 220 115 50 26 135
71 190 100 55 29 120 69 145 90 78 65 159 97 175 70 4 -6 54 14 126 52 l119
63 0 293 0 292 -8000 0 -8000 0 0 -5330z m15705 4490 c-3 -5 -12 -10 -18 -10
-7 0 -6 4 3 10 19 12 23 12 15 0z m-2585 -999 c-14 -5 -40 -16 -58 -25 -17 -9
-32 -14 -32 -11 0 12 67 45 90 44 l25 -1 -25 -7z m-136 -53 c32 -43 39 -108
12 -108 -14 0 -96 86 -96 101 0 13 30 39 45 39 8 0 25 -15 39 -32z m-357 -54
c188 -120 355 -415 377 -664 6 -63 5 -62 -23 45 -51 193 -101 305 -196 434
-67 90 -123 149 -180 187 -67 45 -49 43 22 -2z m259 -41 c82 -54 175 -86 145
-50 -8 10 -9 17 -3 17 16 0 80 -79 99 -123 14 -31 19 -35 24 -20 14 35 8 53
-36 107 l-45 56 25 16 c34 22 58 11 107 -48 24 -28 53 -54 64 -59 28 -10 56
-93 52 -150 -3 -38 -8 -47 -48 -76 -25 -19 -54 -40 -65 -49 -19 -14 -20 -13
-25 18 -5 36 -35 51 -43 21 -3 -13 -5 -11 -7 7 -1 19 -5 15 -15 -20 -18 -65
-6 -208 16 -194 12 7 11 -47 0 -65 -8 -12 -11 -10 -15 10 -2 13 -12 62 -21
109 -22 110 -64 224 -111 303 -47 78 -135 187 -188 234 -51 44 -20 29 90 -44z
m156 34 c3 -16 5 -16 41 3 45 24 48 11 5 -25 -25 -22 -33 -24 -44 -13 -16 16
-32 78 -16 63 5 -5 12 -18 14 -28z m658 9 c0 -3 -4 -8 -10 -11 -5 -3 -10 -1
-10 4 0 6 5 11 10 11 6 0 10 -2 10 -4z m-1125 -121 c156 -153 263 -358 310
-587 28 -139 15 -147 -19 -13 -47 181 -98 300 -179 424 -64 96 -186 232 -247
275 -14 9 -5 7 20 -6 24 -13 76 -54 115 -93z m1031 70 c-21 -16 -32 -13 -21 4
3 6 14 11 23 11 15 -1 15 -2 -2 -15z m-42 -24 c-5 -5 -26 -18 -46 -29 -21 -10
-35 -22 -31 -26 3 -3 -1 -6 -11 -6 -10 0 -14 -5 -10 -12 4 -7 3 -8 -5 -4 -6 4
-34 -12 -66 -39 l-55 -47 -10 27 c-14 36 -13 45 5 46 31 3 35 4 54 20 10 9 36
23 57 30 22 8 41 17 44 20 7 10 74 37 79 32 3 -2 0 -7 -5 -12z m-1166 -79 c29
-25 82 -83 117 -130 64 -86 160 -257 168 -302 3 -14 18 -65 35 -115 16 -49 32
-119 35 -155 6 -62 5 -60 -22 45 -73 281 -196 503 -370 668 -79 74 -55 67 37
-11z m-119 -122 c115 -117 233 -337 295 -554 14 -48 25 -102 25 -120 -1 -20
-3 -24 -6 -11 -16 72 -62 215 -96 300 -62 155 -144 280 -276 419 -48 50 -56
63 -31 45 19 -13 59 -48 89 -79z m-147 -89 c65 -71 135 -176 188 -281 49 -98
115 -293 124 -365 5 -41 2 -35 -18 35 -84 292 -194 487 -375 667 -65 66 -65
66 -17 32 27 -19 71 -58 98 -88z m-152 -88 c54 -61 138 -184 182 -268 55 -106
151 -406 134 -422 -2 -3 -10 15 -16 38 -23 94 -83 267 -115 334 -65 136 -181
297 -284 393 l-46 44 47 -31 c25 -17 69 -57 98 -88z m-169 -80 c116 -119 212
-290 280 -492 21 -63 41 -137 44 -165 l5 -51 -15 50 c-60 192 -81 250 -120
330 -66 135 -158 268 -255 366 -62 62 -75 80 -46 59 23 -15 71 -59 107 -97z
m1363 55 c9 -47 3 -84 -13 -83 -30 2 -36 13 -33 59 3 37 8 46 23 46 11 0 20
-9 23 -22z m-1543 -117 c85 -85 157 -187 216 -306 59 -118 119 -289 137 -394
10 -58 -2 -29 -33 75 -74 253 -200 480 -359 642 -44 45 -70 76 -58 70 11 -6
55 -45 97 -87z m-160 -84 c112 -110 198 -249 273 -438 44 -113 92 -276 84
-285 -3 -2 -18 40 -33 93 -77 264 -224 516 -388 669 -49 46 -61 61 -38 48 18
-10 64 -49 102 -87z m-137 -108 c121 -131 219 -306 290 -523 53 -161 43 -173
-13 -15 -54 156 -88 231 -138 309 -20 30 -47 73 -61 95 -37 56 -96 130 -156
194 -39 42 -44 49 -19 33 17 -12 61 -54 97 -93z m-160 -84 c104 -120 197 -275
251 -418 25 -66 55 -102 176 -207 l24 -21 -25 12 c-14 7 -27 15 -30 19 -9 12
-75 57 -91 63 -13 4 -16 1 -11 -15 4 -16 2 -19 -8 -13 -9 6 -12 4 -8 -7 4 -9
0 -15 -8 -15 -8 0 -13 5 -11 11 3 6 -7 12 -20 12 -23 2 -24 1 -7 -17 9 -10 13
-19 8 -19 -5 0 -2 -5 6 -10 13 -9 13 -10 0 -11 -8 -1 -19 -1 -23 0 -5 1 -6 -3
-2 -9 9 -14 -20 -23 -50 -16 -16 4 -25 13 -25 27 0 13 4 18 12 13 6 -4 8 -3 5
4 -4 5 -15 9 -25 7 -9 -2 -24 -4 -32 -5 -11 -1 -9 -6 8 -17 24 -17 30 -38 9
-30 -7 3 -19 -4 -25 -14 -7 -10 -20 -19 -30 -19 -12 0 -17 -8 -17 -28 0 -28 1
-28 50 -24 28 2 61 -1 75 -6 19 -8 13 -9 -30 -5 -37 4 -71 0 -103 -11 -54 -18
-69 -20 -47 -6 13 9 13 10 0 10 -27 0 -109 -54 -161 -105 -50 -49 -111 -150
-114 -190 -1 -11 -7 -48 -14 -83 -7 -35 -13 -112 -14 -172 -1 -59 -5 -106 -9
-103 -5 2 -8 11 -8 19 0 8 -8 14 -17 14 -15 0 -16 2 -3 10 12 8 12 10 -5 11
-13 0 -15 3 -6 6 10 4 11 7 1 13 -16 10 -21 143 -9 225 13 82 47 178 89 250
19 33 36 73 37 88 3 25 1 26 -17 17 -11 -6 -20 -7 -20 -2 0 21 234 96 280 89
14 -2 19 -2 12 0 -7 3 -10 9 -7 14 8 12 2 12 -69 -5 -34 -8 -85 -19 -114 -25
-29 -6 -62 -20 -74 -31 -11 -10 -25 -17 -30 -14 -4 3 -8 0 -8 -5 0 -19 -28
-12 -33 9 -3 12 -1 17 5 14 5 -3 23 9 40 27 17 19 27 28 23 20 -5 -9 -4 -12 3
-7 7 4 12 14 12 22 0 9 5 12 12 8 6 -4 8 -3 4 4 -3 6 7 24 23 40 17 16 27 33
23 36 -3 4 2 4 12 0 13 -5 17 -4 13 3 -4 6 0 14 8 17 8 3 14 11 13 18 -2 7 3
12 10 10 6 -1 12 1 13 5 3 31 10 46 31 64 12 11 17 18 11 14 -7 -3 -13 -2 -13
3 0 6 7 12 15 16 8 3 15 0 15 -7 0 -6 7 -1 16 11 9 13 13 30 9 40 -3 9 -3 13
1 9 4 -4 14 5 21 20 12 26 12 27 7 3 l-5 -25 14 23 c7 12 17 19 22 15 18 -15
-20 32 -44 54 -20 19 -21 23 -7 23 15 0 73 -47 181 -143 11 -10 32 -28 48 -39
l27 -19 -9 23 c-66 167 -207 384 -326 502 l-60 60 49 -35 c27 -19 72 -61 100
-94z m-181 -65 c84 -88 152 -184 142 -199 -4 -7 -33 25 -68 76 -34 48 -95 121
-135 161 -48 48 -62 67 -41 55 17 -10 63 -52 102 -93z m-205 -39 c80 -67 227
-266 220 -299 -3 -12 -16 2 -42 43 -67 104 -151 208 -217 270 -65 60 -40 51
39 -14z m-144 -100 c37 -36 87 -91 110 -121 43 -56 136 -203 136 -214 0 -22
-25 6 -81 91 -85 130 -164 227 -230 287 -30 27 -43 43 -29 36 14 -7 56 -43 94
-79z m-437 -213 c44 -32 106 -81 121 -95 19 -18 35 -16 76 8 31 18 34 23 25
41 -23 42 13 5 72 -74 32 -43 80 -123 107 -176 38 -75 53 -96 66 -94 32 7 12
-22 -22 -32 -38 -11 -40 -19 -8 -39 25 -17 40 -53 22 -55 -6 0 -30 -8 -54 -16
-24 -9 -48 -13 -54 -10 -7 4 -8 2 -4 -4 7 -12 5 -13 -54 -18 -80 -6 -84 -8
-105 -49 -11 -22 -24 -43 -28 -46 -4 -3 -10 -18 -13 -34 -3 -16 -8 -33 -12
-39 -4 -6 -7 -14 -8 -18 -1 -5 -2 -9 -3 -10 -3 -4 -11 -68 -14 -108 -2 -39
-22 -80 -38 -80 -6 0 -7 5 -4 10 3 6 1 10 -5 10 -6 0 -8 5 -5 10 3 6 1 10 -4
10 -6 0 -10 3 -9 8 2 12 -15 66 -28 87 -7 11 -15 32 -18 46 -2 15 -11 40 -20
57 -8 16 -12 32 -9 36 4 3 1 6 -6 6 -7 0 -10 4 -6 9 3 5 -2 16 -10 24 -18 19
-23 70 -8 89 8 10 9 18 1 28 -8 12 -9 12 -4 -2 3 -10 1 -18 -4 -18 -14 0 -12
34 3 49 6 8 7 11 1 8 -6 -3 -11 1 -11 9 0 9 6 13 14 10 8 -3 11 -1 8 4 -3 6
-14 10 -23 10 -15 0 -15 2 -2 10 13 9 13 10 0 10 -13 0 -13 2 0 9 8 6 19 7 25
3 5 -3 4 2 -4 11 -7 9 -11 17 -8 17 3 0 -2 19 -13 42 -13 29 -16 47 -9 59 6
12 5 20 -1 24 -6 4 -7 11 -4 17 4 6 3 8 -2 5 -6 -3 -16 -2 -24 3 -25 15 60 42
159 48 l94 7 -47 58 c-55 67 -52 75 6 15 l41 -43 -31 40 c-36 48 -64 74 -116
109 -21 14 -35 26 -30 26 5 0 24 -10 41 -22z m-756 -35 c12 -27 22 -57 23 -68
2 -11 22 -57 44 -102 52 -103 70 -114 183 -110 57 1 84 -2 86 -10 2 -7 11 -9
20 -6 10 4 14 2 10 -4 -4 -6 3 -8 18 -5 15 2 25 0 25 -7 0 -6 9 -11 21 -11 11
0 18 3 16 8 -3 4 8 8 24 9 17 1 27 -2 24 -7 -4 -6 -2 -10 4 -10 5 0 11 24 13
52 2 44 6 53 23 56 16 2 17 1 5 -7 -12 -8 -14 -30 -10 -136 3 -69 4 -169 2
-222 -3 -88 -4 -94 -18 -77 -9 10 -13 13 -9 7 3 -7 1 -13 -4 -13 -6 0 -11 -5
-11 -11 0 -5 4 -8 9 -5 5 4 7 -3 4 -14 -4 -13 0 -20 9 -20 8 0 14 -10 14 -24
0 -14 -4 -22 -10 -19 -5 4 -7 -1 -3 -11 5 -12 3 -16 -5 -13 -7 2 -12 10 -10
16 2 9 -3 9 -17 1 -14 -7 -22 -7 -27 1 -4 8 -9 8 -17 0 -15 -15 -30 -14 -20 2
4 6 -4 5 -19 -5 -15 -10 -29 -13 -34 -8 -18 18 -85 -15 -107 -54 -12 -20 -27
-36 -34 -36 -7 0 -13 -6 -13 -12 0 -9 -4 -8 -10 2 -8 12 -10 10 -10 -8 0 -13
-4 -20 -10 -17 -5 3 -10 -3 -10 -13 0 -11 -7 -25 -16 -33 -9 -7 -23 -30 -31
-51 -8 -21 -19 -38 -25 -38 -5 0 -7 -4 -3 -9 3 -5 1 -12 -5 -16 -6 -4 -8 -11
-5 -16 4 -5 0 -9 -7 -10 -79 -7 -81 -7 -65 3 10 5 22 6 27 3 6 -3 10 -1 10 5
0 6 -11 15 -24 20 -29 11 -40 26 -26 35 5 3 10 12 10 18 -1 7 -10 1 -22 -13
-14 -16 -19 -19 -15 -7 4 9 3 17 -1 17 -4 0 -18 3 -32 6 -24 5 -25 5 -5 -11
19 -15 19 -16 -12 -10 -20 3 -33 1 -33 -5 0 -5 8 -10 18 -11 11 0 12 -2 4 -6
-7 -3 -19 1 -27 7 -11 9 -15 10 -15 1 0 -7 -5 -9 -12 -5 -7 5 -8 3 -3 -6 6
-10 3 -12 -14 -7 -18 4 -20 3 -11 -8 8 -9 8 -20 2 -31 -6 -11 -11 -13 -16 -5
-4 6 -2 11 3 11 6 0 11 5 11 10 0 6 -7 10 -16 10 -9 0 -12 5 -8 12 4 6 3 8 -3
5 -11 -7 -11 -46 -1 -62 4 -6 -16 -10 -53 -10 -52 0 -59 -2 -59 -20 0 -12 3
-16 8 -9 10 16 79 27 87 14 4 -6 -5 -10 -22 -10 -15 0 -68 -23 -117 -50 -49
-28 -91 -50 -93 -50 -2 0 -40 -21 -83 -46 -45 -25 -85 -42 -91 -38 -7 4 -9 3
-6 -2 9 -16 -93 -67 -129 -66 -18 1 -36 -3 -39 -8 -3 -5 -13 -7 -23 -4 -16 5
-16 5 0 -6 13 -8 23 -8 38 0 11 6 20 7 20 2 0 -5 -11 -14 -24 -20 -19 -8 -26
-8 -29 1 -3 9 -8 9 -20 -1 -9 -8 -26 -11 -39 -7 -20 5 -21 4 -5 -5 9 -6 27 -8
40 -5 21 7 21 7 3 -8 -13 -10 -33 -13 -59 -9 -27 3 -38 2 -34 -5 8 -13 -20
-26 -35 -16 -7 3 -8 1 -4 -5 7 -12 -1 -15 -44 -13 l-25 0 27 -10 c23 -9 34 -6
73 17 25 14 48 24 50 22 3 -2 -55 -37 -128 -78 -72 -40 -133 -74 -135 -75 -2
-2 7 -19 19 -39 28 -47 18 -47 -12 2 l-25 37 23 21 c12 12 24 19 27 16 3 -3 6
-3 6 0 0 3 -10 13 -22 24 -13 10 -17 12 -11 4 19 -26 -29 -71 -70 -65 -10 2
-14 -1 -10 -8 4 -6 0 -8 -10 -4 -10 4 -16 2 -14 -6 1 -7 -8 -11 -23 -9 -19 2
-22 0 -10 -8 12 -8 11 -10 -6 -10 -12 0 -27 -7 -34 -15 -7 -8 -16 -13 -19 -10
-4 2 -8 -2 -8 -9 0 -9 6 -10 23 -2 12 6 20 15 17 20 -3 5 0 6 8 4 8 -3 38 8
67 25 29 16 55 27 58 24 3 -2 -30 -24 -73 -47 -43 -24 -96 -53 -118 -65 -42
-24 -229 -125 -355 -193 -41 -22 -79 -49 -85 -61 -10 -22 -39 -28 -50 -11 -3
6 0 10 8 10 8 0 20 6 26 14 7 8 36 26 66 40 55 26 69 48 39 60 -14 5 -15 4 -5
-8 9 -11 9 -16 0 -22 -8 -4 -9 -3 -5 4 4 7 2 12 -3 12 -6 0 -11 -4 -11 -9 0
-5 -10 -7 -22 -3 -19 5 -21 3 -11 -9 10 -13 8 -15 -15 -14 -15 1 -34 -4 -42
-9 -13 -10 -13 -9 -1 7 8 9 11 20 7 24 -3 3 -6 1 -6 -6 0 -7 -4 -10 -9 -7 -5
4 -8 -5 -6 -19 2 -19 -1 -23 -10 -15 -10 8 -13 6 -11 -6 0 -9 -6 -19 -14 -21
-13 -4 -13 -3 0 6 8 6 11 11 5 12 -5 0 -18 2 -27 4 -10 2 -18 -1 -18 -6 0 -5
-5 -9 -11 -9 -5 0 -7 5 -3 11 4 8 0 7 -15 -1 -30 -15 -17 -32 15 -20 32 13 31
13 37 -4 4 -11 -1 -15 -16 -14 -46 2 -63 -2 -49 -11 17 -10 -39 -35 -91 -40
-5 -1 -6 -5 -3 -10 7 -10 -13 -9 -30 1 -6 4 -10 -1 -10 -14 1 -22 -29 -34 -41
-16 -3 6 -2 8 3 5 6 -3 16 -1 24 4 11 7 8 8 -11 5 -30 -5 -69 -27 -69 -39 0
-4 -4 -6 -9 -2 -5 3 -13 0 -17 -6 -4 -8 -3 -9 4 -5 7 4 12 3 12 -3 0 -6 8 -8
18 -5 9 3 -2 -5 -26 -18 -24 -13 -39 -28 -35 -33 4 -4 0 -5 -9 -2 -10 4 -18 2
-18 -4 0 -6 -6 -9 -13 -6 -8 3 -14 -1 -14 -9 0 -17 9 -18 25 -2 7 7 12 9 12 4
0 -7 72 28 100 50 8 6 28 14 43 18 18 4 25 11 20 19 -4 8 -1 7 10 -2 11 -8 17
-9 17 -3 0 7 7 9 17 5 11 -4 14 -3 9 5 -5 8 -1 10 11 5 16 -6 17 -5 3 13 -14
17 -14 18 2 6 13 -10 22 -11 37 -2 27 14 26 18 -3 13 -13 -3 -26 -1 -29 4 -3
5 11 8 31 7 20 -1 49 5 65 13 28 14 38 26 13 17 -8 -3 -17 0 -22 7 -4 8 -3 10
4 5 7 -4 12 -2 12 4 0 7 6 8 19 0 11 -5 28 -7 38 -3 11 4 8 -2 -9 -15 -14 -12
-31 -22 -36 -22 -6 0 -17 -6 -24 -13 -7 -7 -29 -21 -48 -30 -19 -10 -42 -21
-50 -26 -39 -22 -69 -33 -86 -30 -10 2 -54 -16 -97 -40 -58 -32 -77 -47 -73
-59 3 -10 10 -35 15 -57 5 -22 18 -75 29 -118 11 -43 18 -76 16 -74 -2 2 -26
49 -54 105 -30 63 -55 102 -65 102 -8 0 -15 5 -15 11 0 5 5 7 11 4 6 -4 5 2
-3 14 -7 12 -19 21 -27 21 -11 0 -11 -3 0 -17 8 -10 9 -14 2 -10 -6 4 -14 3
-18 -3 -3 -5 -17 -7 -31 -4 -17 4 -24 2 -24 -8 0 -25 -56 -10 -69 18 -6 14
-28 48 -48 77 -21 29 -43 61 -49 72 -35 61 -141 223 -156 240 -10 10 -17 24
-15 29 2 6 32 27 67 47 l63 37 -39 21 c-21 11 -34 20 -29 20 6 1 30 -10 53
-24 30 -17 52 -23 70 -19 21 4 24 3 12 -5 -12 -9 -13 -11 -1 -11 8 0 23 8 33
17 10 9 34 17 52 17 21 1 32 5 29 13 -3 7 6 10 26 9 22 -2 28 1 21 9 -12 15
-1 28 14 16 16 -13 56 5 57 26 0 16 1 16 9 -2 7 -17 9 -17 9 -3 1 11 15 21 41
29 24 7 36 15 29 19 -7 5 -8 10 -1 14 6 3 14 1 18 -5 4 -8 9 -7 15 2 8 11 13
10 26 -6 13 -16 15 -17 10 -2 -7 20 2 49 13 42 4 -3 11 2 14 11 4 9 13 14 22
10 9 -3 12 -2 9 5 -4 6 3 7 22 3 25 -6 26 -5 15 8 -9 11 -10 18 -2 23 5 3 13
-1 16 -10 6 -14 10 -12 26 12 18 25 19 26 13 5 -7 -23 -7 -24 12 -5 11 10 18
21 16 25 -2 4 2 10 8 14 7 4 9 3 5 -4 -4 -6 1 -10 13 -9 11 0 24 11 30 24 6
13 19 23 31 23 14 0 19 4 14 13 -5 8 -2 7 9 -2 10 -8 20 -11 24 -7 3 3 1 6 -6
6 -7 0 -9 5 -6 10 3 6 21 10 39 10 19 0 39 6 45 14 6 8 25 19 42 26 16 7 28
15 26 17 -3 2 -28 -5 -56 -17 -29 -11 -50 -16 -47 -11 3 5 -1 12 -10 15 -8 3
-12 10 -9 16 4 6 10 8 15 5 4 -3 10 1 13 7 2 7 8 10 12 6 4 -4 2 -14 -5 -23
-7 -8 -9 -15 -6 -15 11 0 130 60 146 74 56 48 53 17 -4 -38 -25 -23 -38 -43
-31 -43 8 0 12 4 9 9 -3 4 0 8 5 8 6 0 11 -5 11 -11 0 -5 5 -7 11 -3 8 4 7 9
-2 16 -10 6 -4 8 19 5 27 -3 32 -1 27 12 -4 12 -2 11 9 -2 9 -12 16 -14 21 -7
3 5 11 8 16 5 5 -4 9 -2 9 4 0 6 7 7 17 4 12 -5 14 -3 8 7 -5 9 -4 11 3 6 15
-9 54 12 46 25 -4 8 -1 8 13 1 15 -9 22 -7 33 8 7 10 20 16 28 12 9 -3 13 -1
9 5 -5 7 1 9 15 5 21 -5 22 -4 8 13 -9 11 -10 16 -3 11 15 -9 56 17 45 29 -4
5 -1 5 6 1 8 -5 19 -1 27 10 13 17 14 17 15 2 0 -9 4 -19 9 -22 4 -3 8 4 7 17
-1 14 4 22 15 21 9 -1 16 5 16 12 0 9 -5 10 -18 3 -10 -5 -21 -9 -26 -9 -4 1
3 7 16 14 14 8 30 12 36 10 6 -3 22 -1 36 4 13 5 28 10 33 10 5 0 13 7 18 16
5 9 16 16 24 16 9 0 12 -5 8 -12 -4 -7 -3 -8 5 -4 6 4 9 11 6 16 -3 4 8 14 25
22 16 7 30 19 30 27 0 10 3 11 14 2 11 -9 16 -9 22 0 5 8 3 9 -6 4 -9 -5 -11
-4 -6 4 6 9 11 9 22 0 11 -9 14 -9 14 0 0 7 5 9 10 6 6 -3 10 4 11 17 0 13 3
18 5 11 7 -15 34 -5 34 12 0 14 21 25 48 25 8 0 24 8 35 18 12 10 17 11 12 3
-5 -10 -4 -12 3 -7 7 4 12 14 12 22 0 8 7 14 16 14 9 0 13 -5 9 -12 -4 -7 1
-4 10 7 9 11 23 19 31 17 8 -2 14 2 14 9 0 6 8 9 19 6 15 -3 19 0 16 13 -3 14
2 17 20 15 14 -1 22 1 20 5 -3 4 8 16 23 26 15 9 33 26 40 36 10 14 17 16 33
8 15 -9 19 -7 20 7 1 10 1 21 0 25 0 5 2 7 7 7 20 -3 33 2 27 11 -4 6 -9 9
-13 6 -4 -2 -15 -1 -24 3 -15 5 -15 8 3 31 12 14 17 19 13 11 -4 -9 -2 -12 7
-9 8 3 13 12 11 22 -2 9 3 16 10 17 7 0 28 2 47 4 19 2 48 -3 64 -11 16 -9 35
-13 42 -10 7 2 16 2 19 -2 4 -3 12 -7 19 -8 32 -6 53 -12 67 -17 26 -11 133
-37 153 -37 12 0 16 -4 11 -12 -5 -8 0 -7 11 2 10 8 16 10 12 4 -4 -7 8 -10
35 -9 23 1 44 7 46 13 2 7 8 10 13 6 5 -3 9 2 9 11 0 10 5 13 12 9 7 -5 8 -3
2 7 -9 14 -10 19 -13 39 0 6 -11 10 -23 11 -22 1 -22 1 2 9 24 8 24 8 3 9 -13
1 -23 6 -23 12 0 5 -4 8 -8 5 -5 -3 -9 1 -9 9 0 8 5 11 11 8 6 -3 0 6 -13 20
-15 17 -25 40 -25 62 -1 22 -5 34 -13 31 -13 -5 -43 25 -43 43 0 7 5 9 13 5 6
-4 -1 7 -17 24 -18 20 -26 37 -22 47 4 12 0 18 -13 22 -11 3 -22 12 -26 20 -4
13 -3 14 10 3 33 -27 24 -1 -12 34 -21 20 -32 36 -25 36 7 0 10 5 7 10 -8 14
8 13 22 -1 9 -9 10 -7 6 9 -5 20 -7 21 -32 8 -14 -8 -42 -21 -61 -29 -111 -49
-133 -57 -137 -53 -3 2 5 7 16 11 12 3 18 11 15 17 -4 7 -2 8 4 4 6 -4 52 14
102 39 50 25 104 47 120 48 15 1 26 5 23 10 -2 4 2 7 9 7 9 0 10 3 2 8 -6 4
-21 27 -34 52 -12 25 -24 46 -25 48 -2 2 -82 -35 -178 -82 -176 -86 -228 -108
-150 -60 23 13 44 24 45 22 2 -1 17 6 35 17 27 16 29 20 17 33 -8 8 -13 22
-11 31 1 9 -9 28 -25 43 l-27 27 55 33 c31 18 68 43 84 56 32 26 42 28 34 8
-3 -8 0 -23 6 -33 10 -16 11 -15 6 6 -5 22 -4 23 13 5 12 -13 17 -30 15 -51
-4 -28 -1 -33 17 -33 26 0 112 67 104 81 -4 5 -1 9 4 9 25 0 8 -41 -26 -66
-52 -38 -62 -49 -33 -34 47 24 100 72 93 83 -3 7 -2 9 2 4 11 -10 56 33 48 46
-3 6 -1 7 5 3 6 -3 13 -2 17 4 12 20 26 9 46 -37z m-451 -33 c0 -5 -5 -10 -11
-10 -5 0 -7 5 -4 10 3 6 8 10 11 10 2 0 4 -4 4 -10z m-35 -20 c-3 -5 -11 -10
-16 -10 -6 0 -7 5 -4 10 3 6 11 10 16 10 6 0 7 -4 4 -10z m-5 -60 c8 -16 8
-20 -4 -20 -8 0 -18 -4 -21 -10 -3 -6 2 -8 12 -5 10 3 0 -3 -22 -14 -21 -11
-42 -18 -45 -16 -4 2 -34 -18 -68 -45 -60 -50 -102 -68 -69 -32 10 10 14 22
10 26 -5 4 -3 6 2 5 6 -2 29 9 52 24 24 15 48 27 54 27 7 0 9 9 5 23 -5 23 7
35 54 50 25 9 29 8 40 -13z m1686 -73 c-2 -7 -5 -3 -5 8 -1 17 -3 17 -11 5 -8
-13 -10 -13 -10 1 0 9 3 19 7 23 9 9 26 -22 19 -37z m69 -36 c-3 -6 -11 -11
-17 -11 -6 0 -6 6 2 15 14 17 26 13 15 -4z m845 -129 c0 -3 -11 5 -25 18 -19
18 -22 26 -13 37 9 12 14 8 25 -18 7 -17 13 -34 13 -37z m-3340 47 c82 -13
168 -59 222 -118 49 -53 256 -323 263 -343 3 -8 -14 -23 -42 -38 -27 -14 -184
-98 -350 -187 -166 -90 -304 -163 -306 -163 -3 0 -8 12 -12 27 -3 14 -49 112
-101 218 -90 181 -95 195 -96 257 -1 85 25 158 78 217 40 44 134 119 134 106
0 -3 10 -1 21 6 12 6 42 15 68 19 25 4 48 8 51 9 3 0 34 -4 70 -10z m2660 -29
c0 -5 -5 -10 -11 -10 -5 0 -7 5 -4 10 3 6 8 10 11 10 2 0 4 -4 4 -10z m-745
-10 c3 -6 -1 -7 -9 -4 -18 7 -21 14 -7 14 6 0 13 -4 16 -10z m1369 -39 c21
-17 47 -31 58 -31 14 0 28 -20 54 -76 40 -88 40 -108 0 -34 -30 55 -89 117
-148 157 -21 14 -38 27 -38 30 0 7 34 -14 74 -46z m-1369 11 c-3 -3 -11 0 -18
7 -9 10 -8 11 6 5 10 -3 15 -9 12 -12z m2708 -6 c40 -17 67 -42 90 -83 21 -38
22 -48 3 -31 -8 7 -12 16 -10 19 2 4 -6 15 -18 25 -19 17 -21 17 -15 2 4 -10
2 -18 -2 -18 -13 0 -21 28 -9 32 6 2 3 9 -6 17 -14 11 -16 11 -16 -3 0 -9 -5
-16 -11 -16 -5 0 -7 5 -4 10 3 6 1 10 -4 10 -6 0 -11 -6 -11 -12 0 -9 -3 -9
-8 -2 -11 17 -64 9 -79 -12 -8 -11 -11 -30 -8 -44 4 -16 3 -20 -3 -12 -11 16
-22 -15 -22 -61 0 -19 -4 -26 -12 -22 -7 4 -6 1 3 -7 9 -7 18 -26 22 -43 l6
-30 -12 28 c-15 36 -28 35 -17 -3 8 -27 7 -30 -16 -30 -28 0 -32 15 -6 29 15
9 15 10 -5 11 -27 0 -30 15 -5 29 15 9 15 10 0 11 -9 0 -24 -7 -32 -16 -9 -8
-16 -10 -16 -4 0 7 -7 7 -22 -2 -13 -7 -36 -13 -53 -14 -17 -1 -29 -6 -27 -13
1 -6 -3 -11 -9 -11 -8 0 -7 -5 1 -15 7 -9 10 -18 6 -22 -3 -3 2 -15 11 -25 22
-24 9 -33 -60 -42 -72 -10 -83 9 -13 24 31 6 56 13 56 14 0 2 -37 2 -82 1 -83
-3 -163 -14 -293 -40 -38 -8 -81 -16 -95 -19 -14 -2 -36 -7 -50 -10 -14 -3
-38 -7 -55 -10 -16 -2 -64 -11 -105 -20 -151 -32 -233 -46 -238 -42 -2 3 6 8
19 11 31 7 265 54 304 61 17 3 118 23 227 45 108 21 216 39 240 40 23 0 52 4
63 9 15 7 10 9 -22 8 -52 -2 -65 8 -29 21 14 6 26 12 26 14 0 10 -187 -8 -220
-20 -8 -4 -26 -7 -40 -8 -21 -1 -154 -23 -239 -40 -12 -2 -30 -10 -38 -17 -9
-7 -28 -11 -44 -10 -31 4 -213 -33 -242 -49 -17 -9 -19 -8 -33 39 -8 27 -64 6
-64 -25 0 -19 34 -50 50 -45 7 3 10 0 6 -7 -10 -16 -44 -14 -77 6 -24 14 -33
15 -49 5 -13 -8 -21 -8 -25 -1 -4 6 -11 7 -18 1 -10 -8 -32 -9 -70 -3 -5 0 -7
13 -5 28 3 30 48 61 88 62 15 1 30 5 35 10 6 6 33 13 60 16 28 4 55 11 62 16
7 7 13 5 15 -3 4 -10 8 -11 20 0 8 7 35 15 59 18 56 7 137 21 169 30 14 4 48
9 75 10 46 3 93 9 105 14 3 1 8 2 11 2 4 -1 22 3 40 9 19 6 46 12 61 14 38 5
109 24 133 35 11 5 45 11 75 15 52 5 58 9 80 45 14 22 38 46 55 54 63 30 215
42 215 17 0 -8 -67 -39 -103 -47 -20 -5 -25 -9 -16 -15 7 -4 19 -3 25 2 8 7
14 6 19 -1 3 -5 14 -10 23 -9 11 0 12 2 4 6 -6 2 -9 9 -6 15 4 6 12 1 19 -12
12 -23 13 -23 24 12 14 44 39 73 77 93 36 19 65 19 107 1z m-2088 -97 c-9 -17
-19 -28 -22 -25 -6 6 23 56 32 56 3 0 -2 -14 -10 -31z m2120 5 c17 -15 25 -24
19 -20 -7 3 -11 -6 -12 -24 -1 -25 3 -30 24 -30 13 0 24 -4 24 -10 0 -5 5 -10
11 -10 7 0 9 10 7 25 -3 14 -2 25 3 25 4 0 11 -19 15 -42 25 -144 -36 -248
-131 -224 -21 5 -23 9 -13 20 8 9 19 11 29 6 10 -6 19 -2 29 13 12 20 12 21
-3 8 -11 -8 -17 -9 -17 -3 0 6 -7 9 -15 6 -8 -4 -15 -1 -15 5 0 6 -8 11 -17
11 -10 0 -14 4 -8 8 14 10 12 44 -2 60 -7 7 -13 21 -13 30 0 13 2 13 15 -4 14
-19 15 -19 21 4 9 31 67 35 88 6 10 -13 12 -11 14 9 1 20 -2 24 -18 20 -16 -4
-23 2 -31 25 -17 50 -71 55 -83 7 -9 -36 -29 -31 -24 5 3 17 0 30 -6 30 -6 0
-3 5 7 11 14 8 15 14 7 24 -8 9 -6 14 6 19 10 4 21 1 26 -6 6 -10 8 -8 8 5 0
24 20 21 55 -9z m-725 -38 c0 -2 -21 -9 -48 -15 -26 -5 -56 -13 -67 -17 -14
-5 -17 -4 -10 4 13 14 125 39 125 28z m-190 -26 c0 -5 -10 -10 -22 -10 -19 0
-20 2 -8 10 19 13 30 13 30 0z m40 0 c0 -5 -7 -10 -15 -10 -8 0 -15 5 -15 10
0 6 7 10 15 10 8 0 15 -4 15 -10z m-578 -28 l57 -27 -57 -1 c-31 -1 -51 1 -44
3 6 3 12 8 12 12 0 14 -95 -5 -135 -27 -43 -24 -59 -14 -30 18 24 26 75 50
110 50 17 0 56 -13 87 -28z m171 0 c-10 -10 -20 -17 -22 -16 -6 5 20 34 30 34
5 0 1 -8 -8 -18z m1247 -12 c0 -5 -4 -10 -10 -10 -5 0 -10 5 -10 10 0 6 5 10
10 10 6 0 10 -4 10 -10z m-1165 -20 c-19 -8 -19 -8 4 -17 20 -8 10 -12 -60
-26 -76 -15 -138 -23 -224 -30 -17 -2 -37 -7 -45 -12 -13 -8 -13 -7 -1 9 21
25 47 37 94 42 53 5 201 34 206 40 2 2 14 4 25 3 21 0 21 -1 1 -9z m915 -66
c-18 -8 -39 -14 -47 -14 -26 0 5 28 35 32 42 6 48 -3 12 -18z m123 -27 c4 -10
-2 -13 -19 -9 -13 2 -24 8 -24 13 0 14 37 10 43 -4z m-3268 -36 c3 -5 2 -12
-3 -15 -5 -3 -9 1 -9 9 0 17 3 19 12 6z m3288 2 c3 -5 -6 -9 -19 -9 -13 -1
-24 2 -24 7 0 11 37 12 43 2z m-190 -43 c-4 -5 -34 -11 -65 -15 -74 -9 -78 9
-5 22 54 9 84 6 70 -7z m7 -30 c-8 -5 -24 -9 -35 -9 l-20 0 20 9 c11 5 27 9
35 9 13 1 13 0 0 -9z m-970 -54 c0 -3 -4 -8 -10 -11 -5 -3 -10 -1 -10 4 0 6 5
11 10 11 6 0 10 -2 10 -4z m-30 -10 c0 -2 -9 -6 -20 -9 -11 -3 -18 -1 -14 4 5
9 34 13 34 5z m-65 -16 c-11 -5 -31 -8 -45 -8 l-25 0 25 8 c14 4 34 8 45 8
l20 1 -20 -9z m-2150 -190 c-27 -12 -43 -12 -25 0 8 5 22 9 30 9 10 0 8 -3 -5
-9z m-40 -49 c-3 -6 -11 -11 -16 -11 -5 0 -4 6 3 14 14 16 24 13 13 -3z m2410
-87 c-32 -98 -81 -181 -117 -200 -42 -22 -43 -17 -3 27 54 60 92 124 116 196
11 35 23 62 26 60 2 -3 -8 -40 -22 -83z m-2411 50 c3 -8 2 -12 -4 -9 -6 3 -10
10 -10 16 0 14 7 11 14 -7z m-1544 -164 c0 -5 -8 -10 -17 -10 -15 0 -16 2 -3
10 19 12 20 12 20 0z m-70 -40 c0 -5 -4 -10 -10 -10 -5 0 -10 5 -10 10 0 6 5
10 10 10 6 0 10 -4 10 -10z m3448 -196 c29 -8 52 -62 52 -123 0 -59 -8 -88
-27 -95 -8 -3 -11 -1 -8 4 3 6 1 10 -4 10 -6 0 -10 5 -8 12 1 6 -9 17 -22 24
-13 7 -37 32 -53 57 l-29 45 22 36 c21 36 34 41 77 30z m-1818 -77 c0 -12 10
-40 22 -62 191 -353 191 -353 191 -450 1 -65 -4 -90 -25 -137 -63 -138 -192
-219 -348 -219 -169 0 -221 42 -464 374 -38 52 -83 102 -98 112 l-29 17 178
97 c98 54 250 137 338 186 202 111 235 123 235 82z m-2230 -61 c0 -2 -8 -10
-17 -17 -16 -13 -17 -12 -4 4 13 16 21 21 21 13z m-281 -431 c11 -19 16 -35
11 -35 -9 0 -40 51 -40 65 0 12 9 3 29 -30z m512 -2 c13 -16 12 -17 -3 -4 -10
7 -18 15 -18 17 0 8 8 3 21 -13z m-491 -63 c6 -11 8 -20 6 -20 -3 0 -10 9 -16
20 -6 11 -8 20 -6 20 3 0 10 -9 16 -20z m-1360 -70 c0 -6 -13 -13 -30 -16 -16
-4 -27 -10 -25 -15 3 -4 -8 -18 -26 -31 -27 -20 -30 -28 -25 -57 5 -34 31 -71
49 -71 5 0 -1 9 -14 21 -22 18 -22 20 -4 15 11 -2 35 -7 53 -11 32 -7 45 -25
17 -25 -8 0 -23 -4 -33 -9 -9 -6 -29 -12 -44 -15 -14 -3 -40 -18 -58 -32 -45
-38 -45 -25 -1 23 35 38 37 43 23 57 -9 9 -11 16 -5 16 7 0 9 14 6 38 -4 33 0
41 38 80 39 39 79 55 79 32z m168 3 c-21 -2 -55 -2 -75 0 -21 2 -4 4 37 4 41
0 58 -2 38 -4z m1407 -97 c-11 -7 -31 -16 -45 -20 -19 -5 -16 -2 10 13 40 23
65 28 35 7z m-3668 -700 c61 -31 104 -76 138 -146 15 -30 31 -62 36 -70 5 -8
14 -26 20 -40 12 -29 48 -70 62 -70 16 0 36 33 37 60 l1 25 10 -23 c7 -18 4
-30 -13 -53 -12 -16 -27 -29 -33 -29 -7 0 -23 -9 -36 -20 -13 -11 -28 -23 -34
-27 -22 -17 -91 -60 -115 -72 l-25 -12 25 21 c14 12 -21 -2 -77 -31 -56 -29
-101 -55 -99 -57 2 -2 31 11 65 27 34 17 61 29 61 26 0 -8 -255 -133 -293
-144 -18 -5 -40 -12 -49 -16 -16 -6 -18 -1 -18 43 0 54 -27 152 -42 152 -5 0
-23 30 -40 68 -44 94 -45 175 -3 251 45 82 126 143 215 162 60 13 155 2 207
-25z m497 -522 c3 -8 2 -12 -4 -9 -6 3 -10 10 -10 16 0 14 7 11 14 -7z m30
-60 c3 -8 2 -12 -4 -9 -6 3 -10 10 -10 16 0 14 7 11 14 -7z m-930 -69 c17 -13
18 -15 3 -15 -9 0 -17 -6 -17 -12 0 -17 -20 12 -20 30 0 16 10 15 34 -3z m995
-54 c18 -29 30 -55 28 -57 -2 -2 -17 20 -33 48 -50 91 -47 98 5 9z m-255 -23
c9 -17 15 -33 13 -34 -2 -2 -75 -42 -162 -89 -88 -48 -163 -92 -167 -98 -4 -7
-8 -8 -8 -4 0 4 -9 3 -20 -3 -16 -9 -22 -6 -36 22 -15 30 -15 32 1 44 21 15
141 54 167 54 11 0 16 4 13 10 -3 5 0 7 8 4 18 -6 55 31 64 64 3 13 11 21 17
19 7 -3 20 1 31 9 10 8 27 14 38 14 10 0 15 5 12 10 -3 6 -2 10 4 10 5 0 17
-14 25 -32z m304 -73 c-3 -3 -9 2 -12 12 -6 14 -5 15 5 6 7 -7 10 -15 7 -18z
m-931 -134 c-3 -14 -1 -18 9 -14 8 3 14 0 14 -7 0 -6 4 -9 9 -5 5 3 15 -11 22
-30 7 -19 17 -35 21 -35 20 0 5 -29 -18 -34 -31 -8 -25 -13 -58 52 -20 39 -24
57 -17 66 6 7 8 16 4 19 -3 4 -1 7 6 7 8 0 11 -8 8 -19z m98 -137 c16 -6 40
-50 37 -66 -1 -5 3 -8 10 -8 6 0 8 -3 5 -6 -3 -4 0 -16 8 -26 7 -11 11 -27 8
-34 -3 -8 1 -14 8 -14 7 0 9 -3 6 -7 -4 -3 0 -17 8 -30 12 -17 12 -23 3 -24
-10 0 -10 -2 0 -6 13 -5 17 -23 5 -23 -13 1 -52 37 -55 51 -2 8 -8 18 -14 24
-6 5 -30 44 -53 87 -29 54 -38 78 -29 81 19 8 34 8 53 1z m1176 -411 c47 -59
50 -97 10 -118 -35 -17 -71 -61 -71 -84 0 -9 18 -57 40 -106 32 -74 40 -101
40 -153 0 -64 -22 -138 -39 -128 -5 3 -11 -4 -15 -17 -5 -20 -34 -55 -68 -82
-51 -41 -190 -76 -223 -56 -15 8 -37 13 -62 13 -13 0 -23 6 -23 15 0 8 -4 11
-10 8 -5 -3 -10 -1 -10 5 0 7 -7 10 -14 7 -11 -4 -13 -1 -9 10 4 9 2 14 -3 10
-12 -7 -69 28 -69 42 0 5 -13 20 -30 32 -16 13 -36 29 -43 36 -7 7 -20 13 -28
13 -8 0 -14 3 -15 8 -4 45 -28 102 -42 102 -6 0 -8 3 -4 6 3 3 -3 23 -14 42
-10 20 -19 44 -19 52 0 16 191 120 218 120 7 0 12 5 12 10 0 6 6 10 13 10 14
0 204 93 224 110 7 5 18 10 25 11 7 0 56 22 108 48 115 58 104 55 121 34z
m-2779 -402 c55 -117 70 -155 48 -121 -8 12 -10 9 -10 -12 0 -21 -6 -28 -29
-33 -41 -9 -75 -48 -69 -79 3 -15 4 -26 2 -26 -7 0 -117 226 -140 288 -27 70
-28 76 -15 68 22 -14 130 48 132 74 0 8 5 4 12 -10 6 -14 37 -81 69 -149z
m122 -76 c43 -82 92 -169 107 -192 32 -46 40 -70 11 -32 -50 66 -232 400 -232
426 0 13 31 -42 114 -202z m-564 -51 c-8 -8 -9 -14 -3 -12 15 5 107 -100 136
-156 15 -27 32 -74 39 -104 11 -50 10 -56 -7 -68 -10 -8 -22 -11 -26 -7 -17
18 -96 174 -131 258 -33 80 -35 91 -20 97 25 10 26 9 12 -8z m-178 -200 c77
-176 98 -229 82 -209 -30 39 -135 258 -130 272 3 8 1 11 -4 8 -6 -3 -10 1 -10
10 0 37 25 4 62 -81z m-242 -35 c0 -6 27 -68 60 -138 32 -70 64 -141 70 -157
20 -58 -19 6 -80 131 -59 120 -85 195 -62 181 7 -4 12 -12 12 -17z m1159 -13
c-3 -3 -11 5 -18 17 -13 21 -12 21 5 5 10 -10 16 -20 13 -22z m2128 18 c-3 -3
-12 -4 -19 -1 -8 3 -5 6 6 6 11 1 17 -2 13 -5z m-3497 -117 c0 -5 21 -55 46
-111 116 -251 119 -269 14 -82 -26 48 -90 200 -90 217 0 8 4 8 15 -1 8 -7 15
-17 15 -23z m-140 -283 c36 -79 67 -150 68 -157 8 -26 -82 132 -113 200 -44
95 -50 114 -33 108 7 -3 42 -71 78 -151z m2525 136 c-3 -5 -11 -10 -16 -10 -6
0 -7 5 -4 10 3 6 11 10 16 10 6 0 7 -4 4 -10z m10 -20 c-3 -5 -14 -10 -23 -10
-15 0 -15 2 -2 10 20 13 33 13 25 0z m32 -26 c3 -10 13 -14 25 -11 11 3 18 1
16 -5 -2 -6 -17 -12 -32 -14 -16 -2 -46 -14 -67 -28 -25 -17 -36 -21 -33 -11
3 8 21 24 40 36 50 31 41 33 -16 4 -63 -32 -65 -24 -2 15 54 34 60 36 69 14z
m-2793 -182 c58 -128 71 -168 35 -117 -52 77 -114 219 -103 237 8 13 5 19 68
-120z m3503 -164 c-3 -8 -6 -5 -6 6 -1 11 2 17 5 13 3 -3 4 -12 1 -19z m-77
-173 c0 -11 -82 -45 -107 -44 l-28 1 30 8 c17 4 46 15 65 23 40 19 40 19 40
12z"/>
<path d="M13060 8540 c-6 -12 -16 -18 -23 -13 -7 4 -6 -1 2 -11 11 -13 16 -14
23 -4 6 10 10 10 18 -2 5 -8 10 -19 10 -25 1 -22 35 -54 49 -46 11 7 8 19 -15
62 -33 60 -48 69 -64 39z"/>
<path d="M11354 7359 c-3 -6 -15 -8 -26 -6 -16 4 -17 3 -7 -9 9 -11 9 -14 0
-14 -7 0 -9 -5 -5 -12 4 -7 3 -8 -5 -4 -6 4 -9 11 -7 15 3 4 -5 8 -17 8 -12 1
-17 -1 -12 -5 14 -10 17 -32 4 -32 -5 0 -7 -4 -4 -10 3 -5 2 -10 -4 -10 -5 0
-11 6 -14 13 -2 6 -4 -3 -5 -20 0 -25 4 -33 17 -33 9 0 21 4 27 8 5 5 28 15
52 22 23 7 42 17 42 21 0 5 -11 4 -25 -1 -33 -13 -32 3 3 30 18 14 23 23 14
26 -6 3 -10 10 -6 15 3 5 1 9 -5 9 -5 0 -13 -5 -17 -11z"/>
<path d="M11410 7309 c0 -5 5 -7 10 -4 6 3 10 8 10 11 0 2 -4 4 -10 4 -5 0
-10 -5 -10 -11z"/>
<path d="M11367 7255 c-4 -8 -3 -16 1 -19 4 -3 9 4 9 15 2 23 -3 25 -10 4z"/>
<path d="M10950 7080 c0 -5 5 -10 11 -10 5 0 7 5 4 10 -3 6 -8 10 -11 10 -2 0
-4 -4 -4 -10z"/>
<path d="M10340 7266 c0 -2 8 -10 18 -17 15 -13 16 -12 3 4 -13 16 -21 21 -21
13z"/>
<path d="M10127 7110 c3 -11 7 -20 8 -20 1 0 5 9 8 20 3 12 0 20 -8 20 -8 0
-11 -8 -8 -20z"/>
<path d="M10436 6868 c3 -5 10 -6 15 -3 13 9 11 12 -6 12 -8 0 -12 -4 -9 -9z"/>
<path d="M10163 6850 c1 -21 10 -18 13 5 1 8 -2 15 -6 15 -5 0 -8 -9 -7 -20z"/>
<path d="M10150 6816 c0 -2 7 -7 16 -10 8 -3 12 -2 9 4 -6 10 -25 14 -25 6z"/>
<path d="M9096 7359 c5 -9 2 -10 -10 -6 -19 7 -83 -20 -90 -39 -3 -7 2 -18 10
-24 11 -10 25 -7 69 14 30 14 55 29 55 33 0 5 -9 14 -21 21 -16 10 -19 10 -13
1z"/>
<path d="M9270 7140 c-9 -6 -10 -10 -3 -10 6 0 15 5 18 10 8 12 4 12 -15 0z"/>
<path d="M9230 7081 c0 -9 30 -24 36 -18 2 1 -6 8 -16 15 -11 7 -20 8 -20 3z"/>
<path d="M9320 6885 c0 -2 6 -8 13 -14 10 -8 14 -7 14 2 0 8 -6 14 -14 14 -7
0 -13 -1 -13 -2z"/>
<path d="M9401 6426 l-24 -13 32 -11 c29 -10 44 -1 21 13 -6 4 -8 11 -5 16 8
12 5 11 -24 -5z"/>
<path d="M8500 6360 c-9 -6 -10 -10 -3 -10 6 0 15 5 18 10 8 12 4 12 -15 0z"/>
<path d="M9105 6230 c-3 -6 1 -7 9 -4 18 7 21 14 7 14 -6 0 -13 -4 -16 -10z"/>
<path d="M9068 6213 c7 -3 16 -2 19 1 4 3 -2 6 -13 5 -11 0 -14 -3 -6 -6z"/>
<path d="M8950 6150 c-9 -6 -10 -10 -3 -10 6 0 15 5 18 10 8 12 4 12 -15 0z"/>
<path d="M8900 6119 c0 -5 5 -7 10 -4 6 3 10 8 10 11 0 2 -4 4 -10 4 -5 0 -10
-5 -10 -11z"/>
<path d="M8865 6100 c-4 -6 -11 -7 -17 -4 -7 4 -8 2 -4 -4 5 -9 13 -9 27 -2
10 6 19 13 19 15 0 9 -19 5 -25 -5z"/>
<path d="M8760 6066 c0 -7 40 -14 44 -7 3 4 -6 8 -20 9 -13 1 -24 0 -24 -2z"/>
<path d="M8755 6041 c-11 -5 -24 -6 -29 -3 -5 3 -6 0 -2 -6 4 -7 1 -12 -8 -12
-9 0 -16 -5 -16 -10 0 -6 18 -1 40 10 22 11 40 23 40 25 0 6 1 6 -25 -4z"/>
<path d="M7490 5895 c0 -8 2 -15 4 -15 2 0 6 7 10 15 3 8 1 15 -4 15 -6 0 -10
-7 -10 -15z"/>
<path d="M8430 5859 c0 -5 -4 -7 -10 -4 -5 3 -10 1 -10 -4 0 -16 16 -13 30 4
9 10 9 15 1 15 -6 0 -11 -5 -11 -11z"/>
<path d="M8370 5823 c0 -10 4 -14 8 -8 4 6 11 13 16 18 5 4 2 7 -7 7 -10 0
-17 -8 -17 -17z"/>
<path d="M8070 5670 c-6 -11 -15 -18 -21 -15 -5 4 -9 1 -9 -5 0 -6 -4 -8 -10
-5 -5 3 -10 1 -10 -4 0 -6 -3 -10 -7 -10 -19 3 -30 -2 -30 -15 0 -9 17 -4 52
17 28 16 52 36 52 43 0 19 -4 18 -17 -6z"/>
<path d="M7935 5608 c5 -13 2 -18 -10 -18 -9 0 -13 -5 -9 -11 4 -7 11 -6 22 5
13 13 14 18 3 28 -10 11 -11 10 -6 -4z"/>
<path d="M7878 5591 c10 -6 7 -10 -12 -15 -15 -4 -24 -11 -21 -16 3 -6 -4 -10
-17 -10 -21 -1 -21 -2 -5 -11 24 -14 48 -4 41 16 -3 8 -2 15 4 15 6 0 12 -5
14 -12 2 -6 10 -8 16 -4 15 9 -2 46 -21 46 -8 0 -8 -3 1 -9z"/>
<path d="M7783 5527 c-3 -7 -3 -9 2 -5 4 4 14 3 21 -3 7 -6 15 -6 18 -1 3 6
-3 12 -14 15 -11 3 -23 0 -27 -6z"/>
<path d="M7759 5511 c7 -5 10 -14 6 -21 -6 -9 -2 -9 16 1 23 12 23 12 4 20
-27 11 -43 11 -26 0z"/>
<path d="M7646 5475 c-3 -8 -1 -15 4 -15 6 0 10 7 10 15 0 8 -2 15 -4 15 -2 0
-6 -7 -10 -15z"/>
<path d="M7450 5380 c0 -6 -4 -8 -10 -5 -5 3 -10 1 -10 -4 0 -13 27 -14 35 -2
3 5 1 12 -5 16 -5 3 -10 1 -10 -5z"/>
<path d="M7185 5230 c-3 -6 1 -7 9 -4 18 7 21 14 7 14 -6 0 -13 -4 -16 -10z"/>
<path d="M8050 7051 c-80 -25 -159 -91 -198 -165 -22 -43 -26 -64 -26 -136 0
-103 21 -158 85 -218 94 -88 198 -118 324 -92 55 11 66 18 135 89 66 66 78 84
93 137 9 33 17 74 16 90 -1 27 -2 27 -14 -11 l-13 -40 -2 45 c-1 25 -3 53 -5
62 -2 10 1 20 6 24 5 3 9 11 9 17 0 8 -3 8 -9 -1 -6 -10 -17 1 -40 41 -17 30
-38 60 -46 67 -8 7 -12 17 -8 23 3 5 2 7 -4 4 -6 -4 -24 6 -42 22 -17 15 -48
33 -70 39 -42 13 -152 15 -191 3z m38 -56 c0 -16 -2 -15 -8 5 -11 34 -11 60 0
35 5 -11 8 -29 8 -40z m137 -74 c118 -55 142 -188 48 -272 -102 -91 -259 -47
-293 82 -15 54 -3 105 34 147 55 63 134 79 211 43z m-270 -1 c3 -5 1 -10 -4
-10 -6 0 -11 5 -11 10 0 6 2 10 4 10 3 0 8 -4 11 -10z m29 -265 l27 -40 -30
35 c-17 19 -31 39 -31 44 0 5 1 7 3 5 2 -2 15 -22 31 -44z m203 -107 c-3 -8
-6 -5 -6 6 -1 11 2 17 5 13 3 -3 4 -12 1 -19z"/>
<path d="M8079 6867 c-115 -77 -6 -258 124 -204 86 37 97 149 19 202 -47 32
-98 33 -143 2z"/>
<path d="M12658 6873 c7 -3 16 -2 19 1 4 3 -2 6 -13 5 -11 0 -14 -3 -6 -6z"/>
<path d="M12650 6840 c0 -5 5 -10 10 -10 6 0 10 5 10 10 0 6 -4 10 -10 10 -5
0 -10 -4 -10 -10z"/>
<path d="M12448 6833 c7 -3 16 -2 19 1 4 3 -2 6 -13 5 -11 0 -14 -3 -6 -6z"/>
<path d="M12398 6823 c7 -3 16 -2 19 1 4 3 -2 6 -13 5 -11 0 -14 -3 -6 -6z"/>
<path d="M12428 6793 c6 -2 18 -2 25 0 6 3 1 5 -13 5 -14 0 -19 -2 -12 -5z"/>
<path d="M12388 6783 c7 -3 16 -2 19 1 4 3 -2 6 -13 5 -11 0 -14 -3 -6 -6z"/>
<path d="M12445 6760 c-25 -11 1 -11 35 0 20 6 21 8 5 8 -11 0 -29 -3 -40 -8z"/>
<path d="M12478 6723 c7 -3 16 -2 19 1 4 3 -2 6 -13 5 -11 0 -14 -3 -6 -6z"/>
<path d="M12939 6801 c-1 -6 -3 -15 -4 -21 -1 -5 -3 -22 -4 -36 0 -14 -5 -22
-11 -19 -5 3 -10 -1 -10 -9 0 -9 0 -19 -1 -23 0 -4 4 -9 10 -11 6 -2 11 4 11
12 0 9 7 19 15 22 8 4 15 10 15 16 0 5 -5 6 -12 2 -7 -5 -8 -3 -2 7 13 21 16
57 4 64 -5 3 -11 1 -11 -4z"/>
<path d="M9041 5579 c-147 -45 -253 -215 -223 -357 15 -70 65 -153 118 -197
100 -82 250 -104 355 -52 73 35 135 98 166 167 21 47 24 66 21 135 -7 131 -68
224 -187 281 -63 30 -188 42 -250 23z m178 -143 c10 -9 25 -16 33 -16 17 0 67
-53 69 -73 1 -7 2 -25 3 -42 1 -16 5 -36 9 -42 5 -7 4 -13 -1 -13 -6 0 -8 -10
-4 -22 3 -13 1 -19 -5 -15 -7 4 -9 0 -6 -11 6 -24 -70 -94 -92 -86 -8 4 -15 1
-15 -6 0 -9 -18 -11 -64 -8 -109 7 -186 81 -186 179 0 64 48 144 91 153 8 2
25 8 39 13 34 14 108 8 129 -11z"/>
<path d="M9095 5391 c-63 -28 -91 -109 -57 -170 53 -96 192 -89 231 13 12 32
12 41 -3 79 -9 23 -27 50 -41 60 -28 20 -101 31 -130 18z"/>
<path d="M3159 4224 c-41 -22 -61 -50 -66 -96 -9 -87 41 -148 122 -148 28 0
45 9 78 39 39 36 41 42 41 93 0 37 -6 62 -19 80 -34 46 -103 60 -156 32z"/>
<path d="M3575 3530 c-3 -6 1 -7 9 -4 18 7 21 14 7 14 -6 0 -13 -4 -16 -10z"/>
<path d="M3535 3510 c-3 -6 1 -7 9 -4 18 7 21 14 7 14 -6 0 -13 -4 -16 -10z"/>
<path d="M3440 3460 c-9 -6 -10 -10 -3 -10 6 0 15 5 18 10 8 12 4 12 -15 0z"/>
<path d="M4016 2525 c-82 -29 -110 -118 -63 -200 27 -48 57 -65 116 -65 37 0
49 5 82 39 26 25 39 48 40 67 1 16 3 40 4 54 9 86 -83 140 -179 105z"/>
</g>
</svg>
