<?xml version="1.0" standalone="no"?>
<!DOCTYPE svg PUBLIC "-//W3C//DTD SVG 20010904//EN"
 "http://www.w3.org/TR/2001/REC-SVG-20010904/DTD/svg10.dtd">
<svg version="1.0" xmlns="http://www.w3.org/2000/svg"
 width="1600.000000pt" height="900.000000pt" viewBox="0 0 1600.000000 900.000000"
 preserveAspectRatio="xMidYMid meet">

<g transform="translate(0.000000,785.000000) scale(0.100000,-0.100000)"
fill="#000000" stroke="none">
<path d="M0 6833 c0 -559 4 -1013 8 -1007 5 5 39 54 77 109 189 277 363 484
624 745 228 228 507 461 753 628 139 95 525 312 554 312 5 0 -52 -33 -126 -73
-566 -307 -1038 -701 -1496 -1249 -119 -141 -214 -268 -332 -442 l-61 -90 0
-214 c0 -202 1 -214 16 -191 9 13 18 26 20 28 7 10 130 -1 155 -13 18 -10 30
-10 37 -3 7 7 18 3 35 -14 28 -26 33 -60 13 -81 -7 -7 -16 -21 -20 -32 -4 -10
-13 -16 -22 -12 -8 3 -17 1 -20 -4 -13 -21 -35 -10 -35 18 0 16 -8 32 -20 40
-11 7 -20 19 -20 27 0 18 -10 18 -83 4 l-57 -12 0 -216 0 -217 42 -22 c39 -20
33 -22 -22 -6 -20 5 -20 1 -20 -315 l0 -321 33 -1 32 -1 -32 -9 -33 -10 0
-123 0 -124 118 -7 c338 -22 777 38 1072 145 80 29 157 54 171 54 15 1 25 4
23 7 -5 9 27 21 34 14 3 -3 -1 -5 -8 -5 -7 0 -11 -2 -8 -5 8 -9 38 6 32 16 -3
5 2 6 10 3 19 -7 179 74 271 137 39 27 103 78 144 114 71 62 109 85 80 48 -12
-15 -10 -15 8 1 12 10 21 21 20 25 -1 3 14 27 34 51 20 25 47 66 59 93 13 26
27 47 31 47 4 0 28 44 54 98 26 53 51 105 55 114 28 53 93 314 124 498 2 14 2
-1 0 -34 -2 -32 -15 -108 -28 -170 -13 -61 -30 -142 -36 -181 -28 -160 -87
-295 -196 -442 -119 -162 -250 -259 -529 -394 -150 -73 -158 -78 -133 -88 43
-16 52 -44 34 -98 -9 -26 -16 -52 -16 -59 0 -19 57 -34 139 -35 l76 -2 -95
-12 c-282 -38 -492 -65 -505 -65 -9 0 -15 -10 -15 -25 0 -14 -13 -51 -29 -83
-29 -56 -85 -109 -156 -145 -39 -19 -153 -49 -168 -44 -7 2 14 10 45 16 94 20
179 92 261 219 31 49 32 52 15 52 -7 0 -28 -21 -46 -48 -43 -62 -90 -117 -96
-111 -2 2 18 38 44 79 33 49 46 77 38 81 -6 4 11 10 38 14 67 8 263 51 297 64
l28 11 -46 55 -47 55 23 20 24 20 -25 -5 c-304 -64 -484 -92 -759 -120 -85 -9
-161 -20 -170 -24 -9 -5 -56 -12 -106 -15 -49 -4 -111 -9 -138 -12 l-47 -6 0
-64 0 -63 28 4 c45 7 413 27 418 22 2 -2 -37 -7 -88 -11 -51 -4 -113 -9 -138
-11 -25 -2 -84 -7 -132 -11 l-88 -6 0 -89 c0 -78 2 -89 20 -99 23 -12 18 -32
-5 -23 -9 3 -15 -1 -15 -10 0 -22 51 -27 270 -27 336 0 742 43 946 101 60 17
140 37 179 46 38 8 97 21 130 28 73 16 206 65 201 74 -1 3 13 20 32 36 25 20
34 24 29 12 -6 -16 -5 -16 19 0 17 11 24 23 21 35 -3 10 -2 20 2 23 13 7 6 46
-10 56 -8 5 -9 9 -4 9 21 0 38 -19 32 -34 -5 -12 -1 -16 14 -16 16 0 20 5 16
20 -3 12 -1 18 5 14 12 -7 2 -50 -18 -82 -30 -46 -138 -98 -354 -168 -105 -33
-143 -54 -101 -54 64 0 83 -137 27 -193 -15 -14 -11 -16 42 -21 31 -4 91 -13
132 -22 41 -9 113 -24 160 -33 47 -10 95 -23 107 -31 31 -20 103 -134 110
-175 5 -34 5 -35 -26 -35 -29 0 -31 -2 -26 -27 3 -16 -5 -5 -20 26 -13 29 -22
58 -18 64 3 5 2 7 -4 4 -6 -4 -17 11 -25 32 -11 28 -34 53 -77 84 -94 70 -173
81 -544 75 -161 -2 -274 0 -252 4 22 4 78 7 125 8 47 1 94 5 105 10 12 5 14 9
6 9 -11 1 -11 5 3 20 16 17 15 19 -8 34 -35 23 -42 54 -18 80 28 32 35 57 16
57 -9 0 -77 -11 -153 -24 -242 -43 -450 -61 -834 -72 l-237 -7 0 -28 c0 -23 4
-29 23 -29 34 0 208 -19 241 -26 58 -12 -4 -28 -139 -34 l-130 -7 130 -3 c98
-3 115 -5 70 -9 -53 -5 -47 -6 55 -12 101 -5 94 -6 -65 -5 l-180 0 -3 -74 -2
-75 20 34 c12 18 23 31 26 28 2 -2 13 -33 24 -68 10 -35 29 -92 42 -126 19
-51 20 -65 10 -75 -19 -18 -55 28 -90 117 l-27 70 -3 -580 -2 -579 62 -64
c221 -224 498 -391 760 -457 150 -38 138 -32 138 -72 l0 -36 -102 6 c-140 9
-266 45 -423 122 -148 72 -235 128 -352 227 l-83 69 0 -79 c0 -85 9 -101 72
-133 15 -8 71 -44 126 -81 247 -167 580 -283 756 -262 55 7 56 6 56 -18 l0
-25 -86 13 c-114 19 -266 52 -316 70 -56 19 -58 18 -16 -11 23 -16 96 -41 190
-65 172 -45 262 -73 210 -64 -24 4 -32 2 -30 -8 2 -9 -12 -15 -42 -18 l-45 -6
59 -8 c33 -4 69 -12 80 -17 44 -20 -111 1 -232 31 -135 33 -146 35 -137 20 3
-5 -16 -3 -42 5 -40 12 -50 12 -61 1 -25 -25 266 -118 313 -99 28 10 15 20
-53 41 -37 12 -56 19 -42 17 58 -12 259 -44 313 -50 31 -4 57 -11 57 -16 0 -6
-9 -7 -20 -4 -11 3 -20 2 -20 -3 0 -6 -7 -13 -16 -16 -14 -5 -15 -4 -5 8 14
17 6 20 -84 31 -27 4 -61 9 -74 12 -16 4 -22 2 -17 -5 12 -20 -31 -32 -110
-32 -123 0 -287 60 -484 179 -47 28 -85 57 -85 63 0 7 -9 12 -19 10 -10 -2
-15 1 -12 6 3 5 -37 44 -89 85 l-94 76 2 -37 c1 -20 6 -43 11 -51 6 -10 5 -12
-2 -7 -8 4 -12 0 -12 -11 0 -21 69 -93 89 -93 7 0 9 -5 5 -12 -5 -8 -2 -9 9
-5 10 4 16 2 14 -6 -1 -7 5 -10 13 -9 8 2 12 1 8 -3 -4 -4 5 -18 20 -32 24
-22 23 -22 -13 3 -22 15 -64 50 -92 78 l-53 50 0 -39 c0 -37 5 -44 78 -107 42
-37 88 -76 102 -88 l25 -22 -31 21 c-17 11 -55 41 -85 68 -96 83 -89 80 -89
50 0 -20 19 -42 83 -97 154 -134 393 -278 565 -340 34 -13 60 -25 58 -28 -6
-5 -27 2 -171 61 -164 67 -341 177 -497 308 l-38 31 0 -541 0 -541 7000 0
7000 0 0 3925 0 3925 -7000 0 -7000 0 0 -1017z m4432 718 c222 -134 471 -397
624 -657 68 -116 139 -266 187 -394 55 -146 54 -169 -1 -35 -57 140 -106 240
-170 345 -63 104 -211 309 -292 406 -90 107 -276 279 -355 329 -35 23 -68 45
-72 49 -10 11 -4 8 79 -43z m-2044 -137 c7 -2 10 -9 6 -15 -4 -7 -3 -9 3 -6
12 8 63 -29 63 -45 0 -5 18 -48 40 -95 45 -96 46 -101 25 -83 -8 7 -15 8 -15
2 0 -12 25 -34 32 -27 3 3 20 -27 38 -67 18 -40 55 -118 82 -172 26 -55 48
-105 48 -113 0 -18 10 -16 32 4 17 15 18 15 13 1 -4 -9 -13 -19 -20 -22 -10
-4 -5 -29 22 -113 19 -59 36 -128 39 -153 3 -25 14 -91 25 -148 28 -152 25
-192 -16 -192 -27 0 -35 -17 -35 -76 0 -62 -15 -47 -29 28 -58 299 -213 752
-389 1133 -33 72 -63 140 -67 153 -7 23 -6 23 42 17 26 -4 54 -8 61 -11z
m2067 -82 c39 -30 126 -112 195 -181 133 -135 228 -263 318 -431 47 -88 122
-253 122 -268 0 -4 -33 61 -74 143 -128 259 -267 450 -461 633 -54 52 -130
116 -167 144 -37 28 -68 53 -68 55 0 6 51 -30 135 -95z m-67 -9 c284 -211 508
-507 657 -868 20 -48 35 -89 32 -91 -2 -2 -14 22 -27 54 -107 264 -304 557
-507 753 -85 83 -206 182 -265 218 -21 12 -38 25 -38 28 0 8 70 -37 148 -94z
m-2227 47 c5 0 9 -9 9 -20 0 -26 81 -350 114 -457 102 -330 184 -723 159 -767
-9 -16 -10 -15 -25 1 -9 10 -25 36 -37 58 l-21 40 5 -100 c3 -55 2 -149 -3
-210 -5 -60 -10 -89 -11 -63 -2 92 -58 444 -68 434 -3 -2 2 -46 11 -97 9 -51
16 -104 15 -118 0 -14 -9 24 -20 84 -20 119 -58 269 -89 360 -23 68 -25 79 -5
45 49 -86 -47 172 -123 333 -88 183 -142 316 -142 351 0 22 4 26 28 26 25 0
30 -5 41 -42 22 -79 115 -340 118 -331 2 5 -22 91 -52 192 -31 101 -53 186
-50 189 3 3 5 -1 5 -8 0 -7 3 -11 6 -8 3 4 1 15 -5 26 -19 35 -3 58 52 75 29
8 58 13 65 11 8 -2 18 -4 23 -4z m377 -80 c0 -8 -6 -1 -13 15 -8 17 -14 39
-14 50 0 13 5 8 14 -15 7 -19 13 -42 13 -50z m953 51 c81 -28 204 -87 241
-114 18 -14 56 -36 83 -50 121 -60 338 -253 428 -379 82 -115 257 -441 244
-454 -2 -2 -32 47 -67 108 -36 62 -92 150 -125 197 -106 150 -353 391 -493
483 -31 21 -76 52 -99 70 -23 18 -95 61 -160 95 -65 35 -115 63 -112 63 3 0
30 -8 60 -19z m-1736 -123 c-5 -19 -12 -24 -29 -21 -13 3 -42 -5 -66 -17 -23
-12 -39 -17 -36 -11 8 12 129 82 134 77 1 -2 0 -15 -3 -28z m22 -30 c-3 -8 -6
-5 -6 6 -1 11 2 17 5 13 3 -3 4 -12 1 -19z m811 -35 c6 -18 9 -33 6 -33 -5 0
-34 65 -34 77 0 15 18 -13 28 -44z m366 -39 c9 -24 2 -26 -12 -4 -7 11 -8 20
-3 20 5 0 12 -7 15 -16z m1311 -34 c4 0 0 10 -10 23 -10 12 27 -24 82 -79 106
-108 226 -277 236 -331 8 -40 -6 -43 -41 -10 -14 12 -22 15 -18 7 4 -8 -2 -4
-13 10 -20 24 -25 36 -22 53 1 5 -3 5 -9 2 -7 -4 -10 -1 -8 8 2 9 -1 17 -7 18
-15 3 -34 33 -28 43 4 5 0 6 -7 1 -10 -6 -12 -4 -7 8 4 10 -3 23 -18 35 -13
11 -21 23 -17 27 4 3 0 5 -8 3 -8 -1 -14 3 -13 10 2 6 -1 11 -5 10 -13 -4 -60
55 -77 96 -9 20 -32 55 -53 78 l-37 42 36 -27 c20 -15 40 -27 44 -27z m-2995
2 c-128 -100 -244 -194 -309 -250 -42 -36 -65 -53 -51 -38 47 53 374 317 390
316 3 -1 -11 -13 -30 -28z m2308 -16 c242 -122 504 -371 641 -609 56 -97 125
-246 118 -254 -3 -3 -29 41 -57 98 -68 135 -168 281 -289 421 -126 146 -250
244 -426 339 -112 61 -104 64 13 5z m-1269 -52 c59 -88 115 -202 132 -269 12
-46 7 -181 -7 -218 -12 -32 -24 -6 -24 54 0 94 -55 269 -85 269 -13 0 -23 21
-49 105 -24 77 -35 135 -26 135 5 0 31 -34 59 -76z m411 66 c8 -5 11 -10 5
-10 -5 0 -17 5 -25 10 -8 5 -10 10 -5 10 6 0 17 -5 25 -10z m-955 -60 c-27
-12 -43 -12 -25 0 8 5 22 9 30 9 10 0 8 -3 -5 -9z m2798 -159 c94 -130 178
-316 194 -426 4 -36 2 -49 -17 -72 l-23 -28 9 35 c4 19 8 55 7 80 -1 88 -93
277 -211 431 -30 39 -55 77 -56 85 -1 7 -9 21 -17 32 -7 10 1 2 19 -17 19 -20
61 -74 95 -120z m-448 136 c25 9 197 -181 294 -325 48 -72 49 -91 2 -37 -37
43 -40 38 -7 -13 34 -55 83 -154 106 -216 11 -29 28 -60 38 -69 17 -16 21 -17
47 -17 8 0 15 -3 15 -8 0 -4 -18 -6 -40 -4 -38 4 -39 5 -61 69 -55 165 -196
384 -368 568 -36 39 -60 65 -52 58 7 -6 19 -9 26 -6z m556 -4 c13 -16 12 -17
-3 -4 -10 7 -18 15 -18 17 0 8 8 3 21 -13z m-1506 -9 c-15 -11 -17 -17 -7 -23
17 -10 27 -77 13 -85 -13 -8 -15 -26 -2 -26 5 0 14 14 22 32 11 27 14 29 20
12 7 -18 8 -18 8 -1 1 25 21 11 21 -15 0 -36 -32 -89 -64 -104 l-31 -16 27 24
c31 27 48 71 24 62 -8 -3 -14 -11 -13 -16 3 -17 -52 -32 -76 -20 -19 9 -18 10
12 8 21 0 36 4 39 13 3 8 0 11 -6 7 -18 -11 -49 11 -56 39 -10 40 40 125 73
125 13 -1 12 -4 -4 -16z m1070 -36 c28 -29 68 -73 89 -98 20 -25 34 -37 31
-27 -15 37 6 13 65 -75 46 -69 58 -93 48 -100 -9 -5 -19 0 -33 19 -11 14 -46
61 -77 104 -32 42 -90 111 -129 153 -79 85 -75 105 6 24z m80 -18 c32 -38 62
-67 66 -65 3 3 13 -3 20 -13 13 -15 12 -16 -3 -3 -27 21 -22 6 16 -43 48 -63
108 -165 104 -176 -2 -5 -27 30 -56 78 -53 88 -129 183 -118 150 8 -26 1 -22
-20 10 -15 23 -15 25 -1 13 31 -25 17 1 -28 55 -41 47 -52 64 -41 64 2 0 29
-31 61 -70z m-2580 50 c3 -5 1 -10 -4 -10 -6 0 -11 5 -11 10 0 6 2 10 4 10 3
0 8 -4 11 -10z m1365 3 c0 -5 -7 -28 -15 -53 l-15 -45 5 40 c2 22 5 46 5 53 0
6 5 12 10 12 6 0 10 -3 10 -7z m-120 -13 c13 -8 13 -10 -2 -10 -9 0 -20 5 -23
10 -8 13 5 13 25 0z m1657 -79 c37 -50 91 -122 118 -160 28 -39 53 -71 57 -71
3 0 9 8 11 18 3 10 5 6 6 -10 2 -56 -9 -45 -148 147 -44 61 -90 122 -102 138
-11 15 -18 27 -15 27 3 0 36 -40 73 -89z m-1427 57 c0 -6 -6 -5 -15 2 -8 7
-15 14 -15 16 0 2 7 1 15 -2 8 -4 15 -11 15 -16z m1500 -8 c12 -16 19 -30 16
-30 -2 0 -14 14 -26 30 -12 17 -19 30 -16 30 2 0 14 -13 26 -30z m-1626 -96
c3 -8 2 -12 -4 -9 -6 3 -10 10 -10 16 0 14 7 11 14 -7z m1713 -25 c16 -23 16
-23 -2 -9 -17 13 -18 13 -13 0 27 -67 22 -68 -11 -3 -16 33 -18 41 -5 39 8 -1
22 -13 31 -27z m-2071 -6 c-10 -10 -19 5 -10 18 6 11 8 11 12 0 2 -7 1 -15 -2
-18z m132 -9 c3 -23 1 -27 -9 -17 -18 18 -23 56 -7 51 7 -3 14 -18 16 -34z
m1897 -24 c-3 -5 -2 -10 3 -10 5 0 12 -10 15 -22 l6 -23 -19 24 c-17 20 -19
41 -4 41 3 0 2 -4 -1 -10z m-3876 -22 c-3 -2 -38 -34 -79 -73 l-75 -70 70 73
c38 39 74 72 79 72 5 0 7 -1 5 -2z m81 -2 c0 -2 -8 -10 -17 -17 -16 -13 -17
-12 -4 4 13 16 21 21 21 13z m1913 -21 c-3 -9 -8 -14 -10 -11 -3 3 -2 9 2 15
9 16 15 13 8 -4z m2043 -206 c23 -89 6 -94 -45 -14 -43 69 -54 98 -21 55 34
-45 36 -7 5 96 -4 11 5 -2 20 -29 14 -26 32 -75 41 -108z m-376 121 c6 -11 8
-20 6 -20 -3 0 -10 9 -16 20 -6 11 -8 20 -6 20 3 0 10 -9 16 -20z m-1601 -106
c3 -16 1 -17 -13 -5 -19 16 -21 34 -3 29 6 -3 14 -13 16 -24z m91 -13 c0 -5
-9 -12 -19 -16 -11 -3 -25 -21 -31 -40 -14 -41 -33 -47 -24 -7 9 39 74 95 74
63z m44 -27 c3 -8 2 -12 -4 -9 -6 3 -10 10 -10 16 0 14 7 11 14 -7z m-214 -34
c0 -5 -4 -10 -10 -10 -5 0 -10 5 -10 10 0 6 5 10 10 10 6 0 10 -4 10 -10z
m210 -40 c-13 -32 -37 -50 -64 -50 -25 0 -19 17 8 24 14 3 33 19 42 36 22 37
31 31 14 -10z m361 17 c8 -7 24 -26 34 -44 18 -31 18 -33 1 -52 -20 -22 -197
-101 -227 -101 -14 0 -19 7 -19 28 0 22 17 47 73 105 74 79 102 92 138 64z
m1788 -35 c97 -193 214 -737 180 -840 -13 -41 -38 -72 -57 -72 -22 0 -39 59
-56 200 -25 202 -73 427 -132 615 -14 44 -27 88 -30 98 -5 15 -2 16 20 7 22
-8 26 -7 26 9 0 43 22 36 49 -17z m-444 -76 c-7 -43 -34 -97 -35 -68 0 7 -5
10 -11 7 -7 -5 -6 -12 4 -23 13 -16 57 -126 57 -140 0 -4 -7 2 -15 12 -8 11
-15 17 -15 14 0 -8 37 -89 50 -108 21 -32 46 -97 42 -108 -2 -7 -11 -12 -19
-12 -18 0 -13 -58 18 -205 10 -49 18 -115 18 -145 -1 -48 -3 -42 -14 44 -8 54
-17 101 -21 105 -4 3 -4 -19 0 -49 3 -30 11 -134 16 -230 6 -96 12 -182 15
-190 6 -19 -39 -456 -61 -590 -8 -52 -16 -126 -18 -165 -2 -38 -7 -92 -10
-120 -12 -99 53 157 71 279 14 93 20 113 25 90 4 -18 6 -9 3 26 -2 30 0 89 4
130 6 59 8 66 10 30 1 -41 3 -43 16 -26 13 17 14 14 17 -25 l3 -44 14 45 c25
81 23 23 -3 -110 -14 -72 -26 -148 -26 -169 0 -76 -31 -202 -85 -342 -30 -79
-60 -148 -66 -153 -8 -8 -10 -6 -6 9 18 67 48 217 45 221 -3 2 -18 -44 -33
-103 -16 -60 -37 -126 -46 -148 -10 -22 -27 -76 -39 -119 -19 -72 -136 -367
-208 -526 -16 -36 -43 -94 -59 -130 -16 -36 -40 -92 -53 -125 -12 -33 -27 -68
-32 -78 -13 -25 -2 -34 22 -19 11 7 28 12 39 12 13 0 32 20 56 60 38 62 65 92
40 43 -22 -41 -18 -53 4 -17 11 18 24 33 29 35 13 5 71 109 158 285 72 145
105 249 81 257 -11 3 38 163 53 172 10 6 21 -38 15 -62 -3 -10 2 -3 10 16 20
41 35 120 35 175 l-1 41 -18 -40 c-11 -22 -20 -35 -20 -30 -1 6 17 90 39 188
22 98 40 204 40 236 0 32 9 109 21 172 61 342 76 688 42 1029 -14 145 -19 174
-23 135 -6 -47 -6 -48 -14 -20 -4 17 -12 41 -18 55 -24 58 -27 81 -12 115 16
40 18 78 4 103 -5 9 -19 64 -30 122 -12 58 -24 114 -27 125 -3 11 -2 17 1 13
17 -15 106 -358 125 -476 6 -35 15 -139 21 -230 6 -92 16 -210 22 -262 6 -53
8 -125 5 -160 -11 -147 -49 -458 -67 -563 -21 -117 -23 -144 -12 -114 4 9 7
-42 6 -115 -2 -167 -1 -165 89 217 14 60 4 -56 -12 -146 -32 -170 -32 -178 -6
-94 49 156 56 184 77 326 20 127 22 186 23 504 0 329 -2 373 -24 515 -13 85
-39 218 -57 294 -19 76 -33 140 -31 142 2 2 14 -31 27 -74 22 -69 59 -165 60
-152 0 3 -7 40 -15 83 -18 92 -18 97 -5 77 15 -24 12 2 -10 92 -32 121 -18
117 23 -7 47 -146 73 -279 86 -450 6 -77 16 -187 21 -245 6 -58 13 -132 16
-164 4 -35 -1 -97 -10 -150 -8 -50 -22 -161 -30 -246 -13 -130 -30 -246 -62
-420 l-4 -25 10 25 c5 14 21 86 34 160 13 74 25 125 25 113 1 -12 -11 -88 -26
-170 -15 -87 -27 -188 -27 -245 -1 -53 0 -95 2 -93 2 2 10 25 17 52 7 26 14
41 14 33 2 -26 -97 -386 -143 -523 -406 -1208 -1242 -2255 -2232 -2796 -216
-118 -560 -261 -597 -248 -7 2 4 7 23 12 75 16 480 192 480 208 0 8 -68 -1
-87 -12 -13 -6 -23 -9 -23 -7 0 11 81 46 92 40 7 -5 8 -3 3 6 -6 10 -4 12 8 7
10 -4 16 -2 14 5 -1 6 4 13 12 16 9 3 11 0 6 -8 -5 -9 -4 -11 4 -6 6 4 8 12 5
18 -5 8 -1 9 10 5 11 -5 15 -3 10 5 -5 8 -2 9 10 5 11 -5 15 -3 10 5 -5 7 -2
9 8 5 9 -3 24 1 35 9 17 14 16 14 -7 4 -24 -11 -24 -10 -5 5 11 8 25 13 31 11
7 -3 20 2 31 10 17 14 16 14 -7 4 -24 -11 -24 -10 -5 5 11 8 25 13 32 11 7 -3
12 0 10 7 -1 7 6 11 15 11 10 -1 16 2 13 6 -3 4 6 15 20 24 29 19 39 20 29 4
-4 -8 -3 -10 2 -5 5 5 9 13 9 17 0 5 46 41 102 79 201 137 626 513 609 539 -5
9 108 128 235 248 53 50 77 90 62 105 -7 7 -34 -10 -87 -57 -42 -37 -76 -72
-76 -78 0 -6 10 0 21 14 18 23 19 23 9 2 -14 -29 -185 -198 -290 -287 -45 -38
-126 -108 -179 -153 -182 -158 -395 -307 -610 -428 -55 -31 -101 -59 -101 -61
0 -9 178 92 309 175 73 47 210 145 305 218 156 122 196 148 196 127 0 -5 -44
-47 -98 -95 -378 -337 -818 -597 -1257 -744 -55 -19 -84 -31 -65 -28 19 4 32
3 28 -1 -4 -4 -35 -9 -70 -10 l-63 -3 135 47 c74 26 169 63 210 81 168 73 376
197 264 156 -22 -8 -72 -28 -113 -45 -200 -84 -425 -153 -474 -146 -21 4 -26
3 -14 -3 13 -5 -17 -14 -96 -30 -162 -31 -172 -26 -27 14 214 59 228 64 233
77 4 10 -24 7 -109 -14 -97 -24 -132 -28 -238 -26 -68 1 -122 -1 -119 -6 2 -4
-12 -7 -31 -7 -19 0 -38 5 -41 10 -3 6 4 10 15 10 82 0 447 99 658 179 299
113 712 353 870 505 28 28 52 46 52 42 0 -5 11 4 25 20 14 16 31 29 38 29 8 0
34 19 58 42 24 23 98 92 164 154 151 141 278 278 324 349 20 30 38 57 41 60 3
3 17 21 30 40 13 19 49 67 81 105 31 39 64 85 73 103 34 67 8 53 -65 -35 -41
-50 -171 -191 -289 -314 -118 -122 -208 -219 -200 -214 13 8 13 7 1 -8 -16
-20 -36 -23 -25 -4 4 7 3 9 -2 4 -5 -5 -9 -13 -9 -18 0 -5 -4 -10 -10 -10 -5
-1 -57 -43 -115 -94 -110 -96 -223 -184 -325 -252 -186 -125 -437 -264 -535
-297 -47 -16 -70 -13 -27 3 14 5 28 15 32 21 3 6 42 29 86 51 44 22 77 44 74
49 -3 5 0 12 6 16 8 4 9 3 5 -4 -11 -19 3 -14 63 20 156 89 359 232 564 401
111 91 467 437 467 454 0 5 23 33 52 63 28 30 88 102 133 160 45 58 99 122
120 143 22 20 36 37 33 37 -4 0 -14 3 -24 7 -13 5 -16 3 -11 -10 7 -19 6 -20
-17 -11 -12 5 -13 10 -5 26 8 15 7 24 -7 39 -17 19 -17 20 2 13 15 -5 17 -4 7
6 -17 18 -36 2 -29 -26 6 -22 4 -23 -11 -13 -10 6 -27 29 -38 51 -21 43 -67
87 -73 69 -5 -16 -32 -13 -32 2 0 8 -9 22 -20 32 -20 18 -20 17 -20 -13 0 -17
-5 -34 -11 -37 -6 -5 -9 7 -7 32 3 38 3 38 -66 74 -44 24 -64 39 -55 43 8 3 4
4 -8 2 -12 -2 -23 0 -25 4 -6 15 -203 71 -301 86 -121 18 -181 9 -280 -41 -39
-20 -72 -34 -74 -31 -6 5 103 94 140 113 27 13 37 13 108 -1 44 -9 95 -16 113
-16 56 0 216 -48 301 -90 44 -21 74 -39 68 -40 -7 0 40 -27 104 -60 117 -61
143 -66 143 -32 0 10 7 27 15 38 23 30 18 47 -29 93 -30 30 -42 49 -39 62 3
10 9 19 13 19 4 0 25 34 46 75 21 41 44 75 52 75 7 0 17 12 23 28 13 33 48 72
65 72 26 0 22 19 -14 71 -51 73 -59 91 -24 50 l30 -33 17 28 16 29 -5 -35 -5
-35 15 28 c18 34 27 35 14 2 -15 -39 -3 -30 20 15 20 38 38 56 26 25 -3 -8 -3
-15 0 -15 14 0 169 342 215 475 53 155 57 168 115 450 43 209 43 209 38 108
-10 -200 -134 -593 -296 -937 -76 -163 -97 -231 -47 -154 25 39 39 48 39 26 0
-7 8 -4 16 7 15 19 15 17 9 -22 -9 -54 2 -54 49 -3 67 75 176 318 271 605 57
172 76 242 148 543 25 108 37 107 13 -1 -8 -40 -18 -97 -21 -127 l-5 -55 15
40 c8 22 20 49 25 60 5 11 16 38 24 60 12 33 15 36 16 15 3 -52 18 16 41 181
32 236 35 604 7 854 -12 99 -23 182 -25 184 -2 3 -10 -4 -18 -15 -13 -17 -13
-16 -4 16 25 81 30 117 24 159 -8 52 -16 46 -43 -34 -72 -211 -170 -401 -282
-551 -97 -130 -253 -283 -417 -410 -189 -146 -323 -227 -376 -228 -27 -1 -41
4 -45 14 -3 12 -2 12 8 3 17 -16 55 -1 160 61 284 167 551 411 696 636 100
155 174 307 174 359 0 14 5 33 10 41 8 12 10 10 11 -10 1 -22 3 -20 19 15 23
49 37 108 21 85 -9 -13 -11 -13 -11 3 0 9 9 26 20 37 20 20 28 46 11 36 -5 -4
-16 -3 -25 0 -14 5 -13 10 5 35 13 18 28 28 41 26 11 -1 23 5 26 13 4 13 3 13
-10 2 -14 -11 -20 -6 -47 33 -35 52 -38 67 -15 86 19 16 27 5 46 -58 14 -48
29 -58 22 -15 -8 49 -45 152 -60 166 -16 17 -18 26 -5 26 5 0 21 -29 36 -65
16 -36 30 -63 32 -61 2 2 -7 29 -21 60 -14 31 -22 64 -19 73 4 11 3 14 -5 9
-7 -4 -12 -5 -12 -2 0 2 -2 11 -5 19 -4 9 1 13 17 12 14 -1 24 -9 27 -20 2
-15 6 -11 17 14 8 18 14 43 14 54 0 11 3 18 6 15 3 -4 2 -27 -1 -52z m208 -37
c-4 -4 -17 5 -27 19 -11 15 -13 21 -6 15 23 -21 30 -15 32 25 1 36 2 36 5 -7
3 -24 1 -47 -4 -52z m-1963 31 c0 -13 -1 -13 -10 0 -5 8 -10 22 -10 30 0 13 1
13 10 0 5 -8 10 -22 10 -30z m1925 -65 c50 -124 91 -274 121 -440 30 -169 43
-332 26 -321 -8 5 -12 -4 -13 -26 -2 -37 -6 -14 -39 220 -11 79 -31 192 -46
250 -46 191 -97 397 -102 412 -3 10 -2 12 6 5 6 -5 27 -50 47 -100z m-3095 80
c0 -8 -8 -15 -18 -15 -19 0 -162 -34 -221 -52 -23 -7 -29 -13 -20 -18 16 -10
21 -38 8 -46 -5 -3 -7 -9 -4 -14 2 -4 -8 -12 -23 -18 -39 -16 -61 -18 -60 -8
0 5 -8 13 -17 18 -15 9 -15 11 2 23 17 13 17 14 0 21 -10 3 -35 -1 -55 -9 -20
-9 -79 -32 -131 -53 -52 -20 -122 -53 -155 -73 -89 -54 -164 -94 -143 -78 12
10 15 17 7 22 -11 7 34 41 124 95 120 72 179 114 183 131 6 21 18 25 28 8 5
-7 12 -6 23 4 52 46 184 70 400 75 58 2 72 -1 72 -13z m2826 -53 c-9 -8 -13 0
-19 38 l-6 35 15 -34 c8 -18 13 -36 10 -39z m174 23 c0 -5 -5 -3 -10 5 -5 8
-10 20 -10 25 0 6 5 3 10 -5 5 -8 10 -19 10 -25z m-4350 -4 c-5 -11 -15 -23
-22 -27 -7 -5 -8 -2 -3 7 21 37 44 55 25 20z m4646 -190 c62 -226 108 -504
102 -614 -2 -41 -6 -25 -16 73 -22 200 -78 479 -133 659 -10 35 -19 66 -18 70
2 17 34 -76 65 -188z m-532 144 c-10 -8 -31 -15 -45 -15 -14 0 -33 -8 -43 -18
-16 -19 -89 -222 -82 -229 2 -3 18 32 35 76 43 110 62 149 78 155 16 7 16 1
-3 -53 -17 -51 -13 -67 6 -19 14 34 50 77 50 58 0 -18 17 -10 35 16 14 22 15
28 4 35 -11 7 -11 9 2 9 28 0 33 -33 9 -52 -16 -13 -20 -25 -17 -40 4 -15 -1
-32 -13 -48 l-20 -25 0 25 c0 20 -3 22 -10 10 -19 -33 -50 -121 -40 -115 5 3
10 1 10 -4 0 -6 -4 -11 -9 -11 -12 0 -52 -120 -45 -132 24 -38 -253 -351 -425
-480 -174 -131 -505 -278 -625 -278 -58 0 -144 18 -153 33 -4 7 0 8 13 3 42
-17 148 -18 179 -2 17 9 38 16 49 16 38 0 205 64 317 121 63 33 155 90 205
126 100 75 339 310 368 363 l19 35 -20 -18 c-26 -22 -39 -7 -23 25 18 37 -36
-29 -67 -82 -36 -62 -85 -123 -162 -202 -60 -62 -102 -92 -70 -50 11 15 11 15
-1 4 -8 -7 -15 -18 -15 -25 0 -7 -5 -12 -12 -12 -7 0 -33 -18 -59 -40 -57 -48
-125 -95 -138 -95 -5 0 14 18 44 40 137 102 191 177 254 350 18 52 56 151 84
220 27 69 53 146 56 172 4 28 13 49 23 52 18 7 10 51 -15 80 -14 15 -14 18 -2
14 8 -3 35 1 60 8 61 19 73 18 67 -5 -3 -15 0 -17 17 -13 11 3 31 12 43 20 13
8 36 12 53 10 17 -3 33 -1 36 4 4 5 9 7 12 4 3 -4 -3 -13 -14 -21z m-2875 1
c-2 -2 -17 -6 -34 -10 -22 -5 -26 -4 -15 4 14 9 59 15 49 6z m1326 -134 c-5
-6 -25 70 -24 93 1 11 7 -5 15 -35 7 -30 11 -56 9 -58z m-1215 63 c0 -17 -46
-39 -66 -31 -22 9 -351 -103 -401 -137 -28 -19 -30 -22 -15 -34 21 -15 0 -18
-28 -3 -13 7 -27 6 -44 -2 -24 -10 -25 -13 -10 -29 14 -16 14 -18 -5 -28 -20
-11 -71 -15 -71 -6 0 33 265 183 406 231 68 23 182 50 222 53 6 1 12 -6 12
-14z m-385 -5 c4 -6 -6 -10 -22 -10 -22 0 -25 2 -13 10 19 12 27 12 35 0z
m3211 -22 c-9 -13 -25 -40 -37 -61 -11 -22 -23 -36 -26 -33 -8 7 58 116 70
116 5 0 2 -10 -7 -22z m-3066 2 c-8 -5 -22 -10 -30 -10 -13 0 -13 1 0 10 8 5
22 10 30 10 13 0 13 -1 0 -10z m1932 -17 c47 -43 14 -89 -137 -187 -142 -93
-146 -94 -179 -59 -45 48 -34 72 68 147 96 71 175 116 205 116 14 0 33 -7 43
-17z m-2547 -24 c42 -37 43 -46 10 -61 -22 -10 -29 -8 -55 17 -40 38 -39 70 2
74 4 1 23 -13 43 -30z m3235 -62 c-12 -25 -28 -52 -37 -58 -8 -7 0 15 19 48
38 71 49 76 18 10z m-2715 -32 c-39 -32 -55 -32 -25 0 13 14 31 25 39 25 11
-1 6 -9 -14 -25z m3112 -38 c2 -67 -11 -132 -29 -143 -7 -5 -9 0 -6 14 8 29
-5 36 -24 14 -26 -30 -30 -42 -14 -36 9 3 16 1 16 -6 0 -6 5 -8 10 -5 6 4 -10
-28 -35 -69 -26 -42 -50 -78 -56 -81 -5 -4 1 10 12 30 26 43 18 57 -14 27 -31
-29 -39 -28 -25 3 6 13 15 22 21 18 6 -3 7 -1 3 5 -3 6 18 56 49 112 30 55 55
102 55 104 0 6 30 76 33 76 1 0 3 -28 4 -63z m-2807 40 c0 -8 -17 -26 -37 -40
-48 -34 -36 -35 17 -2 47 30 49 30 43 6 -3 -11 -21 -23 -45 -31 -46 -13 -37
-29 17 -31 22 0 15 -4 -27 -15 -65 -15 -128 -45 -148 -69 -11 -13 -4 -12 41 5
30 12 67 28 83 36 16 8 35 14 43 14 25 0 13 -17 -24 -33 -21 -9 -65 -32 -98
-51 -75 -44 -96 -38 -69 20 11 22 19 43 19 47 0 5 8 15 18 22 14 10 15 14 5
19 -7 3 0 4 15 1 18 -4 26 -2 23 4 -4 6 7 17 24 26 16 8 44 31 62 50 35 39 38
41 38 22z m497 -34 c-3 -10 -5 -4 -5 12 0 17 2 24 5 18 2 -7 2 -21 0 -30z
m-2096 10 c-5 -10 -17 -27 -26 -38 -16 -19 -16 -19 -4 5 13 27 29 50 36 50 2
0 -1 -8 -6 -17z m3972 -50 c-8 -21 -26 -60 -40 -87 -22 -43 -45 -108 -83 -232
-14 -46 -54 -103 -65 -92 -4 4 -2 22 3 40 11 32 11 32 -5 11 -8 -13 -22 -23
-30 -23 -11 0 -13 6 -9 23 4 12 10 49 13 82 7 74 9 77 101 198 75 98 116 140
74 76 -82 -125 -104 -169 -113 -234 -5 -37 -12 -71 -15 -76 -3 -5 -3 -9 0 -9
13 0 43 78 44 114 1 29 14 57 51 112 28 40 57 87 66 104 22 42 27 38 8 -7z
m-2538 17 c-3 -5 -14 -10 -23 -9 -14 0 -13 2 3 9 27 11 27 11 20 0z m-1187
-56 c1 -20 0 -35 -3 -33 -7 8 -12 79 -5 74 4 -2 7 -21 8 -41z m907 26 c-10
-11 -23 -20 -29 -20 -6 1 0 10 13 20 30 26 39 26 16 0z m-1206 -22 c-7 -13
-25 -38 -40 -56 -37 -41 -38 -63 -2 -31 l26 24 -27 -37 c-26 -34 -47 -53 -31
-28 14 23 -12 8 -38 -22 l-28 -33 18 30 c34 58 122 175 131 175 1 0 -3 -10 -9
-22z m701 -6 c-14 -9 -45 -37 -70 -62 -25 -25 -34 -36 -20 -24 89 74 92 66 8
-19 -103 -104 -190 -202 -248 -281 -19 -27 -54 -74 -77 -105 -39 -52 -102
-158 -186 -311 -46 -85 -142 -347 -157 -430 -7 -36 -18 -85 -25 -110 -8 -25
-16 -56 -19 -70 -3 -14 -2 11 1 55 3 44 7 94 7 112 1 17 4 29 7 28 3 -2 20 48
37 110 65 237 239 586 369 739 18 22 33 45 33 51 0 6 41 56 92 110 60 64 84
95 69 90 -17 -5 -24 -2 -27 12 -3 10 -21 28 -40 41 -18 12 -34 27 -34 32 0 22
33 8 75 -31 37 -35 47 -39 60 -29 8 7 15 9 15 4 0 -4 19 10 43 32 46 44 86 73
102 73 6 0 -1 -8 -15 -17z m585 -22 c-3 -10 5 -26 20 -40 14 -13 25 -27 25
-31 0 -5 11 -19 25 -33 33 -33 32 -50 -5 -76 -40 -29 -68 -18 -140 55 -61 62
-60 68 19 105 46 21 49 25 39 44 -10 19 -10 20 6 7 9 -8 14 -21 11 -31z m125
-5 c22 -12 23 -14 8 -20 -11 -4 -28 1 -44 14 -22 18 -24 21 -8 21 11 -1 30 -7
44 -15z m3093 -7 c9 -31 0 -35 -23 -10 -25 26 -25 32 -1 32 11 0 21 -9 24 -22z
m207 8 c0 -16 -18 -31 -27 -22 -8 8 5 36 17 36 5 0 10 -6 10 -14z m-2561 -271
c1 -238 -33 -455 -91 -582 l-22 -48 -4 32 c-2 18 6 50 18 75 58 121 96 398 88
648 -3 85 -2 124 3 95 4 -27 8 -126 8 -220z m-2146 215 c-9 -17 -28 -43 -41
-58 -13 -15 -6 -1 14 31 38 59 58 79 27 27z m1628 15 c-18 -8 -36 -15 -40 -15
-13 1 45 29 59 29 8 0 0 -6 -19 -14z m-1588 -57 c-20 -29 -41 -57 -47 -63 -13
-14 21 42 51 83 39 52 36 37 -4 -20z m1042 42 c3 -5 1 -10 -4 -10 -6 0 -11 5
-11 10 0 6 2 10 4 10 3 0 8 -4 11 -10z m3592 -22 c-3 -7 -5 -2 -5 12 0 14 2
19 5 13 2 -7 2 -19 0 -25z m-3854 -44 c-34 -30 -54 -55 -58 -77 -4 -17 -18
-46 -31 -64 -13 -17 -24 -43 -24 -56 0 -14 -7 -30 -15 -37 -25 -21 -19 25 10
70 14 22 24 40 21 40 -8 0 -195 -219 -243 -285 -28 -38 -72 -108 -99 -154 -44
-76 -47 -84 -31 -96 15 -11 15 -14 -6 -33 -27 -26 -42 -28 -33 -6 3 8 2 13 -3
10 -16 -11 -81 -175 -81 -208 -1 -34 -28 -96 -30 -68 -1 8 -12 -14 -25 -50
-26 -73 -32 -71 -11 5 38 140 157 396 253 545 67 102 164 230 247 324 60 67
190 186 204 186 4 0 -16 -21 -45 -46z m207 26 c0 -5 -7 -10 -16 -10 -8 0 -12
5 -9 10 3 6 10 10 16 10 5 0 9 -4 9 -10z m-52 -14 c-45 -34 -117 -107 -121
-123 -4 -14 -5 -14 -6 4 -1 15 19 39 62 77 34 31 67 56 72 56 6 -1 2 -7 -7
-14z m552 -18 c0 -25 -3 -29 -12 -20 -16 16 -17 52 -1 52 8 0 13 -12 13 -32z
m-380 12 c0 -5 -2 -10 -4 -10 -3 0 -8 5 -11 10 -3 6 -1 10 4 10 6 0 11 -4 11
-10z m-1039 -17 c-5 -10 -16 -27 -24 -37 -13 -18 -12 -21 13 -35 64 -37 113
-74 117 -91 3 -10 14 -21 26 -24 16 -4 19 -8 11 -16 -9 -9 -22 -7 -50 8 -22
10 -68 29 -102 42 -61 22 -64 24 -58 52 3 16 19 49 36 73 31 45 50 61 31 28z
m1035 -40 c-10 -10 -19 5 -10 18 6 11 8 11 12 0 2 -7 1 -15 -2 -18z m3354 -28
c-6 -30 -8 -33 -9 -13 -1 25 8 62 14 56 2 -2 -1 -21 -5 -43z m-3677 17 c16
-18 15 -18 -16 -18 -27 1 -33 5 -29 19 6 22 25 22 45 -1z m232 -9 c11 -7 14
-13 8 -13 -18 0 -63 22 -63 31 0 10 27 1 55 -18z m145 -29 c0 -3 -5 -2 -11 2
-6 3 -15 1 -19 -5 -5 -9 -11 -7 -21 5 -9 12 -10 15 -1 10 6 -4 12 -2 12 4 0 8
6 8 20 0 11 -6 20 -13 20 -16z m3365 -85 c4 -61 5 -112 3 -115 -7 -7 -37 196
-31 212 13 34 21 7 28 -97z m-3758 35 c13 -35 13 -45 -3 -92 -22 -65 -28 -62
-12 7 10 44 9 56 -5 87 -20 41 -21 47 -5 42 6 -2 18 -22 25 -44z m318 30 c9
-9 14 -18 12 -21 -7 -6 -57 19 -57 29 0 14 28 9 45 -8z m-278 -51 c-3 -10 -5
-4 -5 12 0 17 2 24 5 18 2 -7 2 -21 0 -30z m692 -19 c19 -24 19 -28 5 -62 -23
-55 -31 -60 -58 -32 -38 39 -41 66 -12 95 31 31 40 31 65 -1z m-408 -22 c-7
-2 -23 6 -35 18 l-21 22 35 -18 c21 -10 30 -19 21 -22z m-294 -14 c-3 -7 -5
-2 -5 12 0 14 2 19 5 13 2 -7 2 -19 0 -25z m3410 10 c-3 -8 -6 -5 -6 6 -1 11
2 17 5 13 3 -3 4 -12 1 -19z m-2080 -95 c-2 -21 -4 -6 -4 32 0 39 2 55 4 38 2
-18 2 -50 0 -70z m-1517 58 c0 -6 -24 -38 -53 -73 -83 -98 -161 -218 -141
-218 8 0 14 -5 12 -12 -5 -14 -89 -61 -96 -53 -3 2 8 19 23 37 15 18 58 82 97
143 38 60 89 126 111 147 46 42 47 42 47 29z m166 -48 c-16 -38 -16 -38 3 -15
20 23 41 29 41 11 0 -5 5 -7 10 -4 6 3 10 2 10 -3 0 -5 19 -13 43 -17 33 -7
37 -9 18 -13 -31 -5 -107 -55 -92 -60 6 -2 8 -14 5 -28 -4 -15 -2 -24 5 -24 6
0 11 -12 11 -27 0 -26 1 -25 38 18 56 66 95 106 86 89 -4 -8 -16 -25 -27 -37
-10 -12 -16 -26 -13 -32 4 -5 0 -27 -9 -47 -16 -39 -14 -59 3 -27 20 36 123
128 209 186 47 32 88 56 90 53 2 -2 -33 -29 -79 -59 -86 -58 -188 -155 -252
-241 -43 -58 -39 -73 7 -29 17 17 47 38 64 47 42 21 119 32 135 19 7 -6 25
-13 41 -17 15 -4 36 -15 47 -26 41 -41 18 -107 -80 -235 -26 -33 -57 -78 -69
-100 l-23 -40 24 30 c67 86 81 89 24 5 -17 -25 -31 -51 -32 -57 -4 -24 -44
-79 -93 -127 -28 -27 -47 -54 -44 -60 3 -6 3 -8 -2 -4 -4 4 -34 -14 -65 -40
-56 -45 -120 -87 -120 -79 0 2 21 19 48 37 93 67 170 142 196 192 19 36 22 47
10 37 -16 -13 -16 -12 -6 8 12 22 7 53 -8 53 -5 0 -21 -5 -36 -10 -14 -6 -48
-7 -75 -4 l-49 7 0 38 c0 32 -3 39 -20 39 -25 0 -25 -4 5 76 14 36 25 69 25
73 -1 15 -41 -69 -56 -119 -10 -30 -19 -50 -21 -45 -4 12 14 73 46 155 11 30
15 47 8 37 -19 -29 -39 -53 -32 -39 3 6 4 16 0 22 -7 11 -35 2 -35 -12 0 -6 6
-6 14 2 10 8 9 -2 -5 -30 -11 -23 -23 -39 -26 -36 -3 3 0 12 7 20 6 9 10 20 8
26 -3 10 -75 -80 -85 -107 -8 -19 -29 -16 -73 12 -45 28 -43 25 -31 57 9 23 8
24 -45 23 -61 0 -67 11 -39 65 16 31 14 34 -23 24 -16 -5 -34 -28 -58 -75 -18
-38 -34 -73 -34 -79 0 -5 14 -8 30 -6 21 2 42 -5 68 -24 33 -24 38 -32 38 -69
0 -29 6 -46 20 -57 18 -14 18 -15 -3 -4 -15 7 -23 7 -23 1 0 -12 41 -36 53
-33 5 1 6 -2 3 -7 -4 -5 3 -12 14 -16 16 -5 19 -12 14 -28 -10 -35 -20 -39
-33 -13 -17 31 -56 52 -103 55 -10 0 -18 8 -18 16 0 7 -7 18 -16 23 -9 5 -14
15 -10 21 4 6 12 9 17 5 15 -9 41 4 34 16 -5 8 -11 8 -19 1 -15 -13 -26 -4
-26 21 0 24 32 23 55 -2 15 -16 15 -22 5 -35 -7 -8 -10 -15 -6 -15 3 0 13 11
22 25 14 22 14 26 -2 55 -22 37 -33 37 -76 3 -31 -25 -31 -25 -11 -2 l22 24
-29 17 c-24 14 -29 14 -34 2 -3 -8 -1 -14 4 -14 6 0 10 -4 10 -10 0 -5 -6 -10
-14 -10 -14 0 -32 -40 -76 -173 -12 -38 -24 -67 -26 -65 -6 6 51 178 90 272
74 178 76 180 168 224 46 21 94 49 108 61 28 25 15 20 -49 -21 -45 -28 -95
-35 -135 -19 -28 11 56 45 105 42 53 -3 100 27 134 84 14 25 32 45 39 45 13 0
50 49 80 105 20 39 21 14 1 -28 -14 -27 -14 -29 -1 -13 8 10 25 47 38 82 13
36 24 60 26 55 2 -5 -4 -26 -12 -48z m-871 9 c0 -20 -5 -28 -17 -28 -22 0 -22
5 -2 34 19 28 19 28 19 -6z m121 14 c11 -8 36 -16 55 -18 21 -2 34 -8 35 -18
0 -8 4 -23 8 -32 8 -18 -9 -58 -24 -58 -6 0 -19 9 -31 21 -12 12 -27 18 -38
14 -28 -9 -70 12 -83 41 -11 23 -10 29 11 45 28 23 40 24 67 5z m3704 -29 c0
-13 -6 -29 -12 -36 -10 -11 -10 -13 0 -7 7 4 12 1 12 -8 0 -22 -47 -55 -70
-49 -25 7 -25 8 2 52 43 72 68 90 68 48z m-3582 -77 c-18 -33 -36 -60 -41 -60
-9 0 16 52 45 93 33 46 31 30 -4 -33z m812 50 c0 -5 -8 -10 -17 -10 -15 0 -16
2 -3 10 19 12 20 12 20 0z m280 -5 c-7 -8 -17 -15 -22 -15 -6 0 -5 7 2 15 7 8
17 15 22 15 6 0 5 -7 -2 -15z m-680 -39 c0 -2 -8 -10 -17 -17 -16 -13 -17 -12
-4 4 13 16 21 21 21 13z m4127 -28 c-3 -7 -5 -2 -5 12 0 14 2 19 5 13 2 -7 2
-19 0 -25z m-4277 18 c0 -2 -8 -10 -17 -17 -16 -13 -17 -12 -4 4 13 16 21 21
21 13z m4347 -151 c4 -74 2 -118 -5 -131 -10 -16 -11 -12 -12 24 0 26 -4 41
-10 37 -6 -3 -14 4 -19 17 -7 18 -10 6 -15 -52 -3 -41 -8 -91 -9 -110 -2 -19
-4 39 -5 130 -2 155 6 216 22 175 3 -9 6 -29 7 -43 1 -48 17 6 19 63 2 88 20
14 27 -110z m-4126 107 c-12 -22 -41 -48 -41 -36 0 8 40 54 47 54 2 0 -1 -8
-6 -18z m1918 -114 c-2 -81 -6 -108 -18 -108 -4 0 -4 21 0 48 4 26 8 66 8 90
1 23 4 42 7 42 3 0 4 -33 3 -72z m1778 25 c-3 -10 -5 -2 -5 17 0 19 2 27 5 18
2 -10 2 -26 0 -35z m-3757 28 c0 -5 -16 -18 -35 -30 -44 -26 -45 -14 -2 16 39
26 37 25 37 14z m-490 -31 c-6 -12 -14 -20 -17 -17 -2 3 1 14 8 26 17 26 24
19 9 -9z m1280 0 c-6 -11 -13 -20 -16 -20 -2 0 0 9 6 20 6 11 13 20 16 20 2 0
0 -9 -6 -20z m1220 -103 c-11 -70 -36 -131 -56 -133 -5 0 -17 -4 -27 -9 -11
-5 -23 -3 -30 5 -9 10 -9 11 1 6 7 -4 12 -1 12 8 0 14 11 20 31 18 3 -1 6 11
5 25 -1 14 4 28 10 30 7 2 10 -7 8 -23 -1 -16 1 -23 7 -17 11 11 38 133 40
183 2 31 2 32 6 7 3 -15 -1 -60 -7 -100z m1697 71 c-3 -8 -6 -5 -6 6 -1 11 2
17 5 13 3 -3 4 -12 1 -19z m-2141 -122 c-3 -51 -12 -113 -19 -137 -16 -52 -77
-152 -77 -126 0 9 20 87 45 173 25 85 45 161 45 169 0 8 3 15 6 15 4 0 4 -42
0 -94z m-891 11 c-19 -22 -35 -49 -35 -59 0 -10 -4 -17 -9 -15 -6 1 -24 -14
-41 -33 -31 -34 -31 -34 -15 -5 22 37 74 111 97 135 9 10 13 21 10 25 -4 3 1
3 11 -1 14 -5 12 -12 -18 -47z m-1362 -15 c15 -32 27 -69 27 -82 -1 -26 -28
-94 -29 -73 -1 6 -7 18 -14 25 -24 26 -37 70 -37 128 0 78 18 79 53 2z m1379
6 c-7 -7 -12 -8 -12 -2 0 14 12 26 19 19 2 -3 -1 -11 -7 -17z m1816 -92 c31
-8 81 -19 110 -25 42 -9 67 -22 113 -63 32 -28 59 -58 59 -67 0 -30 22 -43 42
-24 28 25 22 0 -17 -69 -19 -35 -35 -59 -35 -54 0 5 -7 3 -15 -4 -8 -7 -15 -9
-15 -4 0 5 -4 3 -9 -5 -5 -8 -8 -33 -6 -55 2 -23 2 -35 -1 -28 -5 10 -9 9 -19
-5 -11 -15 -18 -16 -42 -7 -71 29 -70 29 -40 -3 l28 -31 -35 -6 c-21 -4 -56
-1 -83 7 -57 16 -79 15 -75 -1 1 -7 -2 -12 -8 -12 -5 0 -10 7 -10 15 0 21 -17
19 -30 -5 -6 -11 -24 -27 -40 -35 -42 -22 -51 -18 -10 5 27 15 30 19 15 20
-18 1 -18 2 3 10 25 11 29 38 7 46 -8 4 -15 17 -15 31 l0 24 31 -22 c23 -16
33 -19 42 -10 8 8 7 11 -4 11 -9 0 -24 9 -35 21 -19 21 -19 21 11 8 17 -7 35
-19 42 -27 13 -16 7 -36 -8 -27 -5 4 -9 -2 -9 -12 0 -14 8 -18 38 -19 41 -1
57 13 39 35 -7 9 0 7 17 -5 21 -13 31 -15 34 -6 2 7 8 10 13 6 14 -9 10 10 -7
32 -15 19 -15 18 -11 -3 3 -13 1 -25 -3 -28 -16 -10 -20 13 -11 59 7 39 6 45
-5 35 -11 -9 -14 -8 -14 1 0 7 -7 10 -15 6 -8 -3 -15 -1 -15 4 0 6 -7 10 -15
10 -8 0 -12 6 -10 13 5 15 -57 56 -97 64 -32 6 -32 4 -16 38 9 21 18 26 42 23
48 -5 41 18 -16 47 -47 24 -39 27 19 9 16 -5 16 -4 2 5 -26 17 -129 41 -176
41 -58 0 -54 14 10 33 67 20 181 21 255 3z m1243 -148 c-10 -31 -11 -30 -6 16
3 27 6 63 7 80 1 19 3 14 5 -16 2 -25 -1 -61 -6 -80z m-1511 59 c30 -24 55
-50 55 -58 1 -8 6 -13 12 -12 6 1 19 -7 28 -17 10 -11 13 -20 7 -20 -6 0 -13
6 -15 13 -3 7 -6 5 -6 -5 -1 -25 -24 -22 -50 6 -23 24 -21 52 2 40 7 -3 -6 11
-28 30 -22 20 -50 39 -62 42 -13 3 -20 10 -17 15 8 14 16 11 74 -34z m-2166
-41 c-14 -37 -28 -65 -31 -63 -2 3 8 35 23 71 14 37 28 65 31 63 2 -3 -8 -35
-23 -71z m2295 38 c6 -6 -21 -64 -30 -64 -5 0 -6 6 -3 14 3 9 -5 21 -20 31
-38 25 -33 38 12 30 20 -4 39 -8 41 -11z m-2390 -63 l23 -18 -33 -1 c-18 0
-46 7 -63 15 l-31 17 25 6 c31 8 49 4 79 -19z m-69 -26 c10 -13 9 -15 -9 -15
-12 0 -21 6 -21 15 0 8 4 15 9 15 5 0 14 -7 21 -15z m-195 -15 c3 -5 1 -10 -4
-10 -6 0 -11 5 -11 10 0 6 2 10 4 10 3 0 8 -4 11 -10z m261 3 c-15 -4 -16 -7
-5 -14 11 -7 11 -9 -3 -9 -18 0 -23 11 -11 23 3 4 13 6 22 6 12 -1 11 -3 -3
-6z m2164 -68 c-17 -30 -33 -55 -35 -55 -2 0 -11 -3 -20 -6 -11 -5 -9 2 8 20
13 14 35 46 48 71 13 25 25 41 27 35 2 -5 -11 -35 -28 -65z m1597 28 c-3 -10
-5 -4 -5 12 0 17 2 24 5 18 2 -7 2 -21 0 -30z m-2500 7 c21 -11 43 -20 50 -20
18 0 16 -19 -2 -26 -12 -5 -115 52 -115 63 0 9 34 1 67 -17z m509 -19 c-38
-39 -72 -56 -81 -41 -2 4 8 10 24 13 16 3 39 20 52 36 13 16 28 30 34 30 5 1
-8 -17 -29 -38z m-2486 -13 c0 -16 -3 -19 -11 -11 -6 6 -8 16 -5 22 11 17 16
13 16 -11z m703 -14 c-6 -17 -23 -9 -23 11 0 8 6 12 14 9 8 -3 12 -12 9 -20z
m1246 7 c20 -11 43 -27 50 -35 7 -9 17 -13 22 -10 15 9 10 -13 -6 -26 -8 -7
-15 -9 -15 -4 0 5 -27 26 -60 48 -33 21 -60 40 -60 42 0 10 34 2 69 -15z
m1261 -28 c0 -12 -3 -12 -22 1 -12 9 -34 16 -48 17 -22 0 -23 1 -5 8 26 10 75
-7 75 -26z m1257 -10 c-3 -10 -5 -2 -5 17 0 19 2 27 5 18 2 -10 2 -26 0 -35z
m-1457 3 c0 -5 -3 -6 -7 -2 -4 3 -13 -4 -20 -16 -15 -28 -17 -10 -2 29 8 22
12 24 19 13 6 -8 10 -19 10 -24z m70 -30 l-30 -59 2 41 c1 30 6 43 19 47 9 3
20 13 23 22 4 9 8 14 11 12 2 -3 -9 -31 -25 -63z m-2005 34 c-3 -5 -12 -10
-18 -10 -7 0 -6 4 3 10 19 12 23 12 15 0z m-1038 -42 c-3 -8 -6 -5 -6 6 -1 11
2 17 5 13 3 -3 4 -12 1 -19z m2447 2 c8 -8 6 -14 -4 -20 -19 -12 -8 -13 22 -1
39 14 105 23 88 12 -8 -6 -23 -11 -32 -11 -28 0 -110 -39 -103 -50 3 -6 19 -3
40 7 19 9 37 15 39 12 3 -2 8 -29 12 -58 5 -39 4 -52 -4 -47 -8 5 -10 1 -5
-10 6 -16 7 -16 19 1 7 9 17 14 23 10 16 -9 13 -25 -3 -25 -8 0 -18 -5 -22
-12 -4 -7 -3 -8 4 -4 7 4 19 3 28 -2 13 -7 14 -10 0 -21 -12 -10 -22 -7 -55
15 -22 14 -39 30 -36 34 3 4 -2 13 -10 20 -11 9 -11 17 -3 36 6 13 17 24 24
24 7 0 16 5 20 11 13 22 -50 -1 -74 -26 -22 -24 -22 -24 -2 -35 11 -6 18 -15
15 -21 -4 -5 -2 -9 3 -9 6 0 12 -7 15 -14 4 -10 1 -13 -9 -9 -13 5 -16 11 -13
30 2 13 -33 25 -43 15 -13 -13 -48 2 -48 21 0 7 4 6 10 -3 8 -12 10 -10 10 8
0 23 0 23 -30 5 -16 -9 -30 -23 -30 -30 0 -7 -20 -33 -45 -59 -25 -25 -45 -43
-45 -39 0 38 -101 -129 -136 -225 -14 -36 -22 -51 -20 -35 3 17 7 37 11 46 4
12 -1 15 -24 13 -22 -1 -28 2 -24 12 3 8 13 14 22 13 32 -3 40 1 55 31 13 26
13 30 0 30 -8 0 -17 -7 -20 -15 -9 -21 -24 -19 -24 4 0 10 22 41 49 68 48 48
86 116 76 133 -3 5 -1 11 5 15 15 9 12 -27 -5 -71 l-16 -39 23 30 c13 17 38
47 56 67 38 42 36 63 -4 48 -23 -9 -24 -8 -14 11 6 11 18 23 26 26 8 3 14 11
14 18 0 7 17 28 38 47 34 30 42 33 91 31 30 -1 59 -7 65 -13z m-2214 -67 c-10
-58 -24 -119 -35 -158 -2 -5 -4 6 -4 25 -1 37 39 213 47 206 2 -3 -1 -36 -8
-73z m560 67 c0 -5 -4 -10 -10 -10 -5 0 -10 5 -10 10 0 6 5 10 10 10 6 0 10
-4 10 -10z m1923 3 c-7 -2 -19 -2 -25 0 -7 3 -2 5 12 5 14 0 19 -2 13 -5z
m-1550 -18 c4 -8 2 -17 -4 -21 -11 -6 -39 13 -39 27 0 15 37 10 43 -6z m1507
5 c19 -6 47 -21 63 -33 25 -21 26 -24 12 -42 -15 -19 -16 -19 -13 5 2 20 -3
27 -30 35 -18 6 -29 15 -25 19 5 5 -1 4 -13 -2 -13 -7 -32 -8 -50 -2 -22 6
-24 9 -9 10 14 2 12 5 -10 10 l-30 8 35 1 c19 0 51 -4 70 -9z m1747 -27 c-3
-10 -5 -4 -5 12 0 17 2 24 5 18 2 -7 2 -21 0 -30z m-1837 -3 c0 -5 -2 -10 -4
-10 -3 0 -8 5 -11 10 -3 6 -1 10 4 10 6 0 11 -4 11 -10z m357 -12 c2 -17 0
-19 -7 -8 -5 8 -6 18 -4 22 8 12 10 10 11 -14z m987 -4 c27 -10 20 -48 -36
-195 -9 -24 -12 -26 -32 -15 -13 6 -31 19 -41 29 -13 14 -20 15 -31 6 -8 -6
-14 -9 -14 -5 0 7 69 105 88 125 7 8 20 24 29 37 17 27 16 26 37 18z m-2846
-31 c15 -34 3 -47 -37 -38 -35 7 -43 37 -13 54 27 16 36 13 50 -16z m1649 21
c-3 -3 -12 -4 -19 -1 -8 3 -5 6 6 6 11 1 17 -2 13 -5z m1680 -31 c-3 -10 -5
-4 -5 12 0 17 2 24 5 18 2 -7 2 -21 0 -30z m-1352 -21 c-7 -7 -45 29 -45 41 0
6 11 0 25 -13 14 -13 23 -26 20 -28z m2139 33 c-4 -8 -1 -15 5 -15 6 0 11 -8
11 -17 1 -17 1 -17 14 0 19 24 24 22 32 -18 17 -95 -70 -469 -195 -835 -84
-245 -210 -542 -321 -755 -98 -187 -144 -271 -155 -285 -7 -8 -41 -62 -76
-120 -69 -114 -222 -336 -303 -440 -87 -112 -204 -253 -243 -294 -21 -21 -31
-35 -23 -31 8 4 -12 -18 -45 -51 -33 -32 -49 -49 -35 -39 40 31 -218 -230
-295 -298 -38 -34 -61 -52 -51 -39 30 35 3 26 -30 -10 -16 -18 -20 -26 -9 -18
11 8 7 0 -9 -18 -17 -18 -32 -32 -34 -32 -3 0 3 9 13 20 10 11 14 20 8 20 -13
0 -45 -35 -38 -42 3 -3 -5 -13 -17 -24 -18 -15 -20 -16 -9 -1 24 30 -2 18 -52
-24 -26 -22 -45 -44 -42 -49 3 -4 -3 -14 -13 -21 -15 -13 -16 -12 -3 4 23 29
6 20 -86 -46 -215 -155 -335 -227 -557 -336 -112 -55 -340 -137 -428 -155 -16
-3 -39 -8 -53 -11 -14 -3 -25 -1 -25 4 0 10 136 56 285 96 89 24 216 79 305
134 25 15 28 20 15 25 -9 3 -13 2 -10 -4 6 -10 -2 -12 -56 -14 -20 -1 -25 2
-21 13 4 10 1 13 -12 8 -10 -4 -15 -3 -11 3 11 17 -38 10 -90 -13 -27 -13 -88
-43 -135 -67 -104 -54 -257 -120 -279 -120 -19 0 29 30 79 50 19 7 122 55 228
106 480 231 874 516 1268 916 701 710 1200 1613 1430 2584 19 82 40 174 45
204 6 30 13 58 16 63 8 13 13 8 7 -8z m-3881 -64 c61 -64 60 -62 51 -85 -11
-29 -51 -18 -94 27 -90 92 -95 102 -62 110 39 10 51 4 105 -52z m532 47 c14
-6 25 -15 25 -20 0 -7 -31 8 -59 29 -10 7 10 2 34 -9z m722 -26 c13 -31 13
-31 -11 -21 -24 11 -40 42 -28 54 11 11 26 -2 39 -33z m-2217 -1 c8 -16 6 -17
-16 -13 -17 3 -22 7 -14 12 7 4 9 13 5 20 -5 9 -4 11 3 6 7 -4 16 -15 22 -25z
m2290 3 c0 -2 -9 0 -20 6 -14 8 -20 8 -20 0 0 -6 -5 -8 -11 -4 -19 11 13 24
33 13 10 -5 18 -12 18 -15z m2247 4 c-3 -8 -6 -5 -6 6 -1 11 2 17 5 13 3 -3 4
-12 1 -19z m-2457 2 c0 -5 -5 -10 -11 -10 -5 0 -7 5 -4 10 3 6 8 10 11 10 2 0
4 -4 4 -10z m341 -18 c31 -36 31 -46 1 -18 -18 17 -32 31 -32 33 0 9 18 1 31
-15z m638 -7 c18 -17 27 -110 12 -119 -10 -7 -13 8 -15 84 -1 18 -10 30 -36
42 -34 17 -34 17 -5 11 17 -3 36 -11 44 -18z m-3157 -7 c-7 -7 -12 -8 -12 -2
0 14 12 26 19 19 2 -3 -1 -11 -7 -17z m223 -34 c25 1 45 0 45 -3 0 -17 -38
-41 -66 -41 -35 0 -50 18 -69 80 -7 23 -6 23 19 -6 23 -28 32 -32 71 -30z
m2704 -7 c-1 -40 -2 -40 -9 -12 -11 44 -11 67 0 60 6 -3 9 -25 9 -48z m-1957
3 c28 -49 -12 -57 -56 -11 -25 26 -26 30 -10 39 25 14 47 5 66 -28z m612 24
c4 -10 1 -14 -6 -12 -15 5 -23 28 -10 28 5 0 13 -7 16 -16z m363 -6 c-3 -8 -6
-5 -6 6 -1 11 2 17 5 13 3 -3 4 -12 1 -19z m508 -8 c3 -6 0 -10 -7 -11 -7 0
-2 -4 10 -10 13 -5 26 -18 29 -28 3 -13 11 -17 24 -14 10 3 26 0 34 -7 12 -10
1 -19 -65 -51 -44 -21 -100 -57 -125 -80 -56 -51 -155 -198 -174 -256 -14 -43
-34 -62 -24 -23 4 14 0 20 -10 20 -9 0 -19 5 -22 11 -4 6 -1 10 6 8 30 -4 47
2 53 17 8 21 -4 70 -14 54 -6 -9 -12 -9 -29 1 -27 17 -28 33 -1 19 16 -8 20
-8 20 3 0 10 11 14 36 13 29 -1 38 4 52 29 9 17 20 32 25 33 12 6 8 39 -8 52
-19 16 -9 33 16 25 33 -11 21 1 -38 38 -32 19 -69 48 -83 63 -24 26 -23 26 25
-6 28 -18 63 -44 78 -57 16 -13 33 -21 38 -17 5 3 12 -2 15 -10 8 -22 21 -20
35 5 6 12 7 19 1 15 -5 -3 -15 1 -21 8 -10 12 -8 13 8 9 12 -3 21 -1 21 4 0 5
15 10 34 10 22 0 52 11 83 32 26 18 41 31 32 28 -10 -3 -29 8 -50 29 -18 19
-29 34 -23 34 5 0 1 5 -8 11 -25 14 -23 33 1 19 11 -5 23 -15 26 -20z m542 8
c-3 -8 -6 -5 -6 6 -1 11 2 17 5 13 3 -3 4 -12 1 -19z m206 -28 l6 -35 -14 30
c-16 34 -20 64 -6 50 4 -6 11 -26 14 -45z m-3093 19 c0 -4 -7 -6 -15 -3 -8 4
-15 10 -15 15 0 4 7 6 15 3 8 -4 15 -10 15 -15z m3027 -11 c-3 -8 -6 -5 -6 6
-1 11 2 17 5 13 3 -3 4 -12 1 -19z m-1041 1 c10 -16 -22 -43 -42 -35 -16 6
-16 8 1 26 20 23 31 25 41 9z m1344 -9 c0 -10 -9 -24 -20 -30 -24 -13 -27 0
-8 30 16 25 28 26 28 0z m-3703 -12 c-3 -8 -6 -5 -6 6 -1 11 2 17 5 13 3 -3 4
-12 1 -19z m823 -19 c-32 -25 -141 -82 -147 -76 -3 4 155 95 167 96 3 0 -6 -9
-20 -20z m1566 12 c-4 -5 0 -12 6 -14 7 -3 3 -6 -9 -6 -33 -1 -28 -14 12 -35
19 -11 35 -25 35 -32 0 -8 -17 -2 -45 17 -25 17 -45 34 -45 39 0 5 10 16 22
24 26 18 32 20 24 7z m-620 -40 c-60 -63 -323 -231 -361 -231 -5 0 28 21 75
46 96 51 135 79 200 139 74 68 143 105 86 46z m760 14 c20 -19 5 -19 -20 0
-11 9 -14 15 -7 15 7 0 19 -7 27 -15z m179 5 c3 -6 -1 -7 -9 -4 -18 7 -21 14
-7 14 6 0 13 -4 16 -10z m2402 -12 c-3 -8 -6 -5 -6 6 -1 11 2 17 5 13 3 -3 4
-12 1 -19z m-4367 8 c0 -11 -100 -58 -183 -85 -151 -50 -388 -121 -403 -121
-8 0 -14 5 -14 10 0 6 10 10 23 10 12 1 76 16 142 36 66 19 153 44 193 56 51
14 72 25 73 37 0 9 3 11 5 4 6 -13 55 1 120 36 43 22 44 23 44 17z m1520 -26
c7 -17 10 -33 7 -37 -3 -3 -9 6 -13 21 -7 31 -19 33 -34 6 -9 -16 -8 -19 6
-13 12 4 15 3 10 -5 -4 -8 2 -16 16 -21 31 -12 39 -5 32 26 -6 22 -4 25 10 20
9 -4 16 -2 16 4 0 6 5 7 10 4 7 -4 7 -12 0 -25 -7 -13 -7 -21 0 -25 16 -10 12
-25 -5 -19 -8 4 -21 1 -29 -5 -7 -6 -16 -8 -19 -4 -4 3 -7 -1 -7 -10 0 -9 9
-21 20 -27 11 -6 20 -17 20 -25 0 -20 -10 -19 -25 2 -13 18 -40 9 -28 -10 4
-7 -11 5 -32 26 -22 20 -43 37 -47 37 -13 0 60 109 73 110 4 0 12 -14 19 -30z
m620 20 c12 -8 9 -10 -13 -10 -16 0 -26 4 -22 10 8 12 16 12 35 0z m307 -67
c-3 -10 -5 -2 -5 17 0 19 2 27 5 18 2 -10 2 -26 0 -35z m260 -45 c-2 -18 -4
-4 -4 32 0 36 2 50 4 33 2 -18 2 -48 0 -65z m-457 48 c47 -31 76 -78 84 -136
7 -44 6 -44 -9 -20 l-16 25 7 -24 c4 -14 2 -21 -4 -17 -5 3 -12 19 -15 35 -4
16 -24 48 -46 72 -40 42 -41 42 -97 36 -32 -3 -60 -11 -64 -18 -4 -6 -13 -8
-19 -5 -6 4 -11 0 -11 -9 0 -11 -5 -15 -15 -11 -10 4 -15 -1 -15 -14 0 -13 -5
-18 -15 -14 -9 4 -15 0 -15 -10 0 -9 -4 -16 -8 -16 -5 0 -30 -20 -57 -45 -29
-28 -54 -44 -63 -40 -10 4 -13 0 -9 -14 4 -16 0 -19 -21 -18 -23 2 -31 -7 -59
-62 -17 -35 -35 -82 -38 -103 -4 -21 -10 -36 -14 -34 -13 8 -4 100 13 131 9
17 16 39 16 51 0 28 50 96 125 170 64 63 105 81 168 75 15 -1 27 2 27 8 0 6
-8 8 -17 5 -15 -5 -16 -4 -3 5 8 6 33 11 55 12 36 1 37 2 15 10 -18 6 -10 7
29 4 35 -3 67 -13 91 -29z m2107 2 c-3 -7 -5 -2 -5 12 0 14 2 19 5 13 2 -7 2
-19 0 -25z m-1687 -4 c0 -17 -41 -127 -52 -139 -11 -11 -1 56 14 95 6 17 6 26
-2 28 -7 3 -8 8 -1 16 14 16 41 16 41 0z m-233 -56 c-3 -7 -5 -2 -5 12 0 14 2
19 5 13 2 -7 2 -19 0 -25z m154 -15 c-9 -16 -10 -16 -11 -1 0 9 3 25 7 35 7
16 8 17 11 1 2 -10 -1 -25 -7 -35z m440 -49 c37 -23 70 -47 74 -54 5 -9 -48
-70 -61 -70 -2 0 -26 14 -52 30 -27 17 -57 30 -66 30 -20 0 -20 14 0 73 10 30
20 45 27 40 7 -4 42 -26 78 -49z m-626 -107 c-29 -118 -44 -159 -45 -121 0 11
9 47 20 79 17 50 28 115 13 78 -2 -7 -9 -13 -14 -13 -5 0 -4 9 3 20 9 14 14
16 20 7 5 -7 8 -3 8 13 0 35 13 77 18 61 2 -7 -8 -63 -23 -124z m176 27 c-13
-62 -34 -121 -70 -192 -28 -56 -54 -102 -57 -102 -9 0 -2 21 55 159 37 88 48
127 40 132 -20 12 -1 79 24 88 12 5 23 8 24 7 1 -1 -6 -42 -16 -92z m-1101 71
c11 -13 10 -14 -4 -9 -9 3 -16 10 -16 15 0 13 6 11 20 -6z m-2167 -12 c-7 -2
-21 -2 -30 0 -10 3 -4 5 12 5 17 0 24 -2 18 -5z m3328 -60 c-9 -15 -10 -13
-11 13 0 17 3 34 8 38 11 12 14 -32 3 -51z m-1261 22 c5 3 10 1 10 -4 0 -6 -4
-11 -9 -11 -5 0 -16 -3 -25 -6 -12 -4 -16 0 -16 16 0 19 3 20 15 10 8 -6 19
-9 25 -5z m285 -6 c11 -16 1 -19 -13 -3 -7 8 -8 14 -3 14 5 0 13 -5 16 -11z
m1691 -43 c-7 -52 -27 -117 -57 -181 -14 -30 -58 -79 -65 -73 -8 9 18 78 29
78 7 0 30 52 51 115 21 63 41 115 44 115 2 0 1 -24 -2 -54z m-2069 -9 c3 -5 0
-7 -8 -5 -13 5 -49 -27 -49 -42 0 -15 33 -21 42 -8 7 9 8 8 6 -6 -6 -40 -49
-25 -53 18 -2 14 1 26 6 26 6 0 7 5 4 10 -3 6 -4 14 -1 19 7 11 44 3 53 -12z
m1233 -27 c0 -4 -7 -13 -16 -21 -33 -28 -60 -112 -67 -211 -2 -30 -3 -30 -46
-22 -18 4 -28 12 -27 22 1 11 -8 18 -22 20 -12 2 -20 7 -17 12 3 5 12 7 20 3
10 -3 15 1 15 15 0 26 18 38 33 23 14 -14 27 -14 27 -1 0 6 -6 10 -14 10 -7 0
-19 6 -25 14 -18 22 27 100 60 104 28 4 61 31 53 43 -3 5 2 6 10 3 9 -3 16
-10 16 -14z m-840 0 c0 -5 -7 -7 -15 -4 -8 4 -15 8 -15 10 0 2 7 4 15 4 8 0
15 -4 15 -10z m962 -122 c-22 -62 -50 -135 -62 -161 -12 -26 -20 -51 -16 -54
3 -4 6 1 6 10 0 9 6 20 14 24 21 12 47 70 52 116 3 23 11 47 19 53 8 6 15 24
16 40 0 16 7 47 15 69 l14 40 -5 -55 c-7 -87 -57 -220 -172 -458 -14 -29 -46
-71 -71 -93 -25 -22 -53 -52 -62 -67 -55 -89 -262 -246 -397 -302 -83 -35
-207 -64 -237 -56 -10 3 -26 1 -35 -4 -9 -4 -38 -11 -66 -14 l-50 -6 53 18
c31 10 50 21 45 26 -4 5 -3 6 4 2 7 -4 21 2 33 14 20 20 50 27 50 11 0 -5 -10
-12 -22 -16 -20 -6 -20 -8 -5 -12 9 -2 38 7 65 21 26 13 64 32 85 42 34 15 37
20 33 46 -5 35 -14 47 -24 32 -13 -19 -82 -67 -88 -61 -4 3 10 25 30 48 20 23
41 55 48 71 7 15 20 27 28 25 10 -1 15 6 14 20 0 12 4 21 9 20 6 -1 15 15 20
36 7 28 17 41 42 53 23 11 39 28 50 57 15 38 18 40 27 22 6 -11 18 -28 26 -38
14 -16 16 -16 34 -1 22 21 24 36 3 28 -9 -4 -15 -1 -15 7 0 15 20 49 20 35 0
-5 6 -3 13 3 8 6 17 8 20 4 4 -3 7 -1 7 5 0 7 -6 12 -14 12 -7 0 -20 8 -27 18
-11 14 -11 15 1 5 8 -7 21 -13 30 -13 9 0 22 -11 28 -25 10 -21 9 -31 -5 -53
-26 -40 -82 -112 -122 -154 -19 -21 -31 -38 -25 -38 5 0 43 39 84 86 41 48 84
97 96 109 18 20 19 24 5 33 -13 8 -10 10 14 8 16 -2 31 -8 33 -15 2 -6 9 -11
17 -11 7 0 19 -8 26 -17 12 -15 12 -16 -6 -8 -58 23 -67 19 -125 -62 -80 -112
-138 -173 -166 -173 -15 0 -24 -6 -24 -15 0 -17 16 -20 25 -4 4 5 12 8 18 6 7
-2 20 0 31 5 13 7 16 7 12 -1 -13 -20 4 -12 60 29 30 23 58 39 63 36 4 -3 19
7 32 22 l24 27 -30 -25 c-16 -13 3 9 43 50 39 42 72 81 72 88 0 7 6 12 13 10
6 -1 26 6 44 17 37 22 54 50 24 40 -12 -4 -32 7 -62 34 -53 47 -49 63 5 19 30
-25 40 -28 47 -17 7 11 11 11 22 -5 13 -18 15 -17 34 10 22 30 58 148 43 139
-21 -13 -17 16 7 61 15 27 30 65 34 84 7 31 32 102 69 195 7 17 14 25 17 18 2
-6 -14 -62 -35 -125z m-1222 64 c8 -5 -24 -22 -42 -22 -15 0 -19 25 -9 59 0 2
11 -4 24 -15 12 -10 24 -20 27 -22z m48 -11 c-1 -18 -9 -31 -19 -34 -20 -5
-20 20 1 45 19 24 21 23 18 -11z m842 -104 c-45 -121 -155 -248 -257 -297 -53
-26 -153 -37 -193 -22 -18 7 -7 8 43 4 61 -4 73 -2 134 28 66 33 193 146 193
172 0 7 -17 -5 -38 -27 -43 -47 -32 -29 18 30 19 22 31 31 27 20 -18 -49 35
34 60 97 33 79 43 75 13 -5z m-1074 -8 c19 -22 19 -22 -3 -10 -24 12 -39 31
-25 31 5 0 17 -10 28 -21z m805 -15 c17 -75 -1 -210 -26 -200 -7 2 -16 -2 -19
-10 -3 -9 -10 -13 -15 -9 -5 3 -13 0 -16 -6 -4 -5 -13 -8 -21 -5 -8 3 -14 1
-14 -4 0 -9 -55 -7 -105 5 -42 11 -19 -12 30 -29 l37 -13 -38 -6 c-31 -5 -44
-2 -72 19 -18 15 -42 40 -53 58 -10 17 -19 26 -19 19 0 -23 66 -97 105 -117
30 -16 58 -21 113 -21 53 1 67 -2 50 -8 -13 -5 -57 -6 -98 -3 -41 3 -96 8
-122 10 -52 4 -51 5 -63 -71 -4 -24 -13 -44 -22 -47 -9 -4 -13 -9 -10 -13 4
-3 -3 -14 -14 -24 -25 -21 -14 -29 50 -33 27 -2 53 -6 58 -9 6 -4 27 -1 47 5
40 13 103 76 112 115 4 13 10 21 14 18 4 -3 15 6 24 20 9 14 26 25 39 25 34 1
107 37 107 55 0 8 6 15 14 15 22 0 28 -16 11 -30 -13 -11 -13 -16 1 -42 9 -16
13 -32 10 -35 -3 -3 -10 6 -16 21 -8 23 -13 25 -29 16 -11 -5 -23 -19 -26 -30
-3 -11 -12 -20 -18 -20 -7 -1 -28 -15 -47 -32 -19 -17 -29 -28 -22 -24 18 10
15 1 -5 -15 -11 -10 -14 -10 -9 -1 4 6 3 12 -3 12 -5 0 -12 -4 -16 -9 -3 -6
-18 -16 -33 -24 -15 -8 -63 -34 -107 -58 -44 -24 -113 -53 -153 -65 l-73 -21
41 -18 c40 -18 53 -35 25 -35 -8 0 -15 4 -15 8 0 11 -46 32 -70 32 -11 0 -20
5 -20 10 0 6 -7 10 -16 10 -8 0 -12 5 -9 11 4 5 -1 19 -10 29 -14 16 -26 18
-61 13 -31 -4 -44 -2 -44 6 0 21 57 71 81 71 17 0 20 3 12 11 -16 16 -71 -15
-91 -52 -10 -16 -24 -29 -32 -29 -12 1 -11 3 3 11 12 7 16 17 12 30 -5 15 -2
19 15 19 15 0 20 5 17 14 -4 10 4 17 24 21 16 4 29 11 29 15 0 5 6 7 13 5 8
-4 12 5 11 27 0 18 -6 34 -12 36 -23 7 -89 -19 -122 -49 -19 -17 -28 -29 -19
-26 9 3 16 -1 16 -9 0 -8 -10 -14 -21 -14 -12 0 -32 -14 -45 -30 l-23 -30 -29
36 c-16 20 -29 40 -29 45 0 4 20 22 45 39 56 38 92 91 101 146 6 42 -10 114
-26 114 -5 0 -11 8 -15 19 -3 10 -23 26 -45 36 -36 16 -59 16 -104 -1 -22 -8
-22 39 0 60 22 22 76 20 107 -4 14 -11 30 -20 36 -20 6 0 11 -5 11 -11 0 -17
50 -113 63 -121 7 -4 20 -5 31 -2 12 4 16 2 11 -5 -9 -15 11 -39 49 -57 l31
-15 -34 30 -34 30 27 7 c17 4 32 2 39 -6 10 -10 6 -11 -18 -6 l-30 7 25 -21
c34 -29 56 -37 120 -44 48 -5 51 -4 20 5 -56 16 -63 19 -57 25 7 8 117 -28
112 -36 -3 -4 12 -10 33 -13 20 -3 48 -9 62 -13 21 -7 19 -3 -15 32 -22 22
-45 49 -52 60 -12 18 -12 18 -6 0 4 -14 3 -17 -6 -12 -6 4 -9 16 -6 25 4 13
-6 26 -32 46 -21 16 -40 30 -42 32 -2 2 -2 6 2 9 3 3 16 -4 29 -16 20 -18 23
-19 26 -5 3 13 6 14 19 4 12 -11 14 -10 13 2 -4 25 0 40 9 35 5 -3 11 17 15
45 4 27 11 47 16 44 5 -3 25 -2 45 4 26 7 47 5 84 -7 l50 -15 48 30 c26 17 53
30 58 29 6 -2 13 -16 16 -32z m-734 -46 c-3 -7 -5 -2 -5 12 0 14 2 19 5 13 2
-7 2 -19 0 -25z m43 6 c0 -8 -4 -12 -10 -9 -5 3 -10 10 -10 16 0 5 5 9 10 9 6
0 10 -7 10 -16z m1920 -65 c-24 -71 -119 -300 -130 -312 -4 -4 -19 11 -35 35
-20 30 -22 38 -8 26 11 -10 23 -18 27 -18 10 0 131 254 147 309 7 24 15 39 16
34 2 -6 -6 -39 -17 -74z m-1635 41 c3 -5 1 -10 -4 -10 -6 0 -11 5 -11 10 0 6
2 10 4 10 3 0 8 -4 11 -10z m800 -40 c-3 -4 11 -18 30 -30 42 -26 47 -37 8
-16 -16 8 -44 31 -63 51 l-35 37 33 -16 c18 -9 30 -21 27 -26z m-1050 -26 c8
-19 19 -33 25 -29 5 3 10 2 10 -4 0 -5 -4 -13 -10 -16 -10 -6 -50 51 -50 73 0
22 9 13 25 -24z m72 17 c5 -19 161 -111 189 -111 8 0 13 -4 10 -9 -3 -4 -23
-4 -45 2 -22 6 -38 14 -35 19 3 4 -1 8 -8 9 -50 2 -81 8 -91 18 -6 6 -19 11
-30 11 -10 0 -16 4 -12 10 3 5 13 6 23 3 15 -6 15 -5 3 11 -9 11 -18 13 -24 7
-10 -10 -37 -4 -37 9 0 4 7 7 16 6 9 0 19 5 22 13 3 9 0 11 -8 6 -9 -5 -11 -4
-6 3 11 18 27 14 33 -7z m828 -1 c3 -5 2 -10 -4 -10 -5 0 -13 5 -16 10 -3 6
-2 10 4 10 5 0 13 -4 16 -10z m-2486 -30 c-13 -8 -193 -51 -209 -50 -9 1 53
33 90 46 41 15 144 19 119 4z m2258 -22 c-3 -7 -5 -2 -5 12 0 14 2 19 5 13 2
-7 2 -19 0 -25z m213 1 c0 -5 -11 -9 -25 -9 -27 0 -32 9 -13 28 12 12 38 -1
38 -19z m165 -21 c55 -21 88 -46 45 -33 -42 13 -130 54 -130 61 0 3 8 3 18 -1
9 -4 40 -16 67 -27z m-3095 -3 c0 -8 -4 -15 -10 -15 -5 0 -10 7 -10 15 0 8 5
15 10 15 6 0 10 -7 10 -15z m1507 -6 c-22 -11 -41 -18 -44 -15 -4 3 9 12 28
20 50 22 60 18 16 -5z m798 -17 c-3 -3 -16 5 -28 17 l-22 23 28 -17 c15 -10
25 -20 22 -23z m484 22 c-14 -17 -108 -74 -123 -74 -6 0 17 16 50 36 32 19 63
40 69 45 15 15 18 10 4 -7z m247 -24 c16 -17 40 -36 54 -42 15 -6 20 -12 12
-15 -7 -3 -23 2 -37 11 -13 9 -38 17 -55 18 -38 3 -44 11 -30 38 14 27 21 25
56 -10z m-2966 0 c-8 -5 -22 -10 -30 -10 -13 0 -13 1 0 10 8 5 22 10 30 10 13
0 13 -1 0 -10z m122 -45 c-5 -66 2 -92 22 -76 10 9 15 8 19 -3 4 -9 -8 -19
-37 -30 -52 -20 -62 -20 -70 0 -10 26 -7 154 4 154 6 0 10 -7 10 -15 0 -7 5
-37 11 -66 9 -42 13 -49 21 -35 7 12 7 21 -1 29 -12 12 -15 79 -4 90 20 21 29
4 25 -48z m184 9 c-5 -13 -10 -14 -18 -6 -6 6 -8 18 -4 28 5 13 10 14 18 6 6
-6 8 -18 4 -28z m2790 -5 c3 -6 0 -15 -7 -20 -20 -13 -29 -11 -23 5 3 8 1 17
-5 21 -6 3 -11 11 -11 16 0 12 35 -6 46 -22z m-2841 -5 c27 -27 5 -83 -32 -84
-14 0 -18 56 -7 84 8 20 18 20 39 0z m1636 -48 c-31 -45 -85 -96 -102 -96 -18
0 -8 15 24 35 17 11 47 43 67 71 19 29 36 48 38 43 2 -4 -10 -28 -27 -53z
m1012 -12 c4 -6 19 -9 34 -6 27 4 27 4 11 -14 -16 -17 -19 -17 -36 -1 -10 9
-23 17 -29 17 -6 0 -16 6 -22 14 -10 12 -8 21 6 42 l18 28 5 -35 c4 -19 9 -40
13 -45z m-457 -29 c10 -8 15 -14 9 -14 -5 0 -19 6 -29 14 -11 8 -15 15 -10 15
6 0 19 -7 30 -15z m947 -64 c107 -57 258 -167 271 -198 3 -7 -36 18 -87 56
-171 126 -297 202 -329 200 -7 0 3 -7 22 -16 56 -24 70 -42 70 -87 0 -35 -10
-58 -57 -125 -6 -8 -74 63 -104 108 -30 46 -38 98 -18 118 7 7 35 11 63 9 41
-2 75 -15 169 -65z m-3053 29 c0 -6 -33 -9 -82 -9 -63 1 -75 3 -48 9 53 11
130 11 130 0z m2580 -26 c0 -8 5 -12 10 -9 18 11 10 -11 -10 -30 -12 -11 -20
-13 -20 -6 0 7 -4 9 -10 6 -5 -3 -10 -1 -10 4 0 6 7 11 16 11 11 0 15 6 11 20
-3 11 -1 20 4 20 5 0 9 -7 9 -16z m-111 -126 l-62 -63 59 74 c32 40 60 68 62
62 2 -6 -24 -39 -59 -73z m629 -32 c-2 -1 -12 -8 -22 -16 -17 -14 -18 -13 -12
8 4 12 3 22 -2 22 -6 0 -13 7 -16 16 -4 11 2 10 25 -6 16 -12 29 -23 27 -24z
m113 -9 c-13 -13 -26 -3 -16 12 3 6 11 8 17 5 6 -4 6 -10 -1 -17z m-2536 -21
c-4 12 -1 10 9 -6 8 -14 15 -28 16 -31 0 -10 -104 11 -115 23 -7 8 -5 9 7 5 9
-3 24 0 35 8 15 11 21 11 36 -3 17 -15 17 -15 12 4z m1016 -3 c27 -10 49 -22
49 -26 0 -5 -6 -7 -14 -4 -8 3 -17 -1 -20 -10 -5 -12 -9 -13 -20 -4 -7 6 -21
9 -30 5 -9 -3 -16 -1 -16 6 0 6 5 8 13 4 6 -4 4 2 -5 13 -33 37 -26 40 43 16z
m-1361 -47 c0 -6 -9 0 -20 14 -26 33 -25 52 0 21 11 -13 20 -28 20 -35z m1622
32 c-7 -7 -12 -8 -12 -2 0 14 12 26 19 19 2 -3 -1 -11 -7 -17z m-2112 2 c0 -5
-2 -10 -4 -10 -3 0 -8 5 -11 10 -3 6 -1 10 4 10 6 0 11 -4 11 -10z m145 -10
c10 -11 16 -20 13 -20 -3 0 -13 9 -23 20 -10 11 -16 20 -13 20 3 0 13 -9 23
-20z m185 -4 c0 -14 -3 -27 -7 -29 -5 -3 -8 8 -8 24 0 16 3 29 8 29 4 0 7 -11
7 -24z m3011 4 c24 -13 24 -25 -1 -60 -19 -26 -70 -40 -70 -18 0 10 43 88 48
88 2 0 12 -5 23 -10z m-3350 -17 c13 -16 12 -17 -3 -4 -17 13 -22 21 -14 21 2
0 10 -8 17 -17z m1809 -48 c13 -14 19 -25 13 -25 -15 0 -54 36 -46 44 8 8 6 9
33 -19z m1710 21 c0 -2 -7 -9 -15 -16 -13 -11 -14 -10 -9 4 5 14 24 23 24 12z
m-1530 -26 c-9 -6 -9 -9 1 -13 9 -3 10 -6 2 -6 -6 -1 -15 4 -18 9 -9 14 4 32
17 24 7 -4 6 -9 -2 -14z m-1150 -30 c-50 -45 -99 -74 -108 -66 -3 3 -3 8 -1
10 9 9 144 96 149 96 3 0 -15 -18 -40 -40z m2545 -35 c-14 -25 -30 -45 -35
-45 -15 0 -12 9 10 37 11 14 20 33 20 42 0 10 6 23 13 30 24 24 19 -18 -8 -64z
m-1935 44 c0 -6 -4 -7 -10 -4 -5 3 -10 11 -10 16 0 6 5 7 10 4 6 -3 10 -11 10
-16z m585 11 c3 -5 1 -10 -4 -10 -6 0 -11 5 -11 10 0 6 2 10 4 10 3 0 8 -4 11
-10z m-1767 -25 c-3 -3 -9 2 -12 12 -6 14 -5 15 5 6 7 -7 10 -15 7 -18z m1587
5 c-3 -5 -1 -10 6 -10 7 0 10 -3 6 -6 -9 -9 -28 6 -22 17 4 5 8 9 11 9 3 0 2
-4 -1 -10z m138 -15 c-10 -8 -13 -15 -7 -15 5 0 18 -6 29 -13 16 -12 13 -14
-28 -13 -25 1 -52 7 -59 15 -10 10 -10 12 0 7 6 -4 12 -2 12 3 0 6 -7 11 -16
11 -8 0 -13 3 -11 8 3 4 26 8 52 9 42 1 45 0 28 -12z m77 -10 c13 -14 21 -27
19 -30 -9 -8 -49 7 -43 17 3 5 0 15 -6 23 -21 25 5 16 30 -10z m-1975 5 c6 -9
-44 -40 -66 -40 -7 0 -2 11 11 25 24 26 45 32 55 15z m1810 -10 c3 -6 -1 -7
-9 -4 -18 7 -21 14 -7 14 6 0 13 -4 16 -10z m-1363 -74 c8 -11 -1 -36 -13 -36
-4 0 -6 7 -2 16 5 13 2 15 -15 10 -11 -4 -23 -2 -27 3 -4 7 1 8 12 4 17 -6 17
-5 0 14 -9 11 -14 23 -10 26 6 7 40 -16 55 -37z m-22 -123 c47 -14 98 -32 113
-40 16 -8 38 -13 50 -11 16 3 11 7 -23 17 -39 11 -42 14 -25 23 11 5 40 32 65
59 l45 49 60 -28 60 -29 -43 -13 c-37 -12 -41 -15 -25 -24 10 -6 54 -13 97
-16 56 -3 81 -9 84 -19 4 -12 -12 -13 -99 -8 -57 3 -119 11 -136 16 -18 5 -35
6 -38 1 -3 -4 34 -13 83 -19 48 -7 112 -15 142 -19 l54 -7 13 -85 c7 -47 16
-109 19 -137 4 -29 10 -53 14 -53 23 0 14 -137 -24 -330 -8 -41 -12 -77 -10
-79 2 -2 4 1 4 7 0 7 8 12 19 12 10 0 25 7 32 16 7 9 36 31 64 49 27 19 70 47
94 64 48 34 61 38 61 18 0 -37 -141 -161 -177 -155 -12 2 -19 -6 -24 -30 -4
-18 -27 -63 -51 -100 -25 -37 -53 -82 -62 -101 -30 -57 -28 -27 3 47 17 40 26
72 21 72 -5 0 -9 15 -8 33 0 17 -2 48 -6 67 -4 22 -3 28 2 16 23 -53 58 401
36 458 -6 15 -11 14 -48 -8 -53 -31 -180 -69 -211 -64 -17 4 -31 -2 -46 -18
-18 -20 -29 -23 -60 -18 -53 9 -82 -1 -120 -38 -31 -31 -37 -33 -108 -34 -73
-1 -96 -5 -260 -46 -41 -10 -85 -18 -98 -18 -43 0 -101 31 -133 72 -27 34 -31
44 -22 59 7 10 15 36 18 58 5 34 12 43 43 58 24 12 43 32 58 63 28 57 28 82 2
106 -28 26 -51 71 -40 79 6 3 26 -9 45 -26 20 -17 40 -28 45 -25 5 4 26 36 46
72 20 36 50 80 66 99 l29 33 113 -49 c61 -27 150 -61 197 -76z m58 110 c-9
-10 -13 -24 -11 -30 7 -18 -4 -16 -11 2 -3 8 2 21 10 30 21 21 31 19 12 -2z
m-99 -27 c8 -10 9 -16 1 -21 -13 -8 -30 3 -30 21 0 18 14 18 29 0z m151 -7 c0
-5 5 -7 11 -3 8 4 8 0 0 -15 -11 -20 -41 -41 -58 -41 -4 1 4 8 20 16 28 15 38
38 12 28 -11 -5 -13 -2 -9 10 7 18 24 22 24 5z m-76 -25 c3 -8 2 -12 -4 -9 -6
3 -10 10 -10 16 0 14 7 11 14 -7z m406 -26 c0 -6 -7 -7 -16 -4 -9 3 -23 6 -32
6 -14 0 -14 2 -3 9 16 10 51 3 51 -11z m523 -17 c19 -19 -2 -41 -37 -41 -39 0
-83 30 -71 50 9 14 92 7 108 -9z m532 -8 c-2 -10 -4 -22 -4 -28 -1 -5 -5 -4
-10 4 -10 15 -4 41 9 41 5 0 7 -8 5 -17z m1095 -13 c0 -5 -2 -10 -4 -10 -3 0
-8 5 -11 10 -3 6 -1 10 4 10 6 0 11 -4 11 -10z m30 -16 c0 -8 -4 -12 -10 -9
-5 3 -10 10 -10 16 0 5 5 9 10 9 6 0 10 -7 10 -16z m40 -52 c0 -27 -303 -373
-323 -369 -7 1 -11 -3 -10 -9 1 -6 -10 -22 -24 -35 -14 -13 -23 -18 -19 -11
17 30 -19 4 -157 -111 -80 -67 -173 -138 -204 -156 -32 -19 -92 -56 -133 -82
-126 -80 -207 -118 -267 -128 -70 -11 -80 -7 -24 10 41 12 69 34 58 45 -11 11
-200 -70 -225 -96 -13 -14 -53 -67 -89 -117 -65 -91 -90 -108 -79 -52 6 33 0
36 -26 12 -10 -9 13 44 52 119 38 74 70 139 70 144 0 5 -27 -40 -58 -101 -32
-60 -75 -136 -96 -168 -20 -31 -34 -62 -31 -67 3 -5 -3 -15 -12 -22 -10 -7
-19 -19 -21 -27 -5 -26 -162 -221 -162 -201 0 5 -14 -4 -31 -22 -18 -18 -26
-24 -18 -13 22 33 83 100 90 100 4 0 11 4 16 9 5 5 2 6 -6 1 -21 -12 -12 1 65
105 198 267 333 560 439 955 20 77 41 144 46 149 5 6 9 36 9 67 0 33 5 61 12
65 30 19 -30 -247 -111 -491 -22 -65 -39 -121 -37 -123 2 -2 28 58 56 132 51
130 61 148 75 126 3 -5 19 -10 36 -10 16 0 39 -6 52 -12 12 -7 23 -14 25 -15
2 0 -6 -32 -17 -71 -12 -38 -21 -74 -21 -80 0 -6 16 -16 35 -22 36 -12 79 -55
90 -90 4 -14 15 -20 36 -20 39 0 37 -12 -12 -51 -23 -18 -37 -35 -30 -37 22
-7 164 71 269 150 59 44 120 87 136 95 15 8 61 41 101 74 40 32 79 59 85 59
23 0 287 279 353 374 17 25 37 35 37 18z m-1670 -138 c-6 -45 -9 -92 -5 -103
7 -23 -3 -86 -13 -77 -3 3 -13 -12 -23 -33 -31 -69 -67 -73 -83 -8 -4 17 -11
25 -18 21 -6 -4 -9 -3 -6 2 2 5 12 27 21 49 30 71 52 109 65 113 26 8 4 -60
-37 -111 -8 -9 -12 -19 -9 -22 9 -9 65 70 70 100 3 17 10 50 16 75 7 25 15 59
18 75 13 61 16 0 4 -81z m1743 -36 c-184 -258 -487 -552 -794 -770 -208 -148
-526 -312 -745 -384 -79 -26 -146 -45 -150 -41 -3 3 2 16 11 29 11 15 15 17
12 6 -4 -10 -4 -18 0 -18 3 0 60 18 127 41 126 42 308 127 301 140 -7 10 25
20 37 12 7 -3 8 -1 4 5 -4 6 6 18 24 27 93 48 241 143 280 179 72 68 111 97
121 90 6 -3 27 7 47 22 28 21 33 23 18 6 -11 -12 -16 -22 -12 -22 38 0 446
399 594 580 80 99 168 190 183 190 4 0 -21 -42 -58 -92z m142 34 c-3 -3 -11 0
-18 7 -9 10 -8 11 6 5 10 -3 15 -9 12 -12z m-1846 -104 c-1 -62 -11 -161 -21
-220 -11 -59 -18 -112 -16 -119 2 -6 16 36 32 93 16 56 35 115 42 129 17 34
86 63 131 54 28 -5 33 -10 33 -34 0 -16 -9 -60 -21 -97 -25 -82 -129 -344
-169 -429 -38 -80 -98 -145 -133 -145 -18 0 -34 -11 -54 -36 -15 -20 -35 -44
-44 -54 -8 -9 -30 -42 -48 -73 -33 -58 -45 -71 -35 -39 5 14 3 14 -10 -2 -18
-23 -21 -40 -5 -30 7 4 6 -2 -2 -17 -21 -41 -52 -78 -59 -74 -10 6 -35 -24
-26 -32 3 -3 6 -1 6 5 0 7 5 12 12 12 6 0 3 -8 -7 -20 -10 -11 -21 -18 -25
-15 -3 2 -29 -18 -55 -45 -27 -28 -43 -50 -36 -50 9 0 11 -6 6 -17 -4 -10 -8
-23 -8 -30 0 -6 -22 -35 -49 -65 -49 -53 -53 -51 -14 7 l20 30 -21 -18 c-12
-11 -27 -16 -33 -12 -6 4 -18 -1 -25 -11 -19 -25 -19 -40 0 -24 17 14 21 0 4
-17 -7 -7 -9 -18 -6 -27 5 -12 13 -13 60 -2 29 7 60 16 68 20 8 4 6 1 -3 -7
-10 -8 -15 -17 -11 -21 4 -4 -1 -4 -11 0 -13 5 -17 4 -12 -4 5 -8 1 -10 -11
-5 -10 3 -15 2 -11 -2 5 -5 -4 -16 -20 -25 -30 -19 -49 -16 -32 5 8 9 7 14 -4
18 -10 4 -27 -10 -50 -41 -38 -52 -39 -63 -2 -38 29 19 61 22 50 4 -4 -6 1
-17 11 -24 15 -11 6 -13 -57 -11 -56 1 -74 5 -71 14 3 7 8 11 12 9 8 -5 5 44
-4 67 -6 15 -10 15 -24 5 -14 -12 -15 -11 -1 7 8 11 34 44 58 73 l44 53 -35
-20 c-51 -29 -139 -93 -159 -116 -21 -24 -23 -46 -5 -39 8 3 19 -1 25 -8 8
-10 4 -13 -19 -13 -35 0 -59 38 -59 91 0 29 -3 33 -27 31 -18 -1 -28 3 -31 15
-2 12 5 17 30 20 31 3 33 6 40 48 4 25 9 54 11 65 3 17 -4 22 -42 31 l-46 12
45 2 c42 2 40 3 -31 16 -106 19 -306 86 -415 139 -108 52 -249 145 -319 210
-47 43 -45 43 30 -13 168 -125 300 -194 485 -256 104 -34 330 -79 330 -65 0 4
-7 14 -15 23 -17 17 -20 30 -5 21 6 -3 10 4 10 17 l1 23 14 -25 c10 -19 10
-27 2 -32 -8 -5 -6 -8 6 -8 10 0 17 8 17 20 0 11 4 19 8 17 4 -1 20 11 35 27
15 16 27 25 27 20 0 -4 5 -3 12 4 7 7 25 12 40 12 33 0 157 108 289 251 97
106 104 117 114 177 6 35 4 42 -9 42 -10 0 -16 8 -16 21 0 18 -4 20 -25 15
-15 -4 -25 -2 -25 4 0 20 83 101 99 97 19 -4 91 29 91 42 0 5 -7 11 -15 15 -8
3 -15 13 -15 22 0 27 70 114 91 114 23 0 24 -22 4 -80 -17 -49 -19 -63 -4 -37
41 70 99 312 99 414 0 40 7 73 16 73 3 0 4 -51 3 -112z m-1699 68 c0 -33 -17
-76 -30 -76 -14 0 -13 43 2 75 14 32 28 32 28 1z m1284 -28 c11 -41 7 -49 -15
-27 -11 11 -18 27 -15 35 8 21 23 17 30 -8z m2362 -1 l26 -23 -33 -35 c-60
-61 -181 -204 -187 -219 -9 -25 -74 -100 -82 -95 -10 6 -80 -60 -80 -77 0 -8
-38 -53 -85 -100 -47 -47 -85 -88 -85 -91 0 -4 8 -4 18 0 26 9 -26 -44 -163
-167 -151 -135 -308 -253 -467 -351 -144 -89 -148 -91 -148 -86 0 2 35 25 78
52 73 47 236 165 257 188 6 6 -3 2 -20 -8 -16 -11 -75 -48 -130 -82 -128 -81
-380 -209 -514 -263 -57 -22 -105 -39 -107 -37 -2 2 29 16 68 32 206 79 450
212 699 380 148 99 156 104 143 84 -7 -12 -5 -12 9 0 9 7 14 18 10 24 -4 6 0
8 8 5 8 -3 23 4 34 15 11 11 13 16 5 12 -21 -12 -13 -4 55 51 33 26 62 51 63
56 2 4 9 8 16 8 18 0 89 77 78 84 -6 4 -33 -13 -61 -36 -217 -186 -314 -263
-361 -290 -30 -17 -64 -39 -75 -49 -45 -40 -487 -279 -516 -279 -8 0 -8 4 1
15 10 12 1 11 -44 -5 -31 -10 -56 -17 -56 -15 0 2 -30 -9 -67 -24 -38 -15 -99
-38 -138 -51 -38 -12 -87 -31 -107 -42 -21 -10 -79 -29 -130 -43 -50 -13 -94
-29 -97 -34 -4 -5 -19 -13 -34 -16 -21 -6 -26 -4 -22 7 4 10 0 14 -14 13 -11
-1 -24 -4 -27 -8 -10 -10 -44 -9 -44 1 0 10 62 55 148 106 35 21 61 40 58 43
-15 15 -80 -12 -124 -52 -28 -25 -52 -45 -54 -45 -10 0 -88 -80 -88 -89 0 -6
-20 -22 -44 -36 -23 -14 -51 -34 -61 -45 -18 -20 -17 -20 56 -21 l74 -1 -50
-12 c-46 -12 -48 -13 -20 -17 22 -4 15 -6 -27 -9 -31 -3 -54 -2 -51 3 2 4 -1
7 -6 7 -6 0 -11 -12 -11 -26 0 -15 -4 -23 -11 -19 -6 4 -8 13 -5 21 3 8 1 14
-4 14 -6 0 -10 -4 -10 -10 0 -5 -5 -10 -11 -10 -5 0 -8 4 -5 9 9 13 -19 21
-74 21 -27 0 -52 4 -55 10 -4 6 10 8 37 5 24 -3 66 -2 93 2 l50 8 1 40 c1 22
-4 44 -10 48 -7 6 -4 6 8 3 14 -5 17 -2 12 9 -3 9 -2 13 4 10 6 -3 10 -2 10 3
0 6 9 8 20 5 11 -3 17 -9 14 -14 -3 -5 -10 -7 -15 -3 -6 3 -5 -3 2 -14 12 -19
23 -23 19 -7 0 3 16 19 37 34 21 16 49 41 63 57 19 21 14 19 -23 -11 -26 -21
-45 -32 -42 -24 10 23 170 140 180 131 3 -3 3 1 -1 11 -5 15 3 22 27 19 4 -1
15 9 25 21 l19 22 -22 -19 c-34 -28 -28 -4 7 29 17 16 30 25 30 20 0 -5 14 4
32 21 17 16 27 22 23 14 -5 -8 3 -4 18 9 l26 23 3 -31 3 -31 30 16 c17 9 44
18 60 21 17 2 63 13 104 24 40 11 75 18 78 16 4 -5 -153 -61 -220 -79 -36 -9
-57 -23 -82 -53 -18 -22 -49 -57 -68 -77 -19 -21 -32 -38 -28 -38 25 0 216 59
329 101 221 82 580 271 737 388 28 20 68 48 90 61 54 33 268 205 374 300 110
99 298 291 392 400 110 129 162 180 180 180 9 0 19 7 23 15 8 21 20 19 52 -8z
m55 -12 c5 4 9 1 9 -4 0 -6 -5 -11 -11 -11 -15 0 -39 26 -32 34 4 4 11 0 16
-9 4 -8 12 -13 18 -10z m-519 -27 c-24 -24 -11 -31 15 -7 15 13 0 -7 -34 -46
-68 -77 -225 -242 -199 -209 9 11 13 23 10 26 -3 4 27 42 67 85 40 43 85 91
99 108 l25 30 -27 -24 c-16 -14 -28 -21 -28 -16 0 14 42 55 57 55 7 0 13 5 13
12 0 6 3 8 7 5 4 -4 1 -13 -5 -19z m231 -46 c-16 -21 -87 -101 -158 -176 -119
-126 -178 -176 -192 -162 -3 3 34 48 83 99 49 52 118 129 154 170 36 42 69 76
75 76 5 1 4 -4 -3 -11 -7 -7 -12 -16 -12 -20 0 -4 16 10 36 32 45 50 55 45 17
-8z m258 11 c-5 -10 -24 -31 -41 -48 -18 -16 -65 -70 -105 -120 -83 -102 -187
-215 -198 -215 -7 0 66 89 188 229 22 26 60 74 85 108 26 36 53 63 63 63 14 0
16 -4 8 -17z m-567 -35 c-14 -24 -89 -100 -119 -121 -16 -11 2 13 40 55 64 69
98 98 79 66z m-1998 -7 c-15 -23 -178 -86 -253 -96 -82 -12 -36 15 105 62 131
43 157 49 148 34z m-1161 -49 c-3 -3 -11 0 -18 7 -9 10 -8 11 6 5 10 -3 15 -9
12 -12z m575 -82 c0 -5 -16 -10 -35 -10 -19 0 -35 5 -35 10 0 6 16 10 35 10
19 0 35 -4 35 -10z m-295 -66 c115 -31 212 -35 544 -23 163 6 206 5 217 -5 11
-11 3 -15 -44 -25 -184 -36 -415 -38 -608 -6 -105 17 -126 23 -118 36 3 5 -1
9 -8 9 -13 1 -97 38 -88 39 3 1 50 -11 105 -25z m2655 -69 c-24 -25 -46 -45
-49 -45 -3 0 15 20 39 45 24 25 46 45 49 45 3 0 -15 -20 -39 -45z m-1754 -17
c-4 -17 -23 -30 -73 -51 -97 -40 -102 -19 -6 35 43 25 80 43 82 42 2 -2 1 -13
-3 -26z m2323 -79 c-41 -78 -227 -296 -272 -320 -16 -9 -17 -8 -8 9 6 11 21
29 33 39 31 25 67 69 48 58 -8 -5 -19 -10 -25 -11 -5 -1 -19 -5 -30 -9 -11 -4
43 54 120 128 77 74 141 133 143 132 2 -2 -2 -14 -9 -26z m-2348 -85 c-8 -33
-18 -54 -26 -54 -33 0 -25 72 13 113 23 26 27 6 13 -59z m1519 51 c0 -8 -263
-191 -305 -212 -22 -12 -70 -37 -107 -57 -38 -21 -73 -34 -79 -30 -8 4 -9 3
-5 -4 7 -11 -5 -16 -31 -13 -6 1 -51 -14 -98 -33 -48 -19 -85 -31 -83 -25 3 8
130 67 355 163 67 29 190 102 278 165 75 53 75 53 75 46z m85 -35 c-9 -14
-171 -134 -270 -200 -44 -29 -92 -64 -107 -77 -16 -15 -31 -22 -39 -18 -7 5
-10 4 -5 -3 3 -6 -8 -20 -26 -32 l-33 -22 30 27 c23 21 25 26 10 21 -32 -9 43
51 93 75 23 12 42 26 42 32 0 5 3 8 6 4 6 -6 156 93 249 164 53 41 60 45 50
29z m-1820 -50 c29 -11 53 -59 34 -70 -17 -11 -149 -31 -160 -25 -24 15 3 70
46 93 25 14 47 15 80 2z m1859 -102 l-19 -22 27 17 c34 21 44 22 27 1 -21 -26
-118 -88 -204 -133 -44 -22 -69 -33 -55 -23 14 9 41 31 60 48 36 32 172 134
179 134 2 0 -4 -10 -15 -22z m-1810 -35 c3 -10 5 -35 4 -56 -1 -27 5 -43 20
-58 12 -11 22 -17 22 -14 0 3 4 3 10 0 11 -7 -40 -114 -63 -134 -18 -14 -53 2
-158 71 -35 23 -50 100 -34 175 6 27 20 30 117 32 65 1 77 -2 82 -16z m2211
-65 c7 -6 -81 -88 -95 -88 -5 0 -10 4 -10 10 0 5 -7 7 -15 4 -27 -11 -16 7 28
46 38 34 75 45 92 28z m-890 -28 c-8 -13 -146 -83 -151 -77 -4 3 142 86 154
87 2 0 0 -5 -3 -10z m138 -109 c-22 -19 -175 -112 -228 -138 -75 -38 -246
-105 -252 -100 -2 3 21 14 50 26 51 21 110 53 332 179 49 28 93 48 98 45 5 -3
5 -8 0 -12z m-1407 -88 c-38 -35 -79 -69 -90 -75 -12 -5 17 26 64 70 47 44 87
78 90 75 3 -3 -26 -34 -64 -70z m584 54 c0 -2 -17 -19 -37 -38 -30 -28 -34
-29 -22 -9 9 14 19 31 23 38 6 10 36 18 36 9z m414 -67 c-15 -15 -225 -92
-232 -85 -3 3 3 8 13 11 11 3 65 23 120 44 114 44 112 43 99 30z m-608 -111
c-14 -29 -23 -56 -20 -59 3 -3 22 13 41 35 34 38 34 38 -6 -21 -66 -96 -147
-146 -96 -58 36 61 11 52 -32 -12 -18 -27 -46 -68 -62 -92 -16 -24 -32 -39
-35 -34 -3 5 6 22 20 38 14 16 29 36 32 45 9 22 174 221 179 216 2 -2 -8 -28
-21 -58z m1364 -13 c0 -2 -7 -7 -16 -10 -8 -3 -12 -2 -9 4 6 10 25 14 25 6z
m-1460 -40 c0 -2 -8 -10 -17 -17 -16 -13 -17 -12 -4 4 13 16 21 21 21 13z
m1280 -35 c0 -13 -50 -51 -67 -51 -8 0 -29 -11 -45 -25 -45 -38 -46 -23 -1 20
34 33 35 35 8 19 -26 -15 -28 -15 -15 -1 15 16 82 45 108 46 6 1 12 -3 12 -8z
m-2719 -119 c15 -13 33 -24 40 -26 26 -4 59 -27 56 -39 -1 -7 6 -11 15 -11 10
1 16 -3 15 -8 -1 -6 28 -29 65 -52 36 -22 70 -45 75 -50 8 -9 -83 40 -105 57
-7 5 -15 8 -18 5 -7 -8 136 -90 246 -141 110 -52 196 -80 311 -102 106 -20
148 -19 214 4 65 23 72 18 13 -9 -28 -13 -65 -20 -108 -20 -73 0 -276 40 -356
70 -129 48 -370 183 -359 201 3 4 1 10 -5 14 -6 4 -8 11 -5 16 4 5 1 10 -4 10
-6 1 -17 2 -23 3 -7 1 -12 8 -10 15 1 7 -3 11 -10 8 -7 -2 -11 -11 -10 -18 2
-8 1 -12 -1 -9 -3 3 -5 8 -4 11 1 4 -6 15 -15 25 -9 11 -17 24 -17 29 -1 6 -8
10 -15 10 -20 0 -53 32 -53 50 0 16 7 12 68 -43z m2414 48 c-3 -5 -12 -10 -18
-10 -7 0 -6 4 3 10 19 12 23 12 15 0z m-1475 -55 c0 -8 -4 -15 -10 -15 -5 0
-10 7 -10 15 0 8 5 15 10 15 6 0 10 -7 10 -15z m-949 -32 c13 -16 12 -17 -3
-4 -10 7 -18 15 -18 17 0 8 8 3 21 -13z m1984 -18 c-16 -8 -37 -14 -45 -14 -8
0 1 7 20 14 46 18 64 17 25 0z m235 5 c-8 -5 -19 -10 -25 -10 -5 0 -3 5 5 10
8 5 20 10 25 10 6 0 3 -5 -5 -10z m-315 -30 c-11 -5 -27 -9 -35 -9 -9 0 -8 4
5 9 11 5 27 9 35 9 9 0 8 -4 -5 -9z m245 0 c-8 -5 -19 -10 -25 -10 -5 0 -3 5
5 10 8 5 20 10 25 10 6 0 3 -5 -5 -10z m-193 -6 c-3 -3 -12 -4 -19 -1 -8 3 -5
6 6 6 11 1 17 -2 13 -5z m1413 3 c0 -2 -12 -14 -27 -28 l-28 -24 24 28 c23 25
31 32 31 24z m-3279 -24 c13 -16 12 -17 -3 -4 -10 7 -18 15 -18 17 0 8 8 3 21
-13z m1756 11 c-3 -3 -12 -4 -19 -1 -8 3 -5 6 6 6 11 1 17 -2 13 -5z m-1852
-24 c10 -11 16 -20 13 -20 -3 0 -13 9 -23 20 -10 11 -16 20 -13 20 3 0 13 -9
23 -20z m1892 14 c-3 -3 -12 -4 -19 -1 -8 3 -5 6 6 6 11 1 17 -2 13 -5z m-40
-10 c-3 -3 -12 -4 -19 -1 -8 3 -5 6 6 6 11 1 17 -2 13 -5z m222 2 c-2 -1 -19
-8 -36 -14 -37 -12 -45 -6 -10 8 22 9 54 13 46 6z m-689 -32 c0 -2 -7 -4 -15
-4 -8 0 -15 4 -15 10 0 5 7 7 15 4 8 -4 15 -8 15 -10z m570 -9 c-19 -7 -42
-13 -50 -13 -8 0 1 6 20 13 19 7 42 13 50 13 8 0 -1 -6 -20 -13z m-1828 -77
c-1 -5 2 -7 7 -3 6 3 29 -6 52 -21 45 -28 110 -44 75 -19 -10 8 -24 11 -32 8
-9 -3 -14 0 -12 8 2 9 -4 13 -16 11 -12 -2 -16 1 -10 9 5 8 3 10 -6 4 -9 -5
-11 -4 -6 3 7 11 -6 17 -27 13 -5 -1 -6 3 -3 8 4 5 -2 14 -11 20 -10 6 -14 11
-10 11 4 0 40 -22 80 -49 40 -26 87 -56 105 -65 19 -10 30 -21 26 -28 -4 -7
-3 -8 4 -4 6 4 28 -2 49 -13 21 -11 34 -20 30 -21 -4 0 -21 7 -37 15 -17 9
-30 13 -30 10 0 -3 48 -28 108 -57 60 -30 99 -54 90 -56 -35 -7 -144 30 -232
78 -103 55 -261 162 -255 171 2 4 -5 17 -16 30 -11 13 2 6 30 -15 28 -21 49
-42 47 -48z m1575 76 c-3 -3 -12 -4 -19 -1 -8 3 -5 6 6 6 11 1 17 -2 13 -5z
m-606 -32 c-8 -15 -7 -19 2 -18 6 0 12 -3 12 -9 0 -5 -8 -9 -17 -8 -12 2 -18
-4 -18 -17 0 -11 -9 -24 -19 -30 -26 -13 -84 -13 -76 0 4 6 15 8 25 5 30 -10
57 28 51 73 -1 6 7 12 19 12 11 0 20 5 20 12 0 6 3 9 6 6 3 -4 1 -15 -5 -26z
m544 18 c-16 -4 -46 -8 -65 -7 l-35 0 40 7 c22 4 51 7 65 7 22 1 22 0 -5 -7z
m415 -5 c0 -7 -141 -48 -147 -42 -3 3 24 15 58 25 67 21 89 25 89 17z m-165
-25 c-52 -24 -350 -92 -378 -87 -19 3 -17 5 9 12 18 4 37 17 42 29 9 17 11 18
11 4 1 -10 9 -18 19 -18 13 0 14 2 3 9 -13 8 38 18 109 20 14 1 63 12 110 25
102 28 129 31 75 6z m295 15 c0 -17 -189 -85 -234 -85 -21 1 -21 1 -1 13 22
13 202 75 223 76 6 1 12 -1 12 -4z m-540 -25 c-20 -13 -43 -13 -35 0 3 6 16
10 28 10 18 0 19 -2 7 -10z m129 6 c-2 -2 -17 -6 -34 -10 -22 -5 -26 -4 -15 4
14 9 59 15 49 6z m-803 -31 c19 -14 19 -14 -3 -15 -30 0 -54 10 -47 21 8 13
28 11 50 -6z m519 6 c-6 -6 -39 -12 -75 -16 -78 -7 -73 5 7 15 32 4 62 8 68 9
6 1 6 -2 0 -8z m-828 -7 c-3 -3 -12 -4 -19 -1 -8 3 -5 6 6 6 11 1 17 -2 13 -5z
m519 -42 c-21 -2 -42 0 -47 5 -4 4 13 6 39 3 l47 -5 -39 -3z m281 -28 c-3 -3
-12 -4 -19 -1 -8 3 -5 6 6 6 11 1 17 -2 13 -5z m114 -10 c-34 -15 -61 -13 -61
6 0 5 21 10 48 9 l47 -1 -34 -14z m-597 -2 c3 -5 -1 -9 -9 -9 -8 0 -15 4 -15
9 0 4 4 8 9 8 6 0 12 -4 15 -8z m83 -15 c13 5 13 3 4 -14 -10 -20 -40 -38 -48
-30 -2 2 3 10 11 16 8 7 14 18 12 24 -1 7 -1 9 1 5 2 -4 11 -4 20 -1z m428 3
c-3 -5 -14 -10 -23 -9 -14 0 -13 2 3 9 27 11 27 11 20 0z m985 -30 c-19 -11
-39 -19 -45 -19 -5 0 6 8 25 19 19 11 40 19 45 19 6 0 -6 -8 -25 -19z m-2130
-56 c0 -2 -13 2 -30 11 -16 9 -30 18 -30 21 0 2 14 -2 30 -11 17 -9 30 -18 30
-21z m911 5 c-13 -10 -33 -19 -45 -19 -16 0 -13 4 14 17 19 10 37 21 39 26 1
4 6 5 10 2 3 -4 -5 -15 -18 -26z m-524 15 c-3 -3 -12 -4 -19 -1 -8 3 -5 6 6 6
11 1 17 -2 13 -5z m46 -11 c-7 -2 -19 -2 -25 0 -7 3 -2 5 12 5 14 0 19 -2 13
-5z m1577 -8 c-14 -8 -29 -14 -35 -14 -5 0 1 6 15 14 14 8 30 14 35 14 6 0 -1
-6 -15 -14z m-1415 -15 c147 -25 369 -35 450 -22 33 5 65 7 70 3 6 -3 -8 -9
-30 -12 -36 -5 -33 -6 35 -14 l75 -9 -65 -12 c-59 -10 -61 -12 -25 -14 89 -4
-79 -29 -195 -28 -78 0 -101 3 -73 7 54 9 63 18 27 26 -16 3 -69 17 -119 30
-49 13 -135 31 -190 40 -55 10 -102 19 -104 21 -8 7 23 4 144 -16z m238 -7
c-7 -2 -19 -2 -25 0 -7 3 -2 5 12 5 14 0 19 -2 13 -5z m1117 -3 c-8 -5 -19
-10 -25 -10 -5 0 -3 5 5 10 8 5 20 10 25 10 6 0 3 -5 -5 -10z m-50 -19 c-8 -5
-26 -11 -40 -15 -21 -5 -20 -3 5 9 32 15 60 20 35 6z m-610 -31 c-14 -4 -36
-8 -50 -8 -23 -1 -23 0 -5 8 11 5 34 8 50 8 29 0 29 0 5 -8z m-860 -15 c7 -8
9 -15 6 -15 -4 0 -14 7 -22 15 -9 8 -11 15 -6 15 5 0 15 -7 22 -15z m1330 -5
c-8 -5 -22 -9 -30 -9 -10 0 -8 3 5 9 27 12 43 12 25 0z m-965 -49 c6 -11 -33
-41 -55 -41 -9 0 -5 6 10 13 14 8 24 19 23 25 -3 14 13 16 22 3z m882 -7 c-3
-3 -12 -4 -19 -1 -8 3 -5 6 6 6 11 1 17 -2 13 -5z m-62 -15 c-16 -5 -61 -13
-100 -19 -38 -5 -80 -13 -92 -16 -13 -4 -23 -2 -23 3 0 14 124 40 190 40 47 0
51 -1 25 -8z m-1235 -59 c18 -12 2 -12 -25 0 -13 6 -15 9 -5 9 8 0 22 -4 30
-9z"/>
<path d="M2300 7401 c0 -10 73 -68 79 -63 2 2 7 -2 12 -9 14 -23 23 0 11 26
-9 20 -17 24 -36 19 -18 -4 -28 0 -38 15 -13 22 -28 28 -28 12z"/>
<path d="M2232 6720 c0 -14 2 -19 5 -12 2 6 2 18 0 25 -3 6 -5 1 -5 -13z"/>
<path d="M2261 6364 c0 -11 3 -14 6 -6 3 7 2 16 -1 19 -3 4 -6 -2 -5 -13z"/>
<path d="M2272 6320 c0 -14 2 -19 5 -12 2 6 2 18 0 25 -3 6 -5 1 -5 -13z"/>
<path d="M4110 6986 c0 -2 8 -10 18 -17 15 -13 16 -12 3 4 -13 16 -21 21 -21
13z"/>
<path d="M4752 5990 c-10 -27 -10 -30 2 -21 16 14 20 6 35 -72 7 -42 6 -50 -9
-59 -15 -9 -16 -17 -8 -37 5 -15 5 -27 0 -29 -5 -1 -3 -31 4 -70 20 -108 44
-400 44 -533 0 -67 2 -120 4 -118 14 14 23 259 15 374 -10 136 -20 331 -19
377 0 36 -29 166 -45 197 l-12 24 -11 -33z m58 -190 c0 -5 -5 -10 -11 -10 -5
0 -7 5 -4 10 3 6 8 10 11 10 2 0 4 -4 4 -10z m9 -69 c-1 -13 -2 -12 -6 2 -2 9
-11 17 -19 17 -15 0 -19 12 -7 24 10 9 33 -23 32 -43z"/>
<path d="M4932 5920 c0 -14 2 -19 5 -12 2 6 2 18 0 25 -3 6 -5 1 -5 -13z"/>
<path d="M4942 5865 c0 -16 2 -22 5 -12 2 9 2 23 0 30 -3 6 -5 -1 -5 -18z"/>
<path d="M5095 5840 c2 -14 12 -72 21 -130 9 -58 21 -114 26 -125 12 -28 2
204 -11 235 -8 22 -10 22 -11 5 -1 -16 -4 -14 -15 10 -13 27 -14 27 -10 5z"/>
<path d="M5170 5314 c0 -14 -4 -23 -10 -19 -7 4 -10 -44 -9 -137 0 -81 4 -132
8 -118 9 30 24 300 16 300 -3 0 -5 -12 -5 -26z"/>
<path d="M4862 4665 c0 -16 2 -22 5 -12 2 9 2 23 0 30 -3 6 -5 -1 -5 -18z"/>
<path d="M4677 4213 c-21 -68 -42 -123 -47 -123 -5 0 -10 15 -12 33 -3 29 -6
24 -35 -50 -34 -85 -43 -127 -18 -83 19 34 19 7 -1 -60 -15 -51 -39 -98 -57
-111 -7 -5 -104 -257 -158 -408 -15 -43 -16 -51 -4 -41 12 10 11 3 -4 -32 -21
-49 -14 -86 9 -44 7 14 16 23 21 21 17 -11 212 399 224 471 11 67 57 197 65
184 4 -7 14 17 24 55 9 37 14 70 11 73 -3 3 -5 0 -5 -6 0 -7 -4 -12 -9 -12 -5
0 2 43 16 96 13 53 23 111 21 128 -2 24 -12 2 -41 -91z"/>
<path d="M5026 4143 c-6 -14 -9 -15 -16 -4 -5 10 -15 -9 -31 -58 -13 -39 -26
-66 -30 -60 -3 6 -18 -22 -33 -61 -29 -80 -30 -84 -16 -75 6 3 10 4 10 2 0
-15 -51 -149 -68 -177 -12 -20 -48 -101 -81 -180 -32 -80 -75 -180 -95 -224
-38 -83 -43 -102 -24 -90 7 4 8 3 4 -5 -4 -6 -11 -9 -16 -6 -9 6 -23 -25 -15
-33 3 -3 5 1 5 8 0 7 3 11 6 8 3 -3 -2 -23 -11 -43 -8 -21 -14 -40 -12 -42 6
-5 51 64 81 122 14 28 25 43 26 35 0 -13 1 -13 10 0 13 21 12 6 -1 -24 -7 -14
-16 -23 -22 -19 -6 3 -7 1 -3 -5 4 -6 -20 -65 -53 -132 -34 -66 -59 -120 -57
-120 2 0 23 35 47 78 23 42 52 91 65 107 29 39 152 284 199 399 27 67 36 98
32 124 -4 22 2 57 19 103 14 38 22 74 19 79 -10 16 18 7 31 -9 8 -11 15 1 27
52 18 70 23 142 9 133 -4 -3 -19 -39 -32 -80 -26 -85 -40 -97 -16 -14 27 91
57 220 53 225 -3 2 -8 -4 -11 -14z"/>
<path d="M4340 3039 l25 -20 -34 3 c-19 2 -36 -2 -38 -8 -2 -7 8 -9 27 -6 19
3 30 0 30 -8 0 -7 -8 -10 -20 -7 -12 3 -18 1 -14 -5 5 -7 -2 -9 -20 -4 -22 5
-26 3 -26 -14 0 -17 3 -18 26 -10 41 16 68 32 86 50 15 16 14 18 -18 34 -46
21 -54 20 -24 -5z"/>
<path d="M4045 2939 c-4 -5 7 -17 24 -27 17 -9 31 -23 31 -29 0 -7 5 -13 10
-13 6 0 9 19 9 43 -1 38 -2 39 -8 12 l-6 -30 -28 27 c-14 15 -29 22 -32 17z"/>
<path d="M4145 2929 c-4 -6 -5 -12 -2 -15 2 -3 7 2 10 11 7 17 1 20 -8 4z"/>
<path d="M3906 2874 c-10 -14 -16 -30 -14 -35 2 -6 11 6 21 25 20 42 16 47 -7
10z"/>
<path d="M3964 2864 c-9 -18 -22 -38 -30 -45 -8 -6 -14 -18 -14 -25 0 -8 -6
-14 -12 -14 -7 -1 5 -7 26 -15 41 -14 61 -10 86 20 11 14 10 15 -12 6 -14 -5
-29 -7 -32 -4 -3 3 -12 0 -21 -7 -9 -7 -15 -8 -15 -2 0 6 12 20 26 31 22 17
25 26 20 53 -6 30 -5 30 12 15 25 -23 52 -22 52 2 0 15 -7 19 -35 19 -30 0
-37 -5 -51 -34z"/>
<path d="M3916 2840 c-15 -27 -25 -50 -23 -50 8 0 59 91 54 96 -2 2 -16 -18
-31 -46z"/>
<path d="M4147 2831 c-9 -16 -17 -35 -17 -43 0 -8 -13 -35 -29 -61 -28 -43
-29 -50 -23 -109 l7 -63 28 58 c16 31 35 57 42 57 8 0 26 21 42 48 15 26 38
62 51 80 31 42 18 62 -42 62 -35 0 -44 -4 -59 -29z"/>
<path d="M4035 2785 c-29 -30 -60 -55 -69 -55 -9 0 -16 -4 -16 -10 0 -9 6 -11
43 -14 6 -1 15 -5 18 -9 5 -7 59 67 88 121 21 40 -8 25 -64 -33z"/>
<path d="M4000 2593 c0 -5 7 -17 15 -27 15 -20 20 -10 9 18 -6 16 -24 22 -24
9z"/>
<path d="M4243 2525 c-32 -42 -34 -45 -70 -89 -24 -30 -30 -43 -22 -53 8 -9 5
-23 -12 -50 -14 -23 -17 -33 -8 -26 9 7 24 31 34 53 10 22 22 40 27 40 4 0 8
5 8 11 0 6 16 33 36 60 19 27 34 57 32 66 -3 14 -7 12 -25 -12z"/>
<path d="M4008 2489 c-3 -9 -61 -85 -129 -170 -131 -165 -575 -621 -717 -736
-258 -210 -670 -447 -968 -557 -63 -24 -111 -46 -107 -51 5 -4 3 -5 -4 -1 -16
9 -134 -25 -127 -36 3 -5 -6 -6 -22 -2 -21 5 -25 4 -19 -6 5 -9 4 -11 -4 -6
-6 4 -26 4 -44 0 l-32 -8 39 -11 c33 -10 54 -8 135 12 53 13 102 21 109 18 7
-2 22 -1 35 4 39 15 167 50 167 45 0 -5 -59 -30 -140 -59 -132 -48 -196 -75
-160 -69 93 17 581 205 548 212 -9 2 -36 -3 -60 -11 -24 -8 -46 -13 -51 -10
-8 5 34 42 81 69 32 18 32 19 10 24 -19 5 -7 14 67 55 94 51 176 103 362 232
202 140 563 446 563 477 0 17 209 220 217 212 4 -3 -7 -21 -23 -39 -17 -17
-36 -41 -44 -52 -19 -28 91 92 125 135 23 31 22 30 -9 -4 -41 -44 -48 -39 -12
8 13 17 26 42 31 54 4 13 38 54 75 92 74 74 124 149 118 177 -3 16 -4 16 -10
2z"/>
<path d="M3980 2093 c-56 -65 -139 -156 -184 -203 -145 -151 -215 -229 -166
-185 123 110 240 230 314 320 177 216 195 250 36 68z"/>
<path d="M1770 900 c-20 -6 -21 -8 -5 -8 11 0 31 4 45 8 20 6 21 8 5 8 -11 0
-31 -4 -45 -8z"/>
<path d="M1708 883 c6 -2 18 -2 25 0 6 3 1 5 -13 5 -14 0 -19 -2 -12 -5z"/>
<path d="M4490 6230 c-9 -6 -10 -10 -3 -10 6 0 15 5 18 10 8 12 4 12 -15 0z"/>
<path d="M4389 6193 c-13 -15 -12 -15 9 -4 23 12 28 21 13 21 -5 0 -15 -7 -22
-17z"/>
<path d="M4565 6141 c-9 -18 -19 -30 -24 -27 -4 3 -17 -27 -28 -65 -11 -38
-19 -68 -17 -66 10 10 93 181 90 185 -3 2 -12 -10 -21 -27z"/>
<path d="M4359 6148 c0 -2 -2 -16 -4 -33 -2 -16 -7 -41 -10 -55 -4 -19 -3 -21
4 -9 12 20 26 99 17 99 -3 0 -6 -1 -7 -2z"/>
<path d="M4394 6079 c-3 -6 -7 -41 -8 -78 -1 -45 -7 -74 -18 -91 l-18 -24 -6
33 c-7 31 -7 32 -25 14 -19 -19 -36 -113 -20 -113 5 0 11 7 15 15 3 8 14 15
24 15 33 0 102 217 74 234 -6 3 -14 1 -18 -5z"/>
<path d="M4474 5958 c-4 -7 -15 -24 -23 -38 -10 -15 -11 -21 -3 -16 13 7 46
66 38 66 -3 0 -8 -6 -12 -12z"/>
<path d="M4466 5843 c-6 -14 -5 -15 5 -6 7 7 10 15 7 18 -3 3 -9 -2 -12 -12z"/>
<path d="M4257 5733 c-11 -11 -8 -20 8 -20 8 0 15 6 15 14 0 14 -12 17 -23 6z"/>
<path d="M4207 5607 c3 -4 -3 -18 -13 -30 -10 -12 -4 -9 14 7 17 17 32 30 32
31 0 0 -9 1 -19 1 -11 0 -17 -4 -14 -9z"/>
<path d="M862 5075 c0 -16 2 -22 5 -12 2 9 2 23 0 30 -3 6 -5 -1 -5 -18z"/>
<path d="M894 5068 c-4 -7 -15 -24 -23 -38 -10 -15 -11 -21 -3 -16 13 7 46 66
38 66 -3 0 -8 -6 -12 -12z"/>
<path d="M590 4760 c-9 -6 -10 -10 -3 -10 6 0 15 5 18 10 8 12 4 12 -15 0z"/>
<path d="M3453 4693 c12 -14 16 -29 11 -47 -5 -20 -2 -26 11 -26 27 0 16 59
-15 79 -25 15 -25 15 -7 -6z"/>
<path d="M3385 4640 c3 -5 11 -10 16 -10 6 0 7 5 4 10 -3 6 -11 10 -16 10 -6
0 -7 -4 -4 -10z"/>
<path d="M714 4856 c11 -9 24 -16 30 -16 12 0 7 5 -24 19 -24 11 -24 11 -6 -3z"/>
<path d="M2451 4586 c-7 -8 -8 -17 -3 -20 6 -3 13 1 16 10 9 23 2 28 -13 10z"/>
<path d="M2530 4530 c0 -5 5 -10 11 -10 5 0 7 5 4 10 -3 6 -8 10 -11 10 -2 0
-4 -4 -4 -10z"/>
<path d="M3755 1513 c-82 -81 -118 -119 -80 -86 70 61 244 233 235 232 -3 0
-72 -66 -155 -146z"/>
<path d="M2755 860 c-3 -5 -1 -10 4 -10 6 0 11 5 11 10 0 6 -2 10 -4 10 -3 0
-8 -4 -11 -10z"/>
<path d="M2256 4342 c-3 -5 8 -12 25 -14 16 -3 32 -1 35 4 3 4 -1 8 -10 8 -8
0 -21 3 -29 6 -8 3 -18 1 -21 -4z"/>
<path d="M2980 4375 c0 -3 16 -11 35 -19 19 -8 51 -32 71 -53 22 -23 31 -29
25 -16 -6 12 -26 33 -44 47 -31 24 -87 50 -87 41z"/>
<path d="M2940 4350 c-9 -6 -10 -10 -3 -10 6 0 15 5 18 10 8 12 4 12 -15 0z"/>
<path d="M3115 3390 c-10 -11 -13 -20 -8 -20 13 0 38 29 31 35 -3 3 -13 -4
-23 -15z"/>
<path d="M2776 3303 c-6 -14 -5 -15 5 -6 7 7 10 15 7 18 -3 3 -9 -2 -12 -12z"/>
<path d="M2810 3180 c-9 -6 -10 -10 -3 -10 6 0 15 5 18 10 8 12 4 12 -15 0z"/>
<path d="M2754 3155 c-18 -13 -18 -14 4 -8 12 3 25 9 28 14 8 14 -10 11 -32
-6z"/>
<path d="M2698 3113 c7 -3 16 -2 19 1 4 3 -2 6 -13 5 -11 0 -14 -3 -6 -6z"/>
<path d="M2471 3550 c-5 -16 -8 -30 -6 -30 2 0 13 14 25 30 17 23 18 30 7 30
-8 0 -20 -13 -26 -30z"/>
<path d="M2327 3390 c3 -11 7 -20 9 -20 2 0 4 9 4 20 0 11 -4 20 -9 20 -5 0
-7 -9 -4 -20z"/>
<path d="M2401 3356 c14 -8 43 -16 65 -17 37 -2 94 14 94 26 0 4 -4 3 -10 0
-13 -8 -123 -8 -152 0 -21 5 -20 4 3 -9z"/>
<path d="M2346 3325 c-15 -41 -1 -44 84 -15 l55 18 -58 -5 c-41 -4 -61 -2 -67
6 -5 9 -9 8 -14 -4z"/>
<path d="M2297 3719 c7 -7 15 -10 18 -7 3 3 -2 9 -12 12 -14 6 -15 5 -6 -5z"/>
<path d="M2352 3134 c10 -10 20 -16 22 -13 3 3 -5 11 -17 18 -21 13 -21 12 -5
-5z"/>
<path d="M3209 2463 c-13 -16 -12 -17 4 -4 9 7 17 15 17 17 0 8 -8 3 -21 -13z"/>
<path d="M2246 2215 c-9 -26 -7 -32 5 -12 6 10 9 21 6 23 -2 3 -7 -2 -11 -11z"/>
<path d="M2185 2079 c-4 -6 -5 -12 -2 -15 2 -3 7 2 10 11 7 17 1 20 -8 4z"/>
<path d="M1920 1618 c-13 -18 -35 -48 -48 -65 -13 -18 -22 -33 -19 -33 4 0 75
91 91 118 14 24 -1 11 -24 -20z"/>
<path d="M1804 1468 l-19 -23 23 19 c21 18 27 26 19 26 -2 0 -12 -10 -23 -22z"/>
<path d="M3544 2598 l-19 -23 23 19 c21 18 27 26 19 26 -2 0 -12 -10 -23 -22z"/>
<path d="M3484 2528 l-29 -33 33 29 c30 28 37 36 29 36 -2 0 -16 -15 -33 -32z"/>
<path d="M3310 2343 l-115 -118 118 115 c109 107 122 120 114 120 -1 0 -54
-53 -117 -117z"/>
<path d="M3134 2178 l-29 -33 33 29 c30 28 37 36 29 36 -2 0 -16 -15 -33 -32z"/>
<path d="M3079 2133 c-13 -16 -12 -17 4 -4 16 13 21 21 13 21 -2 0 -10 -8 -17
-17z"/>
<path d="M2890 1995 c-15 -18 -35 -20 -24 -3 4 7 3 8 -5 4 -6 -4 -9 -11 -6
-16 3 -5 -31 -34 -75 -65 -78 -55 -108 -82 -52 -47 47 29 192 133 192 138 0
10 -18 3 -30 -11z"/>
<path d="M2634 1814 c-18 -14 -18 -15 4 -4 12 6 22 13 22 15 0 8 -5 6 -26 -11z"/>
<path d="M2553 1769 c-29 -17 -53 -33 -53 -36 0 -5 89 44 105 58 16 16 1 9
-52 -22z"/>
<path d="M1707 1798 c-40 -70 -69 -130 -64 -134 3 -3 26 36 51 86 49 93 56
122 13 48z"/>
<path d="M1656 1779 c-9 -16 -51 -75 -93 -131 -79 -106 -113 -158 -113 -171 0
-16 101 107 130 160 17 30 33 53 36 50 8 -7 -61 -116 -118 -187 -29 -36 -44
-58 -34 -50 11 8 46 48 78 89 32 40 58 70 58 65 0 -5 -9 -20 -20 -34 -11 -14
-20 -29 -20 -34 0 -6 11 5 25 24 14 19 23 40 20 48 -2 7 9 37 26 67 17 30 28
59 24 64 -3 6 2 22 11 36 9 14 15 28 12 30 -2 2 -12 -9 -22 -26z m-16 -69 c-6
-12 -14 -20 -17 -17 -2 3 1 14 8 26 7 11 15 18 17 16 2 -2 -2 -13 -8 -25z"/>
<path d="M1056 1315 c-3 -9 -6 -26 -5 -38 1 -14 4 -9 9 13 9 37 7 52 -4 25z"/>
<path d="M1091 1284 c0 -11 3 -14 6 -6 3 7 2 16 -1 19 -3 4 -6 -2 -5 -13z"/>
<path d="M1121 1254 c-21 -17 -31 -21 -32 -12 -1 7 -5 0 -8 -17 -10 -39 4 -55
27 -31 9 11 11 16 5 12 -26 -14 -12 8 25 40 43 39 28 46 -17 8z"/>
<path d="M1237 1222 c-45 -46 -49 -67 -5 -26 l31 29 -21 -32 c-30 -42 -28 -53
3 -17 14 16 23 34 21 40 -3 6 1 17 7 23 6 6 8 13 6 16 -3 2 -22 -12 -42 -33z"/>
<path d="M1778 1333 c7 -3 16 -2 19 1 4 3 -2 6 -13 5 -11 0 -14 -3 -6 -6z"/>
<path d="M1777 1218 c-59 -17 -106 -33 -103 -35 5 -6 192 44 214 57 26 15 5
11 -111 -22z"/>
<path d="M35 1320 c10 -11 20 -20 23 -20 3 0 -3 9 -13 20 -10 11 -20 20 -23
20 -3 0 3 -9 13 -20z"/>
<path d="M90 1276 c0 -2 8 -10 18 -17 15 -13 16 -12 3 4 -13 16 -21 21 -21 13z"/>
<path d="M137 1259 c7 -9 10 -19 6 -23 -4 -4 1 -4 10 0 10 3 17 7 15 8 -2 1
-12 8 -23 16 -18 14 -19 13 -8 -1z"/>
<path d="M192 1194 c10 -10 20 -15 24 -12 3 4 -5 12 -18 18 -22 12 -22 12 -6
-6z"/>
<path d="M130 1106 c0 -2 12 -12 28 -21 l27 -18 -19 21 c-17 20 -36 29 -36 18z"/>
<path d="M350 1006 c0 -3 9 -10 20 -16 11 -6 20 -8 20 -6 0 3 -9 10 -20 16
-11 6 -20 8 -20 6z"/>
<path d="M1428 823 c7 -3 16 -2 19 1 4 3 -2 6 -13 5 -11 0 -14 -3 -6 -6z"/>
<path d="M2207 4893 c-4 -3 -7 -16 -6 -27 0 -19 1 -19 10 3 10 24 8 36 -4 24z"/>
<path d="M2158 4769 c-13 -30 -14 -38 -3 -29 15 13 38 70 27 70 -4 0 -15 -19
-24 -41z"/>
<path d="M0 1557 c0 -2 19 -19 43 -37 23 -19 36 -26 28 -17 -15 19 -71 61 -71
54z"/>
<path d="M0 1486 c0 -2 8 -10 18 -17 15 -13 16 -12 3 4 -13 16 -21 21 -21 13z"/>
<path d="M94 1482 c8 -13 66 -56 66 -49 0 3 -17 17 -37 33 -20 15 -33 23 -29
16z"/>
<path d="M207 1399 c12 -15 73 -53 73 -46 0 2 -19 17 -42 32 -24 16 -38 22
-31 14z"/>
<path d="M290 1346 c0 -7 170 -99 175 -95 2 3 -37 26 -86 52 -49 27 -89 46
-89 43z"/>
<path d="M264 1296 c24 -20 176 -99 181 -94 2 1 -43 27 -98 56 -56 29 -94 46
-83 38z"/>
<path d="M571 1186 c-29 -35 22 -62 173 -91 43 -8 99 -15 124 -15 44 1 46 2
27 16 -11 8 -51 24 -90 35 -38 11 -102 31 -142 45 -84 28 -78 28 -92 10z"/>
</g>
</svg>
